
<svg xmlns="http://www.w3.org/2000/svg" width="10" height="13"><path d="M9.722 4.875h-.833V3.792a3.89 3.89 0 00-7.778 0v1.083H.278A.274.274 0 000 5.146v6.771A1.1 1.1 0 001.111 13h7.778A1.1 1.1 0 0010 11.917V5.146a.274.274 0 00-.278-.271zm-3.891 5.658a.267.267 0 01-.069.211.281.281 0 01-.207.09H4.444a.281.281 0 01-.207-.09.267.267 0 01-.069-.211L4.344 9a1.063 1.063 0 01-.455-.871 1.111 1.111 0 012.222 0A1.063 1.063 0 015.657 9zm1.39-5.658H2.778V3.792a2.223 2.223 0 014.444 0z" fill="#fff"/></svg>