<svg><path d="M208.417 3.16491L193.645 11.3768L184.473 6.27605L189.258 3.57973V2.41977L182.878 5.98414V16.7387L173.705 11.638V1.98191L165.059 6.82146L152.784 0L131.831 11.6533V20.7409L124.501 24.8507V26.0107L131.831 21.9009V34.3531L122.658 39.4538V30.3662L112.417 36.1046V37.2645L121.621 32.11V40.0377L112.417 45.1461V46.306L121.621 41.1899V52.5744L131.831 46.8591V58.2513L142.838 52.1058L152.297 46.8591V52.0059L153.334 51.4221V46.9129L162.02 51.7448L145.701 60.84V62L163.001 52.3439L173.187 58.0055L183.922 52.0367V40.6599L185.741 39.6536L194.164 34.9677L201.454 30.904V29.721L194.164 33.8V23.0455L188.796 20.0649L184.473 17.6682L208.401 4.35559L208.417 3.16491ZM122.658 50.8306V41.213L131.312 46.0218L122.658 50.8306ZM131.831 45.1538L123.177 40.3449L131.831 35.5361V45.1538ZM172.668 3.72568V11.0541L166.096 7.40528L172.668 3.72568ZM132.876 35.5361L141.53 40.3449L132.876 45.1538V35.5361ZM132.876 56.5152V46.9283L141.522 51.7064L132.876 56.5152ZM142.048 50.8306L133.426 46.0372L142.048 41.213V50.8306ZM143.093 50.8306V41.213L151.739 46.0218L143.093 50.8306ZM160.162 32.1638L161.494 34.983L152.784 33.2469L144.074 34.983L145.406 32.1638L135.907 26.8864L138.658 25.1042L136.856 21.0943L141.761 22.1544V19.4657L148.939 23.468L146.267 12.7134L150.072 14.8336L152.76 8.75728L155.488 14.8566L159.292 12.7441L156.549 23.4987L163.823 19.4504V22.1697L168.776 21.0098L166.925 25.1196L169.661 26.8864L160.162 32.1638ZM162.483 50.8537L153.813 46.0295L162.451 41.2283L162.483 50.8537ZM172.7 56.5613L164.046 51.7601L172.668 46.9436L172.7 56.5613ZM163.464 50.8767V41.2514L172.15 46.0909L163.464 50.8767ZM172.636 45.1922L164.014 40.3833L172.668 35.5745L172.636 45.1922ZM172.636 23.0224V34.3762L153.247 45.1307V34.3762L163.233 36.3658L161.446 32.5786L171.576 26.9402L168.249 24.7355L170.523 19.6808L164.852 20.8946V17.6682L158.128 21.4323L160.88 10.6777L155.974 13.4048L152.784 6.20691L149.593 13.4048L144.696 10.6777L147.44 21.4323L140.716 17.6912V20.8946L135.085 19.6808L137.358 24.7355L133.952 26.9402L144.082 32.5786L142.295 36.3658L152.297 34.3762V45.1307L132.908 34.3762V12.2295L152.848 1.15996L172.668 12.2141V14.3496L172.636 23.0224ZM173.737 12.8286L182.391 17.6682L173.737 22.4463V12.8286ZM173.737 35.5745L182.375 40.3833L178.794 42.3806L173.737 45.1922V35.5745ZM173.737 56.5536V46.9359L182.383 51.7448L173.737 56.5536ZM182.91 50.8767L174.24 46.0909L179.296 43.2717L182.886 41.2744L182.91 50.8767ZM182.91 39.4846L174.255 34.6758L177.972 32.6093V31.4955L173.737 33.8V24.1824L182.91 29.2831V39.4846ZM182.91 28.1232L174.255 23.3143L182.91 18.5055V28.1232ZM185.215 38.7855L183.954 39.4846V29.8669L192.592 34.6681L185.215 38.7855ZM193.127 33.8L184.473 28.9989L193.127 24.1824V33.8ZM188.277 20.9099L192.6 23.3143L183.954 28.1232V18.5055L188.277 20.9099ZM183.954 16.7694V7.1441L192.6 11.9529L183.954 16.7694Z" fill="#23333A"></path></svg>