<svg xmlns:xlink="http://www.w3.org/1999/xlink" xmlns="http://www.w3.org/2000/svg" viewBox="0 0 211 62" width="211"  height="62" ><path d="M4.41699 4.83077H5.87104V8.46538H6.90965V4.83077H8.3637V4H4.41699V4.83077ZM13.4531 8.46538V4H12.4145V5.76538H10.3373V4H9.29865V8.46538H10.3373V6.7H12.4145V8.46538H13.4531ZM18.4378 7.63462V8.46538H14.9065V4H18.3339V4.83077H15.9451V5.86923H18.0224V6.59615H15.9451V7.63462H18.4378ZM7.01392 18.9539V12.5154H16.5691V10.9577H5.35215V27.3654H7.01392V20.4077H15.5305V18.9539H7.01392ZM22.0731 25.7038C20.9307 24.4577 20.3075 22.6923 20.3075 20.4077V11.0615H22.0731V20.4077C22.0731 22.2769 22.4886 23.7308 23.3195 24.6654C24.1503 25.6 25.3967 26.1192 27.0584 26.1192C28.7202 26.1192 29.9665 25.6 30.7974 24.6654C31.6283 23.7308 32.0438 22.2769 32.0438 20.4077V11.0615H33.7055V20.4077C33.7055 22.6923 33.0824 24.4577 31.9399 25.7038C30.7974 26.95 29.1357 27.5731 26.9546 27.5731C24.8774 27.4692 23.3195 26.8461 22.0731 25.7038ZM37.1331 12.5154H42.8455V27.3654H44.6111V12.5154H50.4273V10.9577H37.1331V12.5154ZM55.5165 25.7038C54.374 24.4577 53.7509 22.6923 53.7509 20.4077V11.0615H55.5165V20.4077C55.5165 22.2769 55.9319 23.7308 56.7628 24.6654C57.5937 25.6 58.84 26.1192 60.5018 26.1192C62.1636 26.1192 63.4099 25.6 64.2408 24.6654C65.0717 23.7308 65.4871 22.2769 65.4871 20.4077V11.0615H67.1489V20.4077C67.1489 22.6923 66.5257 24.4577 65.3833 25.7038C64.2408 26.8461 62.579 27.4692 60.5018 27.4692C58.3207 27.4692 56.7628 26.8461 55.5165 25.7038ZM80.2352 22.0692L83.9742 27.3654V27.2616H85.8437L81.7931 21.6539C83.0394 21.3423 83.9742 20.6154 84.5973 19.7846C85.2205 18.9539 85.5321 17.8116 85.5321 16.5654C85.5321 14.8 84.9089 13.45 83.7664 12.4116C82.624 11.4769 80.9622 10.9577 78.885 10.9577H72.7572V27.3654H74.5228V22.1731H78.885C79.1591 22.1731 79.4043 22.1442 79.6358 22.1168C79.8429 22.0924 80.039 22.0692 80.2352 22.0692ZM83.8703 16.5654C83.8703 17.8116 83.4549 18.85 82.624 19.5769C81.6892 20.3039 80.4429 20.7192 78.885 20.7192H74.5228V12.5154H78.885C80.5467 12.5154 81.7931 12.8269 82.624 13.5539C83.4549 14.1769 83.8703 15.2154 83.8703 16.5654ZM101.839 25.9116V27.3654H90.3101V10.9577H101.527V12.5154H91.9719V18.3308H100.488V19.7846H91.9719V25.9116H101.839ZM5.35215 30.1692H7.11778V46.5769H5.35215V30.1692ZM25.8127 30.1692V46.5769H24.3587L13.8687 33.2846V46.5769H12.1031V30.1692H13.5571L24.1509 43.4616V30.1692H25.8127ZM56.6594 46.5769V30.1692H55.2053L48.1428 42.3192L41.0803 30.1692H39.6262V46.5769H41.288V33.5962L47.7273 44.5H48.5582L54.9976 33.4923V46.5769H56.6594ZM63.4095 30.1692H61.6439V46.5769H63.4095V30.1692ZM82.0006 46.5769V30.1692H80.3388V43.4616L69.745 30.1692H68.3948V46.5769H70.0566V33.2846L80.6504 46.5769H82.0006ZM86.5705 30.1692H93.2176C94.9832 30.1692 96.4373 30.4808 97.7874 31.2077C99.1376 31.9346 100.176 32.8692 100.903 34.1154C101.63 35.3615 102.046 36.8154 102.046 38.3731C102.046 39.9308 101.63 41.3846 100.903 42.6308C100.176 43.8769 99.1376 44.8116 97.7874 45.5385C96.4373 46.2654 94.9832 46.5769 93.2176 46.5769H86.5705V30.1692ZM93.1137 45.1231C94.5678 45.1231 95.8141 44.8116 96.8527 44.2923C97.8913 43.7731 98.7222 42.9423 99.3454 41.9039C99.9685 40.8654 100.28 39.7231 100.28 38.4769C100.28 37.1269 99.9685 35.9846 99.3454 35.05C98.7222 34.0115 97.8913 33.2846 96.8527 32.6616C95.8141 32.1423 94.5678 31.8308 93.1137 31.8308H88.2323V45.2269H93.1137V45.1231ZM29.9667 57.8962V56.9615H26.9548V55.6115H29.5513V54.6769H26.9548V53.4308H29.8629V52.3923H25.7085V57.8962H29.9667ZM32.0442 57.8962H30.5901L32.6673 55.0923L30.694 52.3923H32.148L33.3944 54.2615L34.6407 52.3923H36.0947L34.1214 55.0923L36.1986 57.8962H34.7445L33.3944 56.0269L32.0442 57.8962ZM41.4957 53.4308C41.288 53.1192 40.9764 52.9115 40.6648 52.7038C40.2494 52.4962 39.8339 52.3923 39.4185 52.4962H37.0297V58H38.276V56.4423H39.4185C39.8339 56.4423 40.3532 56.4423 40.6648 56.2346C40.9764 56.0269 41.288 55.8192 41.4957 55.5077C41.7034 55.1961 41.8073 54.8846 41.8073 54.4692C41.8073 54.0538 41.7034 53.7423 41.4957 53.4308ZM40.4571 54.3654C40.4571 54.6769 40.3532 54.8846 40.1455 55.0923C39.9378 55.3 39.7301 55.4038 39.3146 55.3H38.276V53.4308H39.3146C39.6262 53.4308 39.9378 53.4308 40.1455 53.6385C40.3532 53.8461 40.4571 54.0538 40.4571 54.3654ZM43.9882 57.6885C43.5727 57.4808 43.1573 57.0654 42.9495 56.65C42.7418 56.2346 42.5341 55.7154 42.5341 55.1962C42.5341 54.6769 42.638 54.1577 42.9495 53.7423C43.1573 53.3269 43.5727 53.0154 43.9882 52.7038C44.4036 52.4962 44.9229 52.2885 45.5461 52.2885C46.1692 52.2885 46.5847 52.3923 47.104 52.7038C47.5194 52.9115 47.9349 53.3269 48.1426 53.7423C48.4542 54.1577 48.558 54.6769 48.558 55.1962C48.558 55.7154 48.4542 56.2346 48.1426 56.65C47.831 57.0654 47.5194 57.3769 47.104 57.6885C46.6885 57.8962 46.1692 58.1038 45.5461 58.1038C44.9229 58 44.4036 57.8962 43.9882 57.6885ZM46.377 56.7538C46.6885 56.65 46.8963 56.4423 47.0001 56.1308C47.0179 56.0774 47.0357 56.0271 47.053 55.9782L47.0531 55.978C47.1366 55.7418 47.2078 55.5403 47.2078 55.1962C47.2078 54.8846 47.104 54.5731 47.0001 54.2616L47.0001 54.2615C46.8963 53.95 46.6885 53.7423 46.377 53.6385C46.3119 53.6168 46.2514 53.5951 46.1935 53.5744C45.9741 53.4958 45.7926 53.4308 45.5461 53.4308C45.2345 53.4308 44.9229 53.5346 44.7152 53.6385C44.4036 53.7423 44.1959 53.95 44.092 54.2615C44.0742 54.3149 44.0564 54.3652 44.0392 54.4141L44.0391 54.4143C43.9556 54.6505 43.8843 54.852 43.8843 55.1962C43.8843 55.5077 43.9882 55.8192 44.092 56.1307L44.092 56.1308C44.1959 56.4423 44.4036 56.65 44.7152 56.7538C44.7801 56.7755 44.8406 56.7971 44.8984 56.8179L44.8986 56.8179C45.118 56.8965 45.2995 56.9615 45.5461 56.9615C45.8577 56.9615 46.1692 56.8577 46.377 56.7538ZM55.5169 57.8962V56.8577H53.0242L54.2706 55.6115C54.3916 55.4502 54.5126 55.3202 54.6215 55.2033L54.6215 55.2032C54.7929 55.0191 54.9341 54.8674 54.9976 54.6769C55.1015 54.4692 55.2053 54.1577 55.2053 53.8462C55.2053 53.5346 55.2053 53.2231 54.9976 53.0154C54.7899 52.8077 54.5822 52.6 54.2706 52.4962C53.959 52.3923 53.6474 52.2885 53.232 52.2885C52.8165 52.2885 52.4011 52.3923 51.9856 52.6C51.5702 52.8077 51.2586 53.0154 51.0509 53.3269L51.9856 53.95C52.1934 53.7423 52.2972 53.6385 52.5049 53.5346C52.7127 53.4308 52.9204 53.4308 53.1281 53.4308C53.3358 53.4308 53.6474 53.5346 53.7513 53.6385C53.8551 53.7423 53.959 53.95 53.959 54.1577C53.959 54.2615 53.959 54.4692 53.8551 54.5731C53.8551 54.6769 53.6474 54.8846 53.4397 55.0923L51.3625 57.0654V57.8962H55.5169ZM57.3864 57.6885C57.0748 57.4808 56.7632 57.1692 56.5555 56.7539C56.3478 56.3385 56.2439 55.8192 56.2439 55.1962C56.2439 54.5731 56.3478 54.0539 56.5555 53.6385C56.7632 53.2231 57.0748 52.9115 57.3864 52.7039C57.698 52.4962 58.1134 52.3923 58.6327 52.3923C59.152 52.3923 59.4636 52.4962 59.8791 52.7039C60.1906 52.9115 60.5022 53.2231 60.7099 53.6385C60.9177 54.0539 61.0215 54.5731 61.0215 55.1962C61.0215 55.8192 60.9177 56.3385 60.7099 56.7539C60.5022 57.1692 60.1906 57.4808 59.8791 57.6885C59.4636 57.8962 59.0482 58 58.6327 58C58.2173 58 57.698 57.8962 57.3864 57.6885ZM59.3598 56.5462C59.5675 56.2346 59.6713 55.8192 59.6713 55.1962C59.6713 54.5731 59.5675 54.1577 59.3598 53.8462C59.152 53.5346 58.9443 53.4308 58.5289 53.4308C58.2173 53.4308 57.9057 53.5346 57.698 53.8462C57.4903 54.1577 57.3864 54.5731 57.3864 55.1962C57.3864 55.8192 57.4903 56.2346 57.698 56.5462C57.9057 56.8577 58.1134 56.9615 58.5289 56.9615C58.9443 56.9615 59.152 56.8577 59.3598 56.5462ZM65.7985 57.8962V56.8577H63.3059L64.5522 55.6115C64.6732 55.4502 64.7943 55.3202 64.9031 55.2032C65.0745 55.0191 65.2157 54.8674 65.2792 54.6769C65.3831 54.4692 65.4869 54.1577 65.4869 53.8462C65.4869 53.5346 65.4869 53.2231 65.2792 53.0154C65.0715 52.8077 64.8638 52.6 64.5522 52.4962L64.5522 52.4961C64.2406 52.3923 63.929 52.2885 63.5136 52.2885C63.0981 52.2885 62.6827 52.3923 62.2673 52.6C61.8518 52.8077 61.5402 53.0154 61.3325 53.3269L62.2673 53.95C62.475 53.7423 62.5788 53.6385 62.7866 53.5346C62.9943 53.4308 63.202 53.4308 63.4097 53.4308C63.6174 53.4308 63.929 53.5346 64.0329 53.6385C64.1367 53.7423 64.2406 53.95 64.2406 54.1577C64.2406 54.2615 64.2406 54.4692 64.1367 54.5731C64.1367 54.6769 63.9291 54.8846 63.7213 55.0923L63.7213 55.0923L61.6441 57.0654V57.8962H65.7985ZM67.668 57.6885C67.3564 57.4808 67.0448 57.1692 66.8371 56.7539C66.6294 56.3385 66.5255 55.8192 66.5255 55.1962C66.5255 54.5731 66.6294 54.0539 66.8371 53.6385C67.0448 53.2231 67.3564 52.9115 67.668 52.7039C67.9796 52.4962 68.395 52.3923 68.9143 52.3923C69.3298 52.3923 69.7452 52.4962 70.1607 52.7039C70.4723 52.9115 70.7838 53.2231 70.9916 53.6385C71.1993 54.0539 71.3031 54.5731 71.3031 55.1962C71.3031 55.8192 71.1993 56.3385 70.9916 56.7539C70.7838 57.1692 70.4723 57.4808 70.1607 57.6885C69.8491 57.8962 69.4336 58 68.9143 58C68.395 58 67.9796 57.8962 67.668 57.6885ZM69.6414 56.5462C69.8491 56.2346 69.9529 55.8192 69.9529 55.1962C69.9529 54.5731 69.8491 54.1577 69.6414 53.8462C69.4336 53.5346 69.2259 53.4308 68.8105 53.4308C68.4989 53.4308 68.1873 53.5346 67.9796 53.8462C67.7719 54.1577 67.668 54.5731 67.668 55.1962C67.668 55.8192 67.7719 56.2346 67.9796 56.5462C68.1873 56.8577 68.395 56.9615 68.8105 56.9615C69.2259 56.9615 69.4336 56.8577 69.6414 56.5462ZM76.9122 52.3923H74.4196V57.7923H76.9122C77.5354 57.7923 78.0547 57.6885 78.4701 57.4808C78.8856 57.2731 79.301 56.9615 79.5088 56.5462C79.8203 56.1308 79.9242 55.6115 79.9242 55.0923C79.9242 54.5731 79.7165 54.0539 79.5088 53.6385C79.301 53.2231 78.8856 52.9115 78.4701 52.7039C78.0547 52.4962 77.5354 52.3923 76.9122 52.3923ZM78.2624 56.4423C77.9508 56.7539 77.4315 56.8577 76.9122 56.8577V56.9615H75.7698V53.5346H76.9122C77.5354 53.5346 77.9508 53.6385 78.2624 53.95C78.574 54.2615 78.7817 54.6769 78.7817 55.1962C78.7817 55.7154 78.574 56.1308 78.2624 56.4423ZM81.6892 57.3769C81.2738 56.9615 81.0661 56.3385 81.0661 55.5077V52.3923H82.3124V55.4039C82.3124 56.3385 82.7278 56.8577 83.5587 56.8577C83.9742 56.8577 84.2857 56.7539 84.4935 56.5462C84.7012 56.3385 84.805 55.9231 84.805 55.4039V52.3923H86.0514V55.5077C86.0514 56.3385 85.8437 56.9615 85.4282 57.3769C85.0128 57.7923 84.3896 58 83.5587 58C82.7278 58 82.1047 57.7923 81.6892 57.3769ZM92.491 56.4423C92.491 56.1308 92.3871 55.8192 92.1794 55.6115C91.9716 55.3 91.7639 55.1962 91.5562 55.1962C91.7639 55.0923 91.9716 54.8846 92.0755 54.6769C92.1794 54.4692 92.2832 54.2615 92.2832 53.95C92.2832 53.5346 92.0755 53.1192 91.7639 52.9115C91.3485 52.6 90.8292 52.4962 90.206 52.4962H87.5056V58H90.3099C91.0369 58 91.5562 57.7923 91.9716 57.5846C92.2832 57.2731 92.491 56.9616 92.491 56.4423ZM88.6481 54.7808V53.4308V53.3269H89.8944C90.206 53.3269 90.4137 53.4308 90.6215 53.5346C90.7253 53.6385 90.8292 53.8462 90.8292 54.0539C90.8292 54.2616 90.8292 54.4692 90.6215 54.5731C90.4137 54.6769 90.206 54.7808 89.8944 54.7808H88.6481ZM91.1408 56.3385C91.1408 56.5462 91.1408 56.7539 90.933 56.8577C90.7253 56.9616 90.5176 56.9616 90.1021 56.9616H88.6481V55.6115H90.1021C90.8292 55.6115 91.1408 55.9231 91.1408 56.3385ZM97.1647 56.7539H94.5682L94.0489 57.8962H92.6987L95.1913 52.3923H96.4377L98.9303 57.8962H97.5801L97.1647 56.7539ZM96.7492 55.8192L95.9184 53.7423L95.0875 55.8192H96.7492ZM99.761 52.3923H101.007V57.8962H99.761V52.3923Z" fill="#23333A"></path><!----><path d="M208.417 3.16491L193.645 11.3768L184.473 6.27605L189.258 3.57973V2.41977L182.878 5.98414V16.7387L173.705 11.638V1.98191L165.059 6.82146L152.784 0L131.831 11.6533V20.7409L124.501 24.8507V26.0107L131.831 21.9009V34.3531L122.658 39.4538V30.3662L112.417 36.1046V37.2645L121.621 32.11V40.0377L112.417 45.1461V46.306L121.621 41.1899V52.5744L131.831 46.8591V58.2513L142.838 52.1058L152.297 46.8591V52.0059L153.334 51.4221V46.9129L162.02 51.7448L145.701 60.84V62L163.001 52.3439L173.187 58.0055L183.922 52.0367V40.6599L185.741 39.6536L194.164 34.9677L201.454 30.904V29.721L194.164 33.8V23.0455L188.796 20.0649L184.473 17.6682L208.401 4.35559L208.417 3.16491ZM122.658 50.8306V41.213L131.312 46.0218L122.658 50.8306ZM131.831 45.1538L123.177 40.3449L131.831 35.5361V45.1538ZM172.668 3.72568V11.0541L166.096 7.40528L172.668 3.72568ZM132.876 35.5361L141.53 40.3449L132.876 45.1538V35.5361ZM132.876 56.5152V46.9283L141.522 51.7064L132.876 56.5152ZM142.048 50.8306L133.426 46.0372L142.048 41.213V50.8306ZM143.093 50.8306V41.213L151.739 46.0218L143.093 50.8306ZM160.162 32.1638L161.494 34.983L152.784 33.2469L144.074 34.983L145.406 32.1638L135.907 26.8864L138.658 25.1042L136.856 21.0943L141.761 22.1544V19.4657L148.939 23.468L146.267 12.7134L150.072 14.8336L152.76 8.75728L155.488 14.8566L159.292 12.7441L156.549 23.4987L163.823 19.4504V22.1697L168.776 21.0098L166.925 25.1196L169.661 26.8864L160.162 32.1638ZM162.483 50.8537L153.813 46.0295L162.451 41.2283L162.483 50.8537ZM172.7 56.5613L164.046 51.7601L172.668 46.9436L172.7 56.5613ZM163.464 50.8767V41.2514L172.15 46.0909L163.464 50.8767ZM172.636 45.1922L164.014 40.3833L172.668 35.5745L172.636 45.1922ZM172.636 23.0224V34.3762L153.247 45.1307V34.3762L163.233 36.3658L161.446 32.5786L171.576 26.9402L168.249 24.7355L170.523 19.6808L164.852 20.8946V17.6682L158.128 21.4323L160.88 10.6777L155.974 13.4048L152.784 6.20691L149.593 13.4048L144.696 10.6777L147.44 21.4323L140.716 17.6912V20.8946L135.085 19.6808L137.358 24.7355L133.952 26.9402L144.082 32.5786L142.295 36.3658L152.297 34.3762V45.1307L132.908 34.3762V12.2295L152.848 1.15996L172.668 12.2141V14.3496L172.636 23.0224ZM173.737 12.8286L182.391 17.6682L173.737 22.4463V12.8286ZM173.737 35.5745L182.375 40.3833L178.794 42.3806L173.737 45.1922V35.5745ZM173.737 56.5536V46.9359L182.383 51.7448L173.737 56.5536ZM182.91 50.8767L174.24 46.0909L179.296 43.2717L182.886 41.2744L182.91 50.8767ZM182.91 39.4846L174.255 34.6758L177.972 32.6093V31.4955L173.737 33.8V24.1824L182.91 29.2831V39.4846ZM182.91 28.1232L174.255 23.3143L182.91 18.5055V28.1232ZM185.215 38.7855L183.954 39.4846V29.8669L192.592 34.6681L185.215 38.7855ZM193.127 33.8L184.473 28.9989L193.127 24.1824V33.8ZM188.277 20.9099L192.6 23.3143L183.954 28.1232V18.5055L188.277 20.9099ZM183.954 16.7694V7.1441L192.6 11.9529L183.954 16.7694Z" fill="#23333A"></path></svg>