<?xml version="1.0" standalone="no"?>
<!DOCTYPE svg PUBLIC "-//W3C//DTD SVG 1.1//EN" "http://www.w3.org/Graphics/SVG/1.1/DTD/svg11.dtd" >
<svg xmlns="http://www.w3.org/2000/svg" xmlns:xlink="http://www.w3.org/1999/xlink" version="1.1">
<metadata>
Created by FontForge 20170731 at Sat Aug 27 09:17:29 2022
 By Aleksey,,,
Copyright (c) 2012 by Fontfabric LLC. All rights reserved.
</metadata>
<defs>
<font id="Nexa-Bold" horiz-adv-x="1247" >
  <font-face 
    font-family="Nexa"
    font-weight="700"
    font-stretch="normal"
    units-per-em="2048"
    panose-1="2 0 0 0 0 0 0 0 0 0"
    ascent="1434"
    descent="-614"
    x-height="1010"
    cap-height="1434"
    bbox="-322 -602 2217 2023"
    underline-thickness="102"
    underline-position="-307"
    unicode-range="U+0020-FB02"
  />
<missing-glyph horiz-adv-x="1320" 
d="M496 274q0 -47 30 -74t66 -27t66 27t30 74q0 48 -30 75t-66 27t-66 -27t-30 -75zM260 911h158q-1 79 59.5 121.5t143.5 42.5q41 0 76 -7.5t68.5 -24t53.5 -50t21 -80.5q0 -25 -6.5 -45t-15 -32t-28 -25t-31.5 -18.5t-39 -16.5t-38 -16q-42 -20 -67.5 -39t-50 -51.5
t-35.5 -83t-11 -121.5l158 -2q0 75 15 109t63 55q15 10 45.5 24.5t54.5 26t52.5 33t47.5 46.5t31.5 65.5t11.5 90.5q0 64 -20.5 116t-56 86.5t-84 58t-102 33.5t-113.5 10q-73 0 -137 -18.5t-115 -54.5t-80.5 -96t-28.5 -137zM76 0v1434h1102v-1434h-1102z" />
    <glyph glyph-name=".notdef" horiz-adv-x="1320" 
d="M496 274q0 -47 30 -74t66 -27t66 27t30 74q0 48 -30 75t-66 27t-66 -27t-30 -75zM260 911h158q-1 79 59.5 121.5t143.5 42.5q41 0 76 -7.5t68.5 -24t53.5 -50t21 -80.5q0 -25 -6.5 -45t-15 -32t-28 -25t-31.5 -18.5t-39 -16.5t-38 -16q-42 -20 -67.5 -39t-50 -51.5
t-35.5 -83t-11 -121.5l158 -2q0 75 15 109t63 55q15 10 45.5 24.5t54.5 26t52.5 33t47.5 46.5t31.5 65.5t11.5 90.5q0 64 -20.5 116t-56 86.5t-84 58t-102 33.5t-113.5 10q-73 0 -137 -18.5t-115 -54.5t-80.5 -96t-28.5 -137zM76 0v1434h1102v-1434h-1102z" />
    <glyph glyph-name=".null" horiz-adv-x="0" 
 />
    <glyph glyph-name="nonmarkingreturn" horiz-adv-x="682" 
 />
    <glyph glyph-name="space" unicode=" " horiz-adv-x="509" 
 />
    <glyph glyph-name="exclam" unicode="!" horiz-adv-x="557" 
d="M168 1438h221v-1080h-221v1080zM141 125q0 37 15 65.5t39 43.5t52.5 22t57.5 0t53 -22t39 -43.5t15 -65.5t-15 -65.5t-39 -43.5t-53 -22t-57.5 0t-52.5 22t-39 43.5t-15 65.5z" />
    <glyph glyph-name="quotedbl" unicode="&#x22;" horiz-adv-x="827" 
d="M143 1432h195v-543h-195v543zM489 1432h195v-543h-195v543z" />
    <glyph glyph-name="numbersign" unicode="#" horiz-adv-x="1398" 
d="M516 1434h229l-77 -318h270l80 318h227l-78 -318h156v-196h-205l-110 -424h170v-201h-215l-72 -295h-229l71 295h-272l-72 -295h-227l71 295h-157v201h207l108 426h-170v194h217zM905 934h-297l-114 -451h297z" />
    <glyph glyph-name="dollar" unicode="$" horiz-adv-x="1392" 
d="M1247 1217l-184 -99q-43 74 -143 117t-213 45q-66 0 -127.5 -13t-113 -39t-82.5 -70.5t-30 -102.5q0 -31 11 -56.5t27 -43.5t45 -33t55.5 -25t69 -19t73 -14t80.5 -12q72 -10 126.5 -20t120.5 -28t114.5 -39.5t96.5 -54.5t78 -74t49 -98.5t19 -125.5q0 -100 -42 -181.5
t-112.5 -134t-158 -83t-183.5 -36.5v-204h-217v196q-111 9 -211 42.5t-189 105t-134 172.5l194 102q45 -100 171 -158.5t263 -58.5q58 0 110 6.5t102.5 23.5t87 43.5t59 68.5t22.5 96q0 56 -30.5 97t-90 66.5t-120.5 40.5t-148 27q-63 8 -106.5 15t-101 19t-97 27t-84.5 37
t-74 51t-54 66t-37.5 86.5t-12.5 108.5q-1 78 26.5 143.5t73.5 111t109.5 79.5t130.5 52.5t141 26.5v185h219v-185q72 -9 128 -24.5t112 -43t101.5 -73t80.5 -108.5z" />
    <glyph glyph-name="percent" unicode="%" horiz-adv-x="1521" 
d="M395 1452q78 0 141 -27t101.5 -70.5t59.5 -99.5t21 -114.5t-21 -114.5t-59.5 -99.5t-101.5 -70.5t-141 -27q-77 0 -140 27t-101.5 70.5t-59 99.5t-20.5 114.5t20.5 114.5t59 99.5t101.5 70.5t140 27zM1126 1438h203l-926 -1438h-204zM393 1300q-44 0 -78.5 -17.5
t-52.5 -45.5t-26 -61.5t0.5 -67.5t27 -62t53.5 -45.5t80 -17.5q44 0 78 17.5t51.5 45.5t26 62t-0.5 67.5t-27 61.5t-53 45.5t-79 17.5zM1126 608q78 0 141 -26.5t101.5 -70.5t59.5 -100t21 -114t-21 -114t-59.5 -100t-101.5 -70.5t-141 -26.5q-77 0 -140 26.5t-101.5 70.5
t-59 100t-20.5 114t20.5 114t59 100t101.5 70.5t140 26.5zM1124 457q-44 0 -78.5 -17.5t-52.5 -45.5t-26 -62t0.5 -68t27 -62t53.5 -45.5t80 -17.5q44 0 78 17.5t51.5 45.5t26 62t-0.5 68t-27 62t-53 45.5t-79 17.5z" />
    <glyph glyph-name="ampersand" unicode="&#x26;" horiz-adv-x="1439" 
d="M655 641q-153 0 -237 -67.5t-84 -153.5q0 -115 92 -174.5t238 -59.5q37 0 78 6.5t85.5 23.5t79.5 41t57.5 63.5t22.5 87.5v233h-332zM1202 641v-233q0 -84 34 -137.5t107 -53.5v-221q-210 -8 -262 186q-65 -100 -176 -152.5t-252 -52.5q-113 0 -210.5 28.5t-172.5 83
t-118 140t-43 193.5q0 101 67.5 189t169.5 122q-93 37 -147 121t-54 180q1 83 29.5 152.5t78.5 118t117 82t144 49.5t160 16q78 0 147 -11t136.5 -39t115.5 -71.5t78 -113t31 -158.5h-215q0 198 -299 198q-81 0 -141.5 -20t-94 -53t-49 -71t-14.5 -79q0 -58 30 -101.5
t77.5 -66t95.5 -33t96 -10.5h655v-182h-121z" />
    <glyph glyph-name="quotesingle" unicode="'" horiz-adv-x="475" 
d="M141 1434h193v-543h-193v543z" />
    <glyph glyph-name="parenleft" unicode="(" horiz-adv-x="708" 
d="M557 1563l107 -146q-175 -134 -267 -334t-94 -428q0 -238 91 -433t270 -331l-115 -157q-222 147 -341 387t-124 506q-5 276 117 528.5t356 407.5z" />
    <glyph glyph-name="parenright" unicode=")" horiz-adv-x="706" 
d="M43 1436l109 145q234 -155 355.5 -407.5t115.5 -526.5q-5 -267 -123.5 -507.5t-341.5 -387.5l-111 160q359 276 356 762q0 228 -92 428t-268 334z" />
    <glyph glyph-name="asterisk" unicode="*" horiz-adv-x="815" 
d="M657 981l-133 -98l-116 172l-119 -172l-133 98l131 156l-187 41l50 161l182 -67l-8 186h165l-16 -188l195 69l45 -161l-191 -41z" />
    <glyph glyph-name="plus" unicode="+" horiz-adv-x="1026" 
d="M90 807h316v315h210v-315h318v-197h-318v-319h-210v319h-316v197z" />
    <glyph glyph-name="comma" unicode="," horiz-adv-x="503" 
d="M381 94q0 -7 -1 -13.5t-4 -17.5t-6.5 -22.5t-11.5 -35t-16.5 -47.5t-23 -67.5t-29.5 -87.5h-127l45 195q-39 8 -62.5 34t-23.5 68q0 45 27 75.5t65 38t76 0t65 -39.5t27 -80z" />
    <glyph glyph-name="hyphen" unicode="-" horiz-adv-x="1011" 
d="M133 498v190h746v-190h-746z" />
    <glyph glyph-name="period" unicode="." horiz-adv-x="497" 
d="M119 113q0 61 40.5 95.5t89.5 34.5t89.5 -34.5t40.5 -95.5q0 -50 -27 -83.5t-65 -41.5t-76 0t-65 41.5t-27 83.5z" />
    <glyph glyph-name="slash" unicode="/" horiz-adv-x="1013" 
d="M754 1565h209l-705 -1733h-207z" />
    <glyph glyph-name="zero" unicode="0" horiz-adv-x="1433" 
d="M346 842v-250q0 -99 32 -178.5t84 -128.5t118.5 -75.5t136 -26.5t136 26.5t118.5 75.5t84 128.5t32 178.5v250q0 97 -32 176t-84 127.5t-118.5 75t-136 27t-136 -25.5t-118.5 -74.5t-84 -128t-32 -177.5zM117 592v250q0 150 51.5 271.5t136 196.5t192 115t220.5 40
t220.5 -40.5t192 -115t136 -196t51.5 -271.5v-250q0 -150 -51.5 -271.5t-136 -196t-192 -115t-220.5 -40.5t-220.5 40t-192 115t-136 196.5t-51.5 271.5z" />
    <glyph glyph-name="one" unicode="1" horiz-adv-x="890" 
d="M104 0v190h258v963l-245 -70v201l473 150v-1244h250v-190h-736z" />
    <glyph glyph-name="two" unicode="2" horiz-adv-x="1382" 
d="M354 1026h-229q6 96 43 171t93 122t132 77.5t153 43t163 12.5q84 0 160.5 -13.5t149.5 -45.5t126.5 -80.5t86 -124.5t32.5 -172q0 -100 -32 -177.5t-84.5 -125t-127.5 -78t-153.5 -42t-170.5 -11.5q-47 0 -91.5 -5t-94 -19.5t-86 -38t-60.5 -64t-24 -93.5v-147h924v-215
h-1145v362q0 95 33.5 169.5t88 121t131 77t155.5 42.5t167 12q55 0 109 10t110 33.5t90.5 71t34.5 113.5q0 230 -329 241q-66 0 -125.5 -12.5t-112 -38t-84.5 -71t-33 -105.5z" />
    <glyph glyph-name="three" unicode="3" horiz-adv-x="1380" 
d="M692 641h-227v188h213q92 0 166 22t120.5 69t47.5 112q0 39 -17.5 75.5t-54 69.5t-103 52.5t-153.5 19.5q-57 0 -111.5 -10t-106 -32t-83 -64t-31.5 -99h-227q0 89 34 160.5t89 117t129.5 76t151 43.5t157.5 13q87 0 167.5 -16.5t150.5 -51.5t122 -84t82 -118.5
t31 -151.5q0 -105 -61 -187t-162 -110q124 -35 190 -117t66 -196q0 -93 -33.5 -168.5t-89.5 -125.5t-132.5 -84t-160.5 -49t-176 -15q-84 0 -162.5 13t-155.5 44.5t-134 79t-92 122t-36 167.5h232q0 -50 24 -89.5t60.5 -63.5t85 -39.5t93 -21.5t87.5 -6q92 0 170 25
t129 79.5t51 129.5q0 42 -16 78.5t-52.5 70t-106 53t-165.5 19.5z" />
    <glyph glyph-name="four" unicode="4" horiz-adv-x="1355" 
d="M831 1432h265v-934h170v-213h-170v-285h-228v285h-794l-29 207zM301 498h567v667z" />
    <glyph glyph-name="five" unicode="5" horiz-adv-x="1341" 
d="M1171 1432v-215h-804v-304h323q166 0 290.5 -48.5t197.5 -153t73 -254.5q0 -147 -76 -255.5t-201.5 -162t-283.5 -53.5q-94 0 -176 13t-157 45t-128.5 81t-85 124.5t-32.5 172.5h229q0 -52 22 -92t56.5 -64t82.5 -39t93 -20.5t94 -5.5q90 0 164 27t122 86.5t48 142.5
q1 118 -91 180.5t-241 62.5h-547v732h1028z" />
    <glyph glyph-name="six" unicode="6" horiz-adv-x="1419" 
d="M369 1010v-260q55 81 156.5 122t207.5 41q89 0 170.5 -15t158 -50t132.5 -87.5t89.5 -133.5t33.5 -181q0 -93 -33.5 -171t-90.5 -131.5t-132.5 -91t-159 -55t-170.5 -17.5q-89 0 -172.5 17.5t-160 55.5t-133.5 92t-90.5 133t-33.5 173v557q0 111 50 199t133.5 141.5
t185.5 81.5t213 28q93 0 176.5 -14.5t156 -46.5t125 -79t83.5 -115.5t32 -151.5h-225q-3 98 -103 153.5t-239 55.5q-68 0 -131 -15t-115 -44.5t-83 -78.5t-31 -112zM731 186q94 0 172 25.5t131 86t53 148.5q0 126 -103 196.5t-251 70.5q-150 0 -256.5 -70.5t-105.5 -196.5
q0 -87 53 -147.5t131.5 -86.5t175.5 -26z" />
    <glyph glyph-name="seven" unicode="7" horiz-adv-x="1150" 
d="M451 0h-265l633 1214h-756v220h1051l14 -131z" />
    <glyph glyph-name="eight" unicode="8" horiz-adv-x="1439" 
d="M719 649q-66 0 -129.5 -13.5t-119 -40.5t-89.5 -73.5t-35 -105.5q0 -105 107.5 -171.5t265.5 -66.5q159 0 266 65.5t107 172.5q-1 79 -59 133.5t-139 77t-175 22.5zM106 418q2 103 68.5 192.5t177.5 128.5q-100 46 -154.5 122.5t-54.5 172.5q0 105 48 188.5t129 134
t182.5 77t214.5 26.5q90 0 174 -16t158.5 -50.5t130 -83.5t88 -120t32.5 -156q0 -91 -57.5 -169t-159.5 -117q111 -38 178.5 -132.5t69.5 -197.5q1 -96 -31.5 -173t-89.5 -128t-136.5 -85.5t-168 -49.5t-188.5 -15q-96 0 -183 15t-166.5 49t-137.5 85t-91.5 128.5
t-32.5 173.5zM377 1040q2 -71 54.5 -123t127.5 -75t160 -23q88 0 163 23t126.5 74.5t52.5 123.5q3 105 -99 166.5t-245 61.5q-147 0 -244 -64.5t-96 -163.5z" />
    <glyph glyph-name="nine" unicode="9" horiz-adv-x="1421" 
d="M1055 428v260q-53 -81 -157 -123.5t-210 -42.5q-89 0 -170.5 15t-158 50.5t-132.5 88.5t-89.5 134t-33.5 181q0 93 33.5 171t90.5 131.5t132.5 91.5t159 55.5t170.5 17.5q111 0 214 -29t188 -85t136.5 -148.5t51.5 -208.5v-557q0 -111 -49.5 -199t-132.5 -141.5
t-185 -81.5t-213 -28q-118 0 -220 24t-184 71.5t-130 127.5t-49 184h231q1 -66 53 -114.5t129.5 -71.5t167.5 -23q58 0 119.5 16.5t115 46.5t88 79t34.5 108zM690 1251q-95 0 -173.5 -25.5t-131.5 -86t-53 -148.5q0 -129 103 -197.5t253 -68.5t256.5 70t106.5 196
q-1 87 -54.5 147.5t-132 86.5t-174.5 26z" />
    <glyph glyph-name="colon" unicode=":" horiz-adv-x="524" 
d="M133 113q0 48 26.5 81.5t64.5 41t76 0t64.5 -41t26.5 -81.5t-26.5 -81.5t-64.5 -41t-76 0t-64.5 41t-26.5 81.5zM133 711q0 49 26.5 82.5t64.5 41.5t76 0t64.5 -41.5t26.5 -82.5q0 -48 -26.5 -81.5t-64.5 -41t-76 0t-64.5 41t-26.5 81.5z" />
    <glyph glyph-name="semicolon" unicode=";" horiz-adv-x="536" 
d="M141 711q0 49 26.5 82.5t64.5 41.5t76 0t64.5 -41.5t26.5 -82.5q0 -48 -26.5 -81.5t-64.5 -41t-76 0t-64.5 41t-26.5 81.5zM395 94q0 -5 -0.5 -10t-2 -12.5t-3.5 -14.5t-6 -20.5t-8 -26t-12 -35.5t-15 -44.5t-19.5 -57.5t-23.5 -70h-129l45 195q-38 8 -61 34.5t-23 67.5
q0 44 26.5 75t64.5 38.5t76 0.5t64.5 -39.5t26.5 -80.5z" />
    <glyph glyph-name="less" unicode="&#x3c;" horiz-adv-x="794" 
d="M336 645l342 -319l-137 -148l-463 447v43l463 444l135 -145z" />
    <glyph glyph-name="equal" unicode="=" horiz-adv-x="1153" 
d="M143 317v195h867v-195h-867zM143 766v197h867v-197h-867z" />
    <glyph glyph-name="greater" unicode="&#x3e;" horiz-adv-x="794" 
d="M115 315l344 330l-342 330l137 137l461 -444v-43l-461 -447z" />
    <glyph glyph-name="question" unicode="?" horiz-adv-x="1241" 
d="M422 133q0 39 16 69.5t41 46.5t56 23.5t61.5 0t55.5 -23.5t41 -46.5t16 -69.5q0 -54 -29.5 -90.5t-71.5 -45t-84.5 0t-72 45t-29.5 90.5zM293 1012h-223q0 89 30 162t81 123t121.5 84t149 49.5t164.5 15.5q111 0 206.5 -24t174.5 -73t124 -134.5t44 -198.5
q0 -70 -19.5 -126.5t-47.5 -91.5t-71 -66t-78.5 -47t-81.5 -37t-68 -34q-70 -32 -95.5 -81t-25.5 -152l-227 2q0 82 12.5 145.5t32.5 105t54.5 74t67.5 51.5t82 40q16 7 54.5 23.5t55.5 24.5t45 26.5t41 36t23.5 45.5t10.5 63q0 66 -28.5 113t-77.5 70.5t-100.5 33.5
t-111.5 10q-77 0 -147 -23.5t-120.5 -78t-51.5 -131.5z" />
    <glyph glyph-name="at" unicode="@" horiz-adv-x="1871" 
d="M942 1180q-133 0 -252.5 -45t-210 -127t-143.5 -206t-53 -272q0 -132 36 -239t97.5 -178.5t146 -119.5t177 -69.5t194.5 -21.5q170 0 297 75l84 -143q-170 -102 -385 -102q-133 0 -255 31t-228 96t-184 157.5t-122.5 224.5t-44.5 289q0 188 68 345t184 261.5t269 162
t325 57.5q184 0 338 -51.5t268.5 -150.5t178 -255t63.5 -354q0 -239 -97.5 -376.5t-283.5 -137.5q-62 0 -108 46t-46 132q-40 -88 -136.5 -138.5t-186.5 -50.5q-221 0 -371.5 144t-150.5 362q0 146 69.5 264t188.5 183t262 65q94 0 185 -50t132 -126l13 123l165 -20v-717
q0 -24 9.5 -36.5t23.5 -12.5q53 0 88.5 51t49.5 125.5t14 169.5q0 635 -668 635zM934 850q-145 0 -232.5 -93.5t-87.5 -228.5q0 -131 87 -225t233 -94q101 0 174 46.5t107 119.5t34 162q0 133 -81.5 223t-233.5 90z" />
    <glyph glyph-name="A" unicode="A" horiz-adv-x="1572" 
d="M1311 0l-137 301h-777l-135 -301h-244l644 1434h249l643 -1434h-243zM1090 510l-304 682l-303 -682h607z" />
    <glyph glyph-name="B" unicode="B" horiz-adv-x="1466" 
d="M408 635v-422h430q53 0 102 9.5t96.5 30.5t76 62t28.5 97q0 72 -49 125t-115.5 75.5t-136.5 22.5h-432zM408 1227v-387h432q127 0 192.5 47t65.5 133q0 82 -69.5 144.5t-190.5 62.5h-430zM180 1434h658q104 0 191 -24.5t154 -73t104.5 -128.5t37.5 -184
q0 -94 -50.5 -169.5t-148.5 -115.5q81 -24 138.5 -83.5t81.5 -123t24 -122.5q0 -91 -28.5 -162.5t-77 -117.5t-117.5 -75.5t-144.5 -42t-164.5 -12.5h-658v1434z" />
    <glyph glyph-name="C" unicode="C" horiz-adv-x="1439" 
d="M1229 342l157 -158q-216 -213 -538 -213q-152 0 -278 40.5t-213 110t-147.5 163.5t-88.5 200.5t-29 221.5t28 223t90.5 204t149 168t213.5 114t275 42q147 0 282 -55t242 -162l-153 -147q-74 73 -171 110t-200 37q-132 0 -236 -45.5t-167 -122t-95 -169.5t-31 -195
t32.5 -193t93 -166t165.5 -119.5t238 -44.5q102 0 204.5 41t176.5 115z" />
    <glyph glyph-name="D" unicode="D" horiz-adv-x="1536" 
d="M180 1434h543q142 0 261.5 -39.5t202 -106.5t140.5 -158t85.5 -192t29.5 -209q2 -111 -23 -215t-82.5 -198t-140.5 -164t-205 -111t-268 -41h-543v1434zM408 1214v-993h315q102 0 186 29t140.5 78t95 115t55 138.5t14.5 149.5q-2 94 -32.5 178t-88 153.5t-153 110.5
t-217.5 41h-315z" />
    <glyph glyph-name="E" unicode="E" horiz-adv-x="1353" 
d="M1239 225v-225h-1059v1434h1053v-224h-823v-387h790v-213h-790v-385h829z" />
    <glyph glyph-name="F" unicode="F" horiz-adv-x="1282" 
d="M410 0h-230v1432h1014v-224h-784v-436h745v-213h-745v-559z" />
    <glyph glyph-name="G" unicode="G" horiz-adv-x="1521" 
d="M1376 1251l-143 -147q-74 73 -179 113t-208 40q-123 0 -224.5 -44t-167.5 -120t-102 -176.5t-35 -214.5q0 -81 19 -154.5t60.5 -140t102 -115.5t149.5 -77.5t198 -28.5q198 0 350 127v291h-399v205h612v-588q-226 -250 -563 -250q-153 0 -279.5 39.5t-213.5 108
t-146.5 162t-87 199t-27.5 222.5q0 125 31 238.5t94 210t152 167t211.5 110.5t265.5 40q146 0 284 -55t246 -162z" />
    <glyph glyph-name="H" unicode="H" horiz-adv-x="1574" 
d="M1395 0h-228v596h-757v-596h-230v1434h230v-625h757v625h228v-1434z" />
    <glyph glyph-name="I" unicode="I" horiz-adv-x="587" 
d="M408 0h-228v1434h228v-1434z" />
    <glyph glyph-name="J" unicode="J" horiz-adv-x="1443" 
d="M594 1434h690v-840q0 -278 -167 -449.5t-447 -171.5q-273 0 -443 162.5t-170 446.5h226q0 -189 100 -291.5t287 -102.5q183 0 284 111.5t101 294.5v627h-461v213z" />
    <glyph glyph-name="K" unicode="K" horiz-adv-x="1327" 
d="M1278 1434v-9l-657 -684l714 -727v-14h-286l-639 653v-653h-230v1434h230v-619l583 619h285z" />
    <glyph glyph-name="L" unicode="L" horiz-adv-x="1202" 
d="M180 1434h230v-1221h755v-213h-985v1434z" />
    <glyph glyph-name="M" unicode="M" horiz-adv-x="1837" 
d="M1427 -2v1100l-487 -678h-49l-481 678v-1100h-230v1434h266l474 -672l471 672h266v-1434h-230z" />
    <glyph glyph-name="N" unicode="N" horiz-adv-x="1579" 
d="M356 1434l813 -1020v1020h230v-1434h-174l-813 1012v-1012h-232v1434h176z" />
    <glyph glyph-name="O" unicode="O" horiz-adv-x="1650" 
d="M829 1460q143 -1 263.5 -41.5t205.5 -111.5t144.5 -166t88 -203.5t28.5 -226.5t-28 -226t-87.5 -202.5t-144.5 -164t-207 -109.5t-267 -40t-267 41t-207 111t-144 164.5t-87 201.5t-28 222q0 216 93.5 387t262 267.5t381.5 96.5zM319 707q1 -78 19.5 -152t58.5 -143
t97.5 -120t142.5 -81.5t188 -30.5q129 0 228.5 43.5t158.5 118t89 167t30 198.5q0 102 -30 196t-89 172t-158 126t-225 50q-242 0 -376 -151t-134 -393z" />
    <glyph glyph-name="P" unicode="P" horiz-adv-x="1415" 
d="M410 1225v-574h434q69 0 124 24.5t89 65t52.5 92t18.5 105.5t-18.5 105.5t-52.5 92t-89.5 65t-123.5 24.5h-434zM844 440h-434v-440h-230v1434q110 0 332 1t332 1t202.5 -34t152.5 -91.5t101.5 -132t50.5 -156.5t0.5 -164.5t-50.5 -157.5t-101.5 -132.5t-152 -92
t-203.5 -35.5z" />
    <glyph glyph-name="Q" unicode="Q" horiz-adv-x="1650" 
d="M825 1464q145 0 266.5 -40.5t205.5 -110t143 -163.5t87 -199.5t29 -219.5q2 -129 -34 -252t-107 -221l172 -170l-160 -162l-176 172q-172 -121 -426 -121q-147 0 -270 41t-208 111.5t-143.5 166t-86 202.5t-27.5 223q0 115 28 222t87.5 202t145 166t207.5 112t267 41z
M825 1255q-125 0 -225 -46t-161 -123t-92.5 -171.5t-29.5 -197.5q1 -80 21 -155.5t61.5 -143t100.5 -118.5t143 -80.5t182 -29.5q124 0 224 47.5t160.5 126t91.5 174.5t28 199q-2 80 -20.5 153t-58 140.5t-96.5 116.5t-141.5 78.5t-187.5 29.5z" />
    <glyph glyph-name="R" unicode="R" horiz-adv-x="1476" 
d="M1393 41l24 -41h-268l-436 496h-303v-496h-230v1436q112 0 334 -1t334 -1q120 0 218 -39t160 -105t95 -149.5t33 -175.5q0 -80 -21.5 -151t-66 -133t-122 -105t-179.5 -58zM848 1225h-438v-520h436q135 0 204.5 73.5t69.5 182.5q0 50 -16.5 96t-48.5 84t-85.5 61
t-121.5 23z" />
    <glyph glyph-name="S" unicode="S" horiz-adv-x="1351" 
d="M1210 1233l-174 -117q-51 73 -146 115.5t-208 44.5q-148 0 -240 -58t-92 -159q0 -40 19 -72t48.5 -52.5t77.5 -36.5t93.5 -25.5t109.5 -18.5q69 -10 125 -20.5t117.5 -29t108.5 -41t91 -56.5t72 -75.5t45 -98t17 -123.5q-1 -94 -34.5 -169.5t-89.5 -126t-132.5 -84
t-160.5 -48.5t-177 -15q-216 0 -369.5 76t-247.5 250l173 115q72 -123 190.5 -179.5t255.5 -56.5q54 0 104 7.5t97.5 25t82.5 44t56.5 68t21.5 93.5q0 45 -19.5 81.5t-51 61t-80.5 43t-99.5 29.5t-115.5 20q-68 9 -121 19t-113 27t-104.5 38t-87 53t-69.5 71t-43.5 92.5
t-16.5 117.5q-1 107 48.5 189t131.5 129t176.5 70.5t196.5 23.5q382 0 534 -242z" />
    <glyph glyph-name="T" unicode="T" horiz-adv-x="1241" 
d="M506 0v1227h-471v207h1171v-207h-469v-1227h-231z" />
    <glyph glyph-name="U" unicode="U" horiz-adv-x="1540" 
d="M1151 1432h227v-838q0 -154 -48.5 -276t-134 -198t-198 -114t-243.5 -33q-122 3 -227.5 44t-187.5 116t-129.5 193.5t-47.5 267.5v838h227v-838q0 -190 100 -297t265 -113q176 -9 286.5 100.5t110.5 309.5v838z" />
    <glyph glyph-name="V" unicode="V" horiz-adv-x="1476" 
d="M1452 1434l-594 -1440h-240l-595 1440h258l456 -1166l459 1166h256z" />
    <glyph glyph-name="W" unicode="W" horiz-adv-x="2199" 
d="M2163 1434l-512 -1436h-203l-191 506l-157 481l-158 -483l-188 -504h-201l-520 1436h256l364 -1104l371 1104h147l379 -1104l357 1104h256z" />
    <glyph glyph-name="X" unicode="X" horiz-adv-x="1337" 
d="M670 879l377 555h251v-11l-485 -696l506 -721v-6h-260l-389 567l-391 -567h-261v6l504 721l-483 696v11h252z" />
    <glyph glyph-name="Y" unicode="Y" horiz-adv-x="1404" 
d="M305 1434l395 -633l408 633h276v-11l-569 -835v-588h-229v588l-553 835v11h272z" />
    <glyph glyph-name="Z" unicode="Z" 
d="M119 1223v211h1046v-105l-788 -1110h788v-219h-1112v129l774 1094h-708z" />
    <glyph glyph-name="bracketleft" unicode="[" horiz-adv-x="698" 
d="M627 -360h-463v1814h463v-190h-248v-1432h248v-192z" />
    <glyph glyph-name="backslash" unicode="\" horiz-adv-x="1028" 
d="M51 1565h223l703 -1733h-221z" />
    <glyph glyph-name="bracketright" unicode="]" horiz-adv-x="700" 
d="M537 -358h-463v192h248v1432h-248v190h463v-1814z" />
    <glyph glyph-name="asciicircum" unicode="^" horiz-adv-x="1275" 
d="M86 707v10l473 719h143l486 -717l-2 -12h-232l-323 495l-324 -495h-221z" />
    <glyph glyph-name="underscore" unicode="_" horiz-adv-x="1230" 
d="M133 -207v189h965v-189h-965z" />
    <glyph glyph-name="grave" unicode="`" horiz-adv-x="479" 
d="M4 1430v8h254l152 -277v-10h-191z" />
    <glyph glyph-name="a" unicode="a" horiz-adv-x="1302" 
d="M948 850l6 160h205v-1010h-201l-10 164q-48 -91 -147 -141t-201 -50q-228 -2 -373 140t-145 393q0 164 70.5 285t187.5 181t264 60q109 0 203.5 -48.5t140.5 -133.5zM621 840q-139 0 -233.5 -91.5t-94.5 -242.5q0 -153 94.5 -244.5t233.5 -91.5q79 0 142.5 29t103 76
t60.5 107t21 123t-21 123t-60.5 107t-103 76t-142.5 29z" />
    <glyph glyph-name="b" unicode="b" horiz-adv-x="1302" 
d="M690 834q-135 0 -229 -92.5t-94 -235.5q0 -146 93 -238t230 -92q136 0 228 90.5t92 239.5q0 151 -91.5 239.5t-228.5 88.5zM143 1432h211v-580q47 84 150.5 132t204.5 48q226 0 369 -138t143 -388q0 -244 -145 -385t-371 -141q-108 0 -201 44t-150 136l-12 -160h-199
v1432z" />
    <glyph glyph-name="c" unicode="c" horiz-adv-x="1042" 
d="M854 272l143 -141q-161 -158 -383 -158q-148 0 -267 59t-192 181.5t-73 290.5q0 127 41.5 229t114.5 167t169 99.5t207 34.5q212 0 365 -149l-135 -142q-94 91 -228 91q-139 0 -231 -91t-92 -239q0 -154 92 -240t229 -86q149 0 240 94z" />
    <glyph glyph-name="d" unicode="d" horiz-adv-x="1302" 
d="M612 834q-138 0 -228.5 -88.5t-90.5 -239.5q0 -149 91 -239.5t228 -90.5q135 0 228.5 92t93.5 238q0 144 -93.5 236t-228.5 92zM948 1432h211v-1432h-198l-13 160q-57 -92 -149.5 -136t-200.5 -44q-226 0 -371 141t-145 385q0 250 142 388t370 138q101 0 204 -48
t150 -132v580z" />
    <glyph glyph-name="e" unicode="e" horiz-adv-x="1191" 
d="M1120 426h-819q14 -116 103 -185t227 -69q81 0 165 29.5t128 79.5l137 -134q-75 -83 -193 -127.5t-241 -44.5q-249 0 -397 146t-148 389q0 231 147.5 378.5t382.5 147.5q255 0 395.5 -156t112.5 -454zM305 604h613q-9 118 -89.5 181t-210.5 63q-119 0 -204 -63.5
t-109 -180.5z" />
    <glyph glyph-name="f" unicode="f" horiz-adv-x="798" 
d="M463 0h-213v811h-193v186h193v74q0 183 101.5 283t262.5 100q129 0 248 -80l-82 -157q-80 53 -153 53q-75 0 -119.5 -50.5t-44.5 -148.5v-74h305v-186h-305v-811z" />
    <glyph glyph-name="g" unicode="g" horiz-adv-x="1257" 
d="M901 971l111 135l153 -119l-121 -141q64 -75 93.5 -148.5t29.5 -165.5q0 -137 -68 -239.5t-200 -153.5q75 -25 128.5 -63t82.5 -83t42 -89.5t13 -93.5q0 -80 -30 -148t-82 -116t-121 -82t-147 -50t-160 -16q-250 0 -394.5 119.5t-138.5 328.5h211q-4 -112 91.5 -176.5
t230.5 -66.5q82 0 152.5 21t119.5 69.5t49 116.5q0 104 -86.5 161.5t-230.5 57.5q-249 0 -398 134.5t-149 368.5q0 122 46.5 221t124.5 160.5t174.5 94t201.5 32.5q70 0 146 -17.5t126 -51.5zM629 844q-89 0 -163 -33t-122.5 -105.5t-48.5 -173.5q0 -145 95.5 -227
t238.5 -82q141 0 234 87t93 222q0 144 -95 228t-232 84z" />
    <glyph glyph-name="h" unicode="h" horiz-adv-x="1226" 
d="M143 1434h211v-574q117 164 328 164q208 0 312 -127.5t104 -351.5v-545h-211v543q0 140 -67 212t-187 72q-121 0 -200 -87.5t-79 -213.5v-526h-211v1434z" />
    <glyph glyph-name="i" unicode="i" horiz-adv-x="497" 
d="M354 1014h-211v-1014h211v1014zM119 1307q0 49 27 82.5t65.5 41.5t77 0t65.5 -41.5t27 -82.5q0 -42 -19.5 -72.5t-48.5 -44t-63 -13.5t-63 13.5t-48.5 44t-19.5 72.5z" />
    <glyph glyph-name="j" unicode="j" horiz-adv-x="497" 
d="M354 1014h-211v-1133q0 -97 -23 -142t-93 -46q-56 -3 -129 31l-76 -166q100 -64 213 -64q167 0 243 96t76 291v1133zM119 1311q0 49 27 82.5t65.5 41.5t77 0t65.5 -41.5t27 -82.5q0 -42 -19.5 -72.5t-48.5 -44t-63 -13.5t-63 13.5t-48.5 44t-19.5 72.5z" />
    <glyph glyph-name="k" unicode="k" horiz-adv-x="1052" 
d="M143 1432h213v-836l375 414h256v-13l-436 -462l496 -521v-14h-259l-432 467v-467h-213v1432z" />
    <glyph glyph-name="l" unicode="l" horiz-adv-x="514" 
d="M152 1432h210v-1432h-210v1432z" />
    <glyph glyph-name="m" unicode="m" horiz-adv-x="1857" 
d="M1047 0h-213v555q0 117 -63.5 195.5t-172.5 78.5q-110 0 -177 -79t-67 -195v-555h-211v1012h197l14 -135q40 78 117.5 114.5t165.5 36.5q68 0 127 -18.5t111 -65.5t79 -119q110 201 346 201q207 0 318 -123t111 -344v-559h-213v559q0 118 -58 193t-166 75
q-110 0 -177.5 -78.5t-67.5 -193.5v-555z" />
    <glyph glyph-name="n" unicode="n" horiz-adv-x="1249" 
d="M1122 0h-213v541q0 133 -71.5 211.5t-200.5 78.5q-124 0 -203.5 -88t-79.5 -215v-528h-211v1012h193l12 -148q143 162 340 162q190 0 312 -128.5t122 -354.5v-543z" />
    <glyph glyph-name="o" unicode="o" horiz-adv-x="1204" 
d="M600 1030q152 0 272.5 -69.5t186 -189t65.5 -267.5q0 -227 -144.5 -375.5t-379.5 -148.5q-233 0 -376.5 148t-143.5 376q0 226 144.5 376t375.5 150zM600 836q-140 0 -224.5 -96.5t-84.5 -235.5q0 -140 84 -234t225 -94q142 0 226.5 94t84.5 234q0 137 -88 234.5
t-223 97.5z" />
    <glyph glyph-name="p" unicode="p" horiz-adv-x="1302" 
d="M690 182q138 0 229 91t91 231q0 143 -88 232t-232 89q-143 0 -230 -91.5t-87 -229.5q0 -136 90 -229t227 -93zM354 -469h-211v1479h199l12 -164q56 89 153.5 136.5t203.5 47.5q225 -1 367.5 -149t142.5 -377q0 -232 -139 -379.5t-371 -147.5q-105 0 -204.5 41.5
t-152.5 128.5v-616z" />
    <glyph glyph-name="q" unicode="q" horiz-adv-x="1304" 
d="M612 182q138 0 228 93t90 229q0 138 -87.5 229.5t-230.5 91.5q-144 0 -230.5 -89t-86.5 -232q0 -141 89.5 -231.5t227.5 -90.5zM1161 -469h-211v616q-53 -87 -152 -128.5t-204 -41.5q-233 0 -372.5 147.5t-139.5 379.5q0 151 64.5 270.5t181.5 187t266 68.5
q106 0 202 -47.5t152 -136.5l13 164h200v-1479z" />
    <glyph glyph-name="r" unicode="r" horiz-adv-x="901" 
d="M143 1010h197l14 -133q51 89 126.5 122t170.5 33q72 0 139 -23.5t111 -62.5l-96 -184q-76 61 -178 61q-116 0 -194.5 -71.5t-78.5 -204.5v-547h-211v1010z" />
    <glyph glyph-name="s" unicode="s" horiz-adv-x="1021" 
d="M907 901l-119 -139q-57 52 -121 73t-145 21q-98 2 -156.5 -30t-58.5 -91q1 -60 58 -89.5t161 -39.5q46 -4 82.5 -9t83.5 -15.5t82 -25t70.5 -38.5t58.5 -55t37 -75.5t14 -98.5q-2 -143 -119 -231.5t-311 -88.5q-138 0 -253 41t-208 146l111 149q66 -73 161.5 -110
t192.5 -39q85 0 149.5 33t65.5 98t-56.5 96.5t-176.5 42.5q-410 39 -412 303q0 80 38.5 141.5t101.5 96t134.5 52t145.5 17.5q121 0 214 -31t175 -104z" />
    <glyph glyph-name="t" unicode="t" horiz-adv-x="833" 
d="M256 1278l213 22v-292h295v-183h-297v-481q0 -166 145 -166q57 0 129 35l62 -180q-102 -45 -203 -45q-165 -5 -254.5 86.5t-89.5 269.5v481h-195v183h195v270z" />
    <glyph glyph-name="u" unicode="u" 
d="M127 1010h211v-541q0 -132 72 -211.5t202 -79.5q123 0 202 88.5t79 216.5v527h211v-1012h-191l-12 149q-141 -163 -348 -163q-190 0 -308 129t-118 354v543z" />
    <glyph glyph-name="v" unicode="v" horiz-adv-x="1163" 
d="M895 1012h231l-428 -1016h-231l-430 1016h233l136 -326l178 -469l159 428z" />
    <glyph glyph-name="w" unicode="w" horiz-adv-x="1736" 
d="M778 1012h183l241 -795l250 795h236l-355 -1016h-246l-118 336l-99 352l-100 -352l-119 -336h-245l-357 1016h238l250 -795z" />
    <glyph glyph-name="x" unicode="x" horiz-adv-x="1052" 
d="M526 649l224 361h256v-6l-340 -490l362 -508v-6h-254l-248 367l-247 -367h-254v6l362 508l-340 490v6h254z" />
    <glyph glyph-name="y" unicode="y" horiz-adv-x="1142" 
d="M874 1010h236l-637 -1479h-233l209 483l-404 996h246l174 -478l100 -286l109 282z" />
    <glyph glyph-name="z" unicode="z" horiz-adv-x="976" 
d="M96 1010h797v-99l-508 -704h512v-207h-836v86l523 731h-488v193z" />
    <glyph glyph-name="braceleft" unicode="{" horiz-adv-x="704" 
d="M627 -129v-166q-219 -37 -315.5 49.5t-96.5 292.5v272q0 30 -2.5 53.5t-11.5 50t-24.5 44t-43 29.5t-65.5 12v160q38 0 65.5 12t43 30t24.5 44.5t11.5 50t2.5 53.5v283q0 399 412 323v-161q-106 25 -149.5 -14.5t-43.5 -155.5v-275q0 -109 -10 -147q-22 -85 -117 -118
q-8 -3 -16 -5q30 -8 53 -21t38 -26t25.5 -35t15.5 -37t7.5 -43.5t3 -43.5t0.5 -48v-15v-282q0 -116 37.5 -148.5t155.5 -17.5z" />
    <glyph glyph-name="bar" unicode="|" horiz-adv-x="540" 
d="M375 1516v-1706h-209v1706h209z" />
    <glyph glyph-name="braceright" unicode="}" horiz-adv-x="704" 
d="M78 -303v166q118 -15 155 18.5t37 149.5v280v13q0 32 0.5 48t3 44t7.5 44t15.5 37.5t25.5 35t38.5 26.5t53.5 21q-30 9 -53.5 22t-38.5 26t-25.5 34.5t-15.5 37t-7.5 44t-3 44t-0.5 49.5v13v274q0 117 -43 156t-149 14v164q411 73 411 -323v-285q0 -38 5 -67t19.5 -59.5
t45.5 -47.5t78 -17v-159q-47 0 -78 -16.5t-45.5 -46.5t-19.5 -59t-5 -67v-272q0 -206 -96 -292.5t-315 -49.5z" />
    <glyph glyph-name="asciitilde" unicode="~" horiz-adv-x="1267" 
d="M985 752l158 -54q-49 -149 -153 -217.5t-245 -13.5q-37 14 -92.5 48t-105 61t-86.5 30q-57 14 -107 -16t-80 -101l-145 58q44 137 139.5 196.5t208.5 38.5q59 -4 115.5 -31.5t112.5 -63t94 -48.5q125 -49 186 113z" />
    <glyph glyph-name="exclamdown" unicode="&#xa1;" horiz-adv-x="528" 
d="M152 -459h227v1077h-227v-1077zM406 885q0 -67 -44.5 -104.5t-98 -37.5t-98 37.5t-44.5 104.5t44.5 104.5t98 37.5t98 -37.5t44.5 -104.5z" />
    <glyph glyph-name="cent" unicode="&#xa2;" horiz-adv-x="1101" 
d="M987 877l-117 -148q-45 39 -110 62.5t-123 23.5q-138 0 -231 -88.5t-93 -245.5q0 -151 94 -242.5t230 -91.5q61 0 131.5 32.5t118.5 80.5l133 -154q-127 -121 -293 -145v-145h-199v147q-193 37 -308.5 169.5t-115.5 348.5q0 208 113.5 342.5t310.5 173.5v144h199v-142
q148 -25 260 -122z" />
    <glyph glyph-name="sterling" unicode="&#xa3;" horiz-adv-x="1343" 
d="M457 997q0 -29 4.5 -64.5t7.5 -53.5t13 -65.5t12 -55.5h450v-193h-409q12 -97 -25.5 -198.5t-128.5 -159.5h854v-207h-1116v215q206 107 186 350h-186v193h149q-41 164 -41 235q0 219 139 340t375 121q218 0 347.5 -101t138.5 -317h-205q-7 113 -82 167t-199 54
q-141 0 -212.5 -71.5t-71.5 -188.5z" />
    <glyph glyph-name="currency" unicode="&#xa4;" horiz-adv-x="1255" 
d="M627 408q112 0 175.5 72t63.5 171q0 101 -63.5 173.5t-175.5 72.5q-109 0 -174.5 -73.5t-65.5 -172.5q0 -98 65.5 -170.5t174.5 -72.5zM416 279l-121 -121l-160 157l121 119q-59 104 -57 217.5t63 214.5l-127 121l160 160l119 -121q94 49 215 49q117 0 211 -51l123 123
l157 -160l-119 -119q57 -102 57.5 -218.5t-57.5 -215.5l119 -119l-155 -155l-123 119q-92 -48 -215 -48q-117 0 -211 48z" />
    <glyph glyph-name="yen" unicode="&#xa5;" horiz-adv-x="1472" 
d="M297 264v168h317v111h-317v170h233l-469 710v11h267l401 -633l420 633h264v-11l-483 -710h231v-170h-317v-111h317v-168h-317v-264h-230v264h-317z" />
    <glyph glyph-name="brokenbar" unicode="&#xa6;" horiz-adv-x="555" 
d="M387 698h-219v754h219v-754zM168 567h219v-751h-219v751z" />
    <glyph glyph-name="section" unicode="&#xa7;" horiz-adv-x="1224" 
d="M111 160l139 143q132 -152 360 -149q106 0 189 35.5t86 97.5q2 37 -35.5 62.5t-96.5 37t-141 14.5q-93 2 -176.5 19t-156 52t-114 95.5t-38.5 139.5q2 63 51 125t133 90q-88 20 -132 82.5t-42 138.5q3 71 36.5 127t84.5 90.5t118.5 57t132.5 31.5t132 9q127 0 245.5 -36
t190.5 -117l-139 -121q-64 50 -134.5 69t-168.5 21q-71 1 -132.5 -13t-101.5 -43.5t-41 -68.5q-1 -33 23.5 -57.5t66.5 -38t84 -20t89 -9.5q73 -2 137.5 -10.5t133.5 -30.5t117 -56t76.5 -90.5t22.5 -129.5q-4 -69 -55 -122.5t-129 -74.5q89 -27 138 -91.5t46 -135.5
q-4 -88 -57 -154t-133 -100.5t-160.5 -51t-157.5 -16.5q-152 0 -283 50.5t-208 148.5zM891 713q2 52 -53 89.5t-135.5 47t-161 2t-137.5 -44.5t-58 -94q-1 -37 28 -65.5t77 -43.5t106 -22t116 0t107 22t79.5 43.5t31.5 65.5z" />
    <glyph glyph-name="dieresis" unicode="&#xa8;" horiz-adv-x="931" 
d="M109 1354q0 60 39.5 93.5t87 33.5t87 -33.5t39.5 -93.5t-39.5 -93.5t-87 -33.5t-87 33.5t-39.5 93.5zM600 1354q0 60 40 93.5t88 33.5t88 -33.5t40 -93.5t-40 -93.5t-88 -33.5t-88 33.5t-40 93.5z" />
    <glyph glyph-name="copyright" unicode="&#xa9;" horiz-adv-x="1689" 
d="M850 1468q139 0 258.5 -38.5t207 -107t149.5 -162t93 -205t31 -234.5q0 -153 -49.5 -288t-141 -238t-233.5 -162.5t-315 -59.5t-316 59.5t-237 162t-145.5 238t-51.5 288.5t51.5 288.5t145.5 237.5t237 161.5t316 59.5zM881 326q163 0 293 127l-117 112q-79 -76 -176 -76
q-102 0 -173 64t-71 168q0 107 70.5 172t173.5 65q100 0 174 -71l116 108q-125 125 -290 125q-176 0 -294 -109.5t-118 -289.5q0 -181 117.5 -288t294.5 -107zM289 721q0 -121 39 -226.5t110 -183.5t177.5 -123t234.5 -45q129 0 234 45t174 123.5t106 183.5t37 226
q0 122 -37 227.5t-106 183.5t-174 123t-234 45q-128 0 -234.5 -45t-177.5 -123t-110 -184t-39 -227z" />
    <glyph glyph-name="ordfeminine" unicode="&#xaa;" horiz-adv-x="1009" 
d="M692 1335l2 99h164v-662h-162l-4 105q-32 -57 -97 -90t-130 -33q-150 0 -245 92.5t-95 257.5q0 164 96.5 254t247.5 90q69 0 130 -30t93 -83zM483 1294q-79 0 -132.5 -51.5t-53.5 -138.5q0 -86 53.5 -138.5t132.5 -52.5q59 0 102.5 28t63 70.5t19.5 92t-19.5 92t-63 70.5
t-102.5 28zM166 465v174h688v-174h-688z" />
    <glyph glyph-name="guillemotleft" unicode="&#xab;" horiz-adv-x="1021" 
d="M78 608l284 451h228v-2l-283 -449q57 -93 283 -454h-228zM426 608l285 451h225v-2l-281 -449l281 -454h-225z" />
    <glyph glyph-name="logicalnot" unicode="&#xac;" horiz-adv-x="1081" 
d="M928 772v-450h-183v264h-602v186h785z" />
    <glyph glyph-name="registered" unicode="&#xae;" horiz-adv-x="1685" 
d="M842 1464q173 0 315 -59.5t234 -162t142 -237.5t50 -288t-50 -288t-142 -238t-234 -162.5t-315 -59.5t-314.5 59.5t-233.5 162.5t-142 238t-50 288t50 288t142 237.5t233.5 162t314.5 59.5zM291 717q1 -164 64.5 -293.5t190 -207t296.5 -77.5q129 0 234 44.5t174 123
t106 183.5t37 227t-37 227.5t-106 183.5t-174 123t-234 45q-128 0 -233 -45t-173.5 -123t-106 -183.5t-38.5 -227.5zM1204 377l-200 241q46 9 82.5 31t58 52t34.5 66.5t11 74.5t-12 75t-34 70t-56.5 58.5t-78.5 40t-100 14.5h-356v-760h172v250h96l197 -250h186v37zM725 944
h184q40 0 67.5 -21.5t34 -52t0 -60.5t-34.5 -51.5t-69 -21.5h-182v207z" />
    <glyph glyph-name="macron" unicode="&#xaf;" horiz-adv-x="872" 
d="M72 1257v181h710v-181h-710z" />
    <glyph glyph-name="degree" unicode="&#xb0;" horiz-adv-x="706" 
d="M352 1350q-57 0 -89.5 -36t-33 -80t32 -80t90.5 -36q57 0 89 36t31.5 80t-32.5 80t-88 36zM354 1481q80 0 139.5 -36.5t86.5 -91t27 -118.5t-26.5 -118.5t-86 -91t-140.5 -36.5q-83 0 -143.5 36.5t-87 91t-26 118.5t28 118.5t87.5 91t141 36.5z" />
    <glyph glyph-name="plusminus" unicode="&#xb1;" horiz-adv-x="1093" 
d="M137 668v198h307v312h203v-312h309v-198h-309v-312h-203v312h-307zM141 53v195h811v-195h-811z" />
    <glyph glyph-name="twosuperior" unicode="&#xb2;" horiz-adv-x="749" 
d="M240 1358h-158q1 59 26 104.5t67 72t91 39.5t103 13q88 0 153.5 -22t107.5 -76t42 -137q0 -67 -24 -113t-62 -67.5t-84 -33.5t-92 -18.5t-84 -15t-62 -30t-24 -58.5v-33h424v-156h-586v189q0 55 18.5 95t49 61.5t69.5 37t80 22t80 16t69.5 19.5t49 31.5t18.5 53.5
q0 96 -141 96q-128 0 -131 -90z" />
    <glyph glyph-name="threesuperior" unicode="&#xb3;" horiz-adv-x="761" 
d="M377 1149h-115v125h107q43 0 71 6t47.5 27t20.5 57q0 31 -33 59.5t-104 28.5q-134 0 -148 -88h-141q0 58 25.5 102t68 69.5t93 38.5t104.5 13q75 0 139.5 -22.5t110 -75.5t45.5 -127q0 -52 -27.5 -95t-75.5 -57q56 -16 88.5 -61t32.5 -94q0 -66 -28.5 -115t-76.5 -75.5
t-101 -39t-111 -12.5q-44 0 -85.5 7.5t-81 25.5t-68.5 44t-47 65.5t-19 88.5h165q15 -86 142 -86q56 0 99.5 22.5t43.5 70.5q0 41 -33 69.5t-108 28.5z" />
    <glyph glyph-name="acute" unicode="&#xb4;" horiz-adv-x="458" 
d="M420 1432v-9l-215 -272h-191v10l152 271h254z" />
    <glyph glyph-name="mu" unicode="&#xb5;" horiz-adv-x="1253" 
d="M1141 0h-205l-21 145q-34 -59 -92 -99t-124 -52.5t-130.5 -3t-118.5 49.5t-81 103v-592h-211v1463h223v-555q0 -149 104 -227q87 -65 197 -48q115 16 179 112q52 77 52 189v529h228v-1014z" />
    <glyph glyph-name="mu" unicode="&#x3bc;" horiz-adv-x="1253" 
d="M1141 0h-205l-21 145q-34 -59 -92 -99t-124 -52.5t-130.5 -3t-118.5 49.5t-81 103v-592h-211v1463h223v-555q0 -149 104 -227q87 -65 197 -48q115 16 179 112q52 77 52 189v529h228v-1014z" />
    <glyph glyph-name="paragraph" unicode="&#xb6;" horiz-adv-x="1708" 
d="M786 1221v-1659h-227v805q-119 9 -214.5 58t-154.5 123.5t-90.5 164.5t-31.5 186q1 102 36.5 196.5t101.5 170.5t172 122t236 46h1018v-213h-196v-1659h-228v1659h-422z" />
    <glyph glyph-name="periodcentered" unicode="&#xb7;" horiz-adv-x="536" 
d="M131 569q0 51 28.5 86.5t68.5 43.5t80.5 0t69 -43.5t28.5 -86.5t-28.5 -86t-69 -43.5t-80.5 0t-68.5 43.5t-28.5 86z" />
    <glyph glyph-name="cedilla" unicode="&#xb8;" horiz-adv-x="606" 
d="M61 -338l97 82q46 -66 139 -70q95 0 115 64q17 59 -46 89t-135 -7l-47 39l60 188h155l-30 -106q52 -1 92.5 -15.5t63.5 -37.5t38 -53t15 -61.5t-5 -62.5q-19 -89 -94.5 -136.5t-169.5 -45.5q-76 2 -143.5 36.5t-104.5 96.5z" />
    <glyph glyph-name="onesuperior" unicode="&#xb9;" horiz-adv-x="544" 
d="M74 827v140h129v428l-111 -27v137l270 68v-606h132v-140h-420z" />
    <glyph glyph-name="ordmasculine" unicode="&#xba;" horiz-adv-x="972" 
d="M164 483v158h649v-158h-649zM485 754q-156 0 -256 92.5t-100 257.5q0 164 99 254t257 90t258.5 -90.5t100.5 -253.5q0 -165 -100.5 -257.5t-258.5 -92.5zM485 913q80 0 133.5 52.5t53.5 138.5q0 87 -53.5 138.5t-133.5 51.5q-79 0 -131.5 -51.5t-52.5 -138.5
q0 -86 53 -138.5t131 -52.5z" />
    <glyph glyph-name="guillemotright" unicode="&#xbb;" horiz-adv-x="1019" 
d="M655 1063l285 -451l-285 -454h-225l281 454l-281 449v2h225zM313 1063l285 -451l-285 -454h-227l283 454l-283 449v2h227z" />
    <glyph glyph-name="onequarter" unicode="&#xbc;" horiz-adv-x="1585" 
d="M1202 745h209v-464h100v-142h-100v-139h-158v139h-393l-8 135zM1253 281v311l-231 -311h231zM469 -2h-188l784 1448h190zM96 690v139h127v428l-108 -24v137l268 68v-609h133v-139h-420z" />
    <glyph glyph-name="onehalf" unicode="&#xbd;" horiz-adv-x="1646" 
d="M1139 524h-160q1 59 26 104.5t67 72t91 40t103 13.5q137 0 220 -57t83 -179q0 -66 -23.5 -111t-61.5 -66t-83.5 -33t-91 -18.5t-83.5 -16t-61.5 -32t-23.5 -59.5v-39h415v-149h-581v188q0 55 18.5 95t49 61.5t69.5 37t80 22t80 16t69.5 19.5t49 31.5t18.5 53.5
q0 96 -139 96q-57 0 -94 -21.5t-37 -68.5zM465 -4h-189l783 1450h190zM92 692v139h127v429l-108 -27v137l268 68v-607h133v-139h-420z" />
    <glyph glyph-name="threequarters" unicode="&#xbe;" horiz-adv-x="1638" 
d="M1274 745h209v-464h86v-142h-86v-139h-158v139h-393l-8 135zM1325 281v311l-231 -311h231zM377 1036h-113v121h105q65 0 99.5 17t35.5 67q0 31 -33 59.5t-102 28.5q-130 0 -142 -86h-137q0 73 43.5 124t105 72t132.5 21q73 0 136 -22.5t107 -74t45 -122.5q0 -50 -27 -91
t-75 -54q54 -16 85.5 -60.5t31.5 -91.5q0 -64 -27.5 -111t-73.5 -72.5t-97 -37.5t-107 -12q-54 0 -103.5 12t-92.5 37.5t-68.5 70t-26.5 103.5h160q15 -84 135 -84q56 0 98.5 21.5t42.5 68.5q0 39 -32.5 67.5t-104.5 28.5zM561 -8h-188l784 1454h191z" />
    <glyph glyph-name="questiondown" unicode="&#xbf;" horiz-adv-x="1230" 
d="M813 907q0 -53 -29.5 -89.5t-71.5 -44.5t-83.5 0.5t-71 45t-29.5 90.5q0 39 16 69t41 46t55.5 23t61 -0.5t55.5 -23t40.5 -46.5t15.5 -70zM1167 29q-39 0 -116.5 1t-116.5 1q-2 -77 -51 -131.5t-117 -77.5t-145 -23q-60 0 -111 9.5t-99.5 33t-77 69.5t-28.5 112
q0 34 11 62t23.5 45.5t41.5 37t45.5 27.5t56.5 26t54 25q49 20 82 40t67 53t53.5 75t32 106.5t12.5 147.5q-38 0 -113.5 1t-113.5 1v-47q-5 -71 -25 -113t-63 -70q-23 -15 -69 -35.5t-86 -38t-87 -48.5t-80 -67.5t-55 -94.5t-22 -129q-1 -92 28.5 -165.5t81 -122
t122.5 -81.5t149.5 -47t166.5 -14q110 0 205.5 25.5t173.5 75.5t123.5 135.5t46.5 195.5z" />
    <glyph glyph-name="Agrave" unicode="&#xc0;" horiz-adv-x="1572" 
d="M1311 0l-137 301h-777l-135 -301h-244l644 1434h249l643 -1434h-243zM1090 510l-304 682l-303 -682h607zM475 1864v8h254l152 -277v-10h-191z" />
    <glyph glyph-name="Aacute" unicode="&#xc1;" horiz-adv-x="1572" 
d="M1174 301l137 -301h243l-643 1434h-249l-644 -1434h244l135 301h777zM786 1192l304 -682h-607zM1081 1872v-8l-215 -273h-190v11l151 270h254z" />
    <glyph glyph-name="Acircumflex" unicode="&#xc2;" horiz-adv-x="1572" 
d="M1174 301l137 -301h243l-643 1434h-249l-644 -1434h244l135 301h777zM786 1192l304 -682h-607zM731 1870h123l301 -279v-12h-219l-143 123l-144 -123h-219v12z" />
    <glyph glyph-name="Atilde" unicode="&#xc3;" horiz-adv-x="1572" 
d="M1311 0l-137 301h-777l-135 -301h-244l644 1434h249l643 -1434h-243zM1090 510l-304 682l-303 -682h607zM590 1575l-125 67q31 92 93 138.5t149 27.5q27 -7 73.5 -29.5t65.5 -29.5q99 -34 127 53l135 -51q-9 -58 -35.5 -99t-60.5 -57.5t-73.5 -22.5t-74.5 5q-28 7 -75 30
t-64 29q-93 32 -135 -61z" />
    <glyph glyph-name="Adieresis" unicode="&#xc4;" horiz-adv-x="1572" 
d="M1174 301l137 -301h243l-643 1434h-249l-644 -1434h244l135 301h777zM786 1192l304 -682h-607zM412 1704q0 60 39.5 93.5t87.5 33.5t87.5 -33.5t39.5 -93.5t-39.5 -93.5t-87.5 -33.5t-87.5 33.5t-39.5 93.5zM903 1704q0 48 26.5 80.5t64 40.5t75 0t64 -40.5t26.5 -80.5
q0 -60 -40 -93.5t-88 -33.5t-88 33.5t-40 93.5z" />
    <glyph glyph-name="Aring" unicode="&#xc5;" horiz-adv-x="1572" 
d="M528 1628q0 75 38 130t95.5 80.5t124.5 25.5q103 0 180.5 -63t77.5 -173q0 -72 -35 -125t-94 -80l639 -1423h-249l-136 301h-768l-135 -301h-248l637 1423q-59 27 -93 79.5t-34 125.5zM489 506h592l-155 356l-140 357l-143 -363zM784 1739q-57 0 -89 -34t-31.5 -74.5
t32.5 -74.5t88 -34q58 0 90.5 34t31.5 74.5t-33.5 74.5t-88.5 34z" />
    <glyph glyph-name="AE" unicode="&#xc6;" horiz-adv-x="1869" 
d="M1759 207v-207h-862v344h-473l-211 -344h-258l901 1434h893v-201h-643v-410h614v-200h-614v-416h653zM553 549h344v285l14 327h-2z" />
    <glyph glyph-name="Ccedilla" unicode="&#xc7;" horiz-adv-x="1441" 
d="M547 -403l96 81q27 -41 83.5 -58.5t107 -3t63.5 55.5q11 35 -14.5 64t-69.5 35t-96 -15l-47 37l57 187q-127 14 -232 61t-178 116.5t-124 158.5t-74.5 187t-24.5 204q-1 115 28 223t90.5 204t149 168t213.5 114t275 42q147 0 282 -55t242 -162l-153 -147q-74 73 -171 110
t-200 37q-106 0 -195 -30t-149.5 -81t-103 -119.5t-62 -144.5t-18.5 -157q1 -102 32 -193t92.5 -166t165.5 -119.5t238 -44.5q102 0 204.5 41t176.5 115l158 -158q-206 -203 -508 -213l-27 -96q53 -1 93.5 -15.5t63.5 -37.5t38 -52.5t15.5 -61t-3.5 -62.5
q-14 -67 -67 -112.5t-122 -59.5q-92 -21 -184 11t-141 112z" />
    <glyph glyph-name="Egrave" unicode="&#xc8;" horiz-adv-x="1353" 
d="M1239 225v-225h-1059v1434h1053v-224h-823v-387h790v-213h-790v-385h829zM467 1858v8h254l151 -277v-10h-190z" />
    <glyph glyph-name="Eacute" unicode="&#xc9;" horiz-adv-x="1353" 
d="M1239 0v225h-829v385h790v213h-790v387h823v224h-1053v-1434h1059zM1010 1862v-9l-215 -272h-191v10l152 271h254z" />
    <glyph glyph-name="Ecircumflex" unicode="&#xca;" horiz-adv-x="1353" 
d="M1239 0v225h-829v385h790v213h-790v387h823v224h-1053v-1434h1059zM668 1888h123l301 -278v-13h-220l-143 123l-143 -123h-219v13z" />
    <glyph glyph-name="Edieresis" unicode="&#xcb;" horiz-adv-x="1353" 
d="M1239 0v225h-829v385h790v213h-790v387h823v224h-1053v-1434h1059zM356 1708q0 60 39.5 93.5t87.5 33.5t87.5 -33.5t39.5 -93.5t-39.5 -93.5t-87.5 -33.5t-87.5 33.5t-39.5 93.5zM848 1708q0 60 40 93.5t88 33.5t88 -33.5t40 -93.5t-40 -93.5t-88 -33.5t-88 33.5
t-40 93.5z" />
    <glyph glyph-name="Igrave" unicode="&#xcc;" horiz-adv-x="587" 
d="M408 0h-228v1434h228v-1434zM-4 1853v9h254l151 -277v-10h-190z" />
    <glyph glyph-name="Iacute" unicode="&#xcd;" horiz-adv-x="587" 
d="M180 0h228v1434h-228v-1434zM590 1847v-8l-215 -272h-191v10l152 270h254z" />
    <glyph glyph-name="Icircumflex" unicode="&#xce;" horiz-adv-x="587" 
d="M180 0h228v1434h-228v-1434zM238 1864h110l270 -277v-12h-196l-129 121l-127 -121h-199v12z" />
    <glyph glyph-name="Idieresis" unicode="&#xcf;" horiz-adv-x="587" 
d="M-37 1702q0 60 39.5 93.5t87.5 33.5t87.5 -33.5t39.5 -93.5t-39.5 -93.5t-87.5 -33.5t-87.5 33.5t-39.5 93.5zM383 1702q0 48 26.5 80.5t64 40.5t75 0t64 -40.5t26.5 -80.5q0 -60 -40 -93.5t-88 -33.5t-88 33.5t-40 93.5zM180 0h228v1434h-228v-1434z" />
    <glyph glyph-name="Eth" unicode="&#xd0;" horiz-adv-x="1552" 
d="M37 616v193h162v625h520q176 0 318 -56t232.5 -152t139 -220t49.5 -265q1 -118 -26.5 -226t-87 -202t-145 -163.5t-209 -109.5t-271.5 -40h-520v616h-162zM422 616v-403h297q128 0 227 40.5t160.5 112t93 165t31.5 204.5q-2 224 -134 357t-378 133h-297v-416h291v-193
h-291z" />
    <glyph glyph-name="Ntilde" unicode="&#xd1;" horiz-adv-x="1579" 
d="M356 1434l813 -1020v1020h230v-1434h-174l-813 1012v-1012h-232v1434h176zM594 1583l-125 68q31 92 93 138.5t149 27.5q27 -7 73 -30t66 -30q99 -34 127 53l135 -51q-9 -58 -35.5 -99t-60.5 -57.5t-73.5 -22.5t-74.5 5q-27 7 -74.5 30.5t-64.5 29.5q-92 31 -135 -62z" />
    <glyph glyph-name="Ograve" unicode="&#xd2;" horiz-adv-x="1650" 
d="M829 1460q143 -1 263.5 -41.5t205.5 -111.5t144.5 -166t88 -203.5t28.5 -226.5t-28 -226t-87.5 -202.5t-144.5 -164t-207 -109.5t-267 -40t-267 41t-207 111t-144 164.5t-87 201.5t-28 222q0 216 93.5 387t262 267.5t381.5 96.5zM319 707q1 -78 19.5 -152t58.5 -143
t97.5 -120t142.5 -81.5t188 -30.5q129 0 228.5 43.5t158.5 118t89 167t30 198.5q0 102 -30 196t-89 172t-158 126t-225 50q-242 0 -376 -151t-134 -393zM551 1874v8h254l151 -276v-11h-190z" />
    <glyph glyph-name="Oacute" unicode="&#xd3;" horiz-adv-x="1650" 
d="M829 1460q-213 0 -381.5 -96.5t-262 -267.5t-93.5 -387q0 -115 28 -222t87 -201.5t144 -164.5t207 -111t267 -41t267 40t207 109.5t144.5 164t87.5 202.5t28 226t-28.5 226.5t-88 203.5t-144.5 166t-205.5 111.5t-263.5 41.5zM319 707q0 242 134 393t376 151
q126 -2 225 -50t158 -126t89 -172t30 -196q0 -106 -30 -198.5t-89 -167t-158.5 -118t-228.5 -43.5q-103 0 -188 30.5t-142.5 81.5t-97.5 120t-58.5 143t-19.5 152zM1116 1876v-8l-215 -273h-190v11l151 270h254z" />
    <glyph glyph-name="Ocircumflex" unicode="&#xd4;" horiz-adv-x="1650" 
d="M829 1460q-213 0 -381.5 -96.5t-262 -267.5t-93.5 -387q0 -115 28 -222t87 -201.5t144 -164.5t207 -111t267 -41t267 40t207 109.5t144.5 164t87.5 202.5t28 226t-28.5 226.5t-88 203.5t-144.5 166t-205.5 111.5t-263.5 41.5zM319 707q0 242 134 393t376 151
q126 -2 225 -50t158 -126t89 -172t30 -196q0 -106 -30 -198.5t-89 -167t-158.5 -118t-228.5 -43.5q-103 0 -188 30.5t-142.5 81.5t-97.5 120t-58.5 143t-19.5 152zM768 1888h123l301 -278v-13h-219l-144 123l-143 -123h-219v13z" />
    <glyph glyph-name="Otilde" unicode="&#xd5;" horiz-adv-x="1650" 
d="M829 1460q143 -1 263.5 -41.5t205.5 -111.5t144.5 -166t88 -203.5t28.5 -226.5t-28 -226t-87.5 -202.5t-144.5 -164t-207 -109.5t-267 -40t-267 41t-207 111t-144 164.5t-87 201.5t-28 222q0 216 93.5 387t262 267.5t381.5 96.5zM319 707q1 -78 19.5 -152t58.5 -143
t97.5 -120t142.5 -81.5t188 -30.5q129 0 228.5 43.5t158.5 118t89 167t30 198.5q0 102 -30 196t-89 172t-158 126t-225 50q-242 0 -376 -151t-134 -393zM633 1595l-125 68q31 92 93 138.5t149 27.5q27 -7 73 -30t66 -30q99 -34 127 54l135 -51q-9 -58 -35.5 -99t-60.5 -58
t-73.5 -23t-74.5 5q-27 7 -74.5 30.5t-64.5 29.5q-92 31 -135 -62z" />
    <glyph glyph-name="Odieresis" unicode="&#xd6;" horiz-adv-x="1650" 
d="M829 1460q-213 0 -381.5 -96.5t-262 -267.5t-93.5 -387q0 -115 28 -222t87 -201.5t144 -164.5t207 -111t267 -41t267 40t207 109.5t144.5 164t87.5 202.5t28 226t-28.5 226.5t-88 203.5t-144.5 166t-205.5 111.5t-263.5 41.5zM319 707q0 242 134 393t376 151
q126 -2 225 -50t158 -126t89 -172t30 -196q0 -106 -30 -198.5t-89 -167t-158.5 -118t-228.5 -43.5q-103 0 -188 30.5t-142.5 81.5t-97.5 120t-58.5 143t-19.5 152zM457 1720q0 48 26 80.5t63.5 40.5t75 0t63.5 -40.5t26 -80.5q0 -60 -39.5 -93.5t-87.5 -33.5t-87.5 33.5
t-39.5 93.5zM948 1720q0 60 40 93.5t88 33.5t88 -33.5t40 -93.5t-40 -93.5t-88 -33.5t-88 33.5t-40 93.5z" />
    <glyph glyph-name="multiply" unicode="&#xd7;" horiz-adv-x="937" 
d="M264 999l209 -217l213 215l123 -120l-217 -222l229 -229l-133 -127l-225 227l-213 -217l-127 127l215 213l-215 213z" />
    <glyph glyph-name="Oslash" unicode="&#xd8;" horiz-adv-x="1646" 
d="M827 1460q162 0 297 -55l95 162h223l-152 -258q132 -105 201.5 -264t69.5 -334q-1 -114 -29.5 -220.5t-88 -202t-144 -166t-206 -112t-266.5 -41.5q-168 0 -301 54l-102 -175h-223l159 269q-130 102 -198 258.5t-68 333.5q0 115 28.5 223.5t88.5 204.5t145 168
t206.5 113.5t264.5 41.5zM827 180q103 0 188.5 30.5t143 81.5t97.5 119.5t58 142.5t19 153q2 118 -38 226.5t-119 184.5l-537 -909q89 -29 188 -29zM827 1251q-103 0 -189 -31.5t-144.5 -84t-98.5 -123t-57.5 -147.5t-15.5 -158q0 -113 39.5 -218t115.5 -176l535 906
q-85 32 -185 32z" />
    <glyph glyph-name="Ugrave" unicode="&#xd9;" horiz-adv-x="1538" 
d="M1149 1432h227v-838q0 -154 -48.5 -276t-134 -198t-198 -114t-243.5 -33q-122 3 -227.5 44t-187.5 116t-129.5 193.5t-47.5 267.5v838h227v-838q0 -190 100 -297t265 -113q176 -9 286.5 100.5t110.5 309.5v838zM506 1864v8h254l151 -277v-10h-190z" />
    <glyph glyph-name="Uacute" unicode="&#xda;" horiz-adv-x="1538" 
d="M1376 1432h-227v-838q0 -200 -110.5 -309.5t-286.5 -100.5q-165 6 -265 113t-100 297v838h-227v-838q0 -149 47.5 -267.5t129.5 -193.5t187.5 -116t227.5 -44q131 -5 243.5 33t198 114t134 198t48.5 276v838zM1057 1874v-8l-215 -273h-191v11l152 270h254z" />
    <glyph glyph-name="Ucircumflex" unicode="&#xdb;" horiz-adv-x="1538" 
d="M1376 1432h-227v-838q0 -200 -110.5 -309.5t-286.5 -100.5q-165 6 -265 113t-100 297v838h-227v-838q0 -149 47.5 -267.5t129.5 -193.5t187.5 -116t227.5 -44q131 -5 243.5 33t198 114t134 198t48.5 276v838zM702 1888h123l301 -278v-13h-219l-143 123l-143 -123h-220v13
z" />
    <glyph glyph-name="Udieresis" unicode="&#xdc;" horiz-adv-x="1538" 
d="M1376 1432h-227v-838q0 -200 -110.5 -309.5t-286.5 -100.5q-165 6 -265 113t-100 297v838h-227v-838q0 -149 47.5 -267.5t129.5 -193.5t187.5 -116t227.5 -44q131 -5 243.5 33t198 114t134 198t48.5 276v838zM397 1710q0 60 39.5 93.5t87.5 33.5t87.5 -33.5t39.5 -93.5
t-39.5 -93.5t-87.5 -33.5t-87.5 33.5t-39.5 93.5zM889 1710q0 60 40 93.5t88 33.5t88 -33.5t40 -93.5t-40 -93.5t-88 -33.5t-88 33.5t-40 93.5z" />
    <glyph glyph-name="Yacute" unicode="&#xdd;" horiz-adv-x="1404" 
d="M700 801l-395 633h-272v-11l553 -835v-588h229v588l569 835v11h-276zM977 1868v-8l-215 -273h-191v10l152 271h254z" />
    <glyph glyph-name="Thorn" unicode="&#xde;" horiz-adv-x="1413" 
d="M178 0l2 1432h226v-238h438q123 0 222.5 -41t161 -108t94.5 -153t33.5 -175t-33 -175t-94.5 -153t-161 -108t-223 -41h-436v-240h-230zM408 983v-539h436q69 0 124 23t89 61t52.5 86.5t18.5 99t-18.5 99t-52.5 86.5t-89.5 61t-123.5 23h-436z" />
    <glyph glyph-name="germandbls" unicode="&#xdf;" horiz-adv-x="1267" 
d="M494 8v195q212 -66 341.5 1.5t129.5 211.5q0 71 -31 126t-82.5 87.5t-112.5 48.5t-127 16h-116v201h108q46 0 88 8t82 25.5t64.5 52.5t25.5 82q1 44 -13.5 78.5t-38.5 56.5t-57 36.5t-66.5 20t-70.5 5.5q-106 0 -172.5 -46.5t-72.5 -128.5q-6 -59 -6 -120v-383
q0 -87 1 -293.5t1 -288.5h-226v1055q0 97 40.5 175t108 126.5t150.5 74t172 25.5q94 0 178 -24.5t150.5 -71t105.5 -123.5t39 -174q0 -94 -59 -167.5t-162 -96.5q69 -15 124.5 -45t92 -67.5t60.5 -82.5t34.5 -90t10.5 -92q0 -113 -38.5 -201t-105 -141t-155 -79.5t-189 -24
t-206.5 31.5z" />
    <glyph glyph-name="agrave" unicode="&#xe0;" horiz-adv-x="1302" 
d="M948 850l6 160h205v-1010h-201l-10 164q-48 -91 -147 -141t-201 -50q-228 -2 -373 140t-145 393q0 164 70.5 285t187.5 181t264 60q109 0 203.5 -48.5t140.5 -133.5zM621 840q-139 0 -233.5 -91.5t-94.5 -242.5q0 -153 94.5 -244.5t233.5 -91.5q79 0 142.5 29t103 76
t60.5 107t21 123t-21 123t-60.5 107t-103 76t-142.5 29zM381 1444v8h254l151 -276v-11h-190z" />
    <glyph glyph-name="aacute" unicode="&#xe1;" horiz-adv-x="1302" 
d="M948 850q-46 85 -140.5 133.5t-203.5 48.5q-147 0 -264 -60t-187.5 -181t-70.5 -285q0 -251 145 -393t373 -140q102 0 201 50t147 141l10 -164h201v1010h-205zM621 840q79 0 142.5 -29t103 -76t60.5 -107t21 -123t-21 -123t-60.5 -107t-103 -76t-142.5 -29
q-139 0 -233.5 91.5t-94.5 244.5q0 151 94.5 242.5t233.5 91.5zM907 1442v-8l-215 -273h-190v10l151 271h254z" />
    <glyph glyph-name="acircumflex" unicode="&#xe2;" horiz-adv-x="1302" 
d="M948 850q-46 85 -140.5 133.5t-203.5 48.5q-147 0 -264 -60t-187.5 -181t-70.5 -285q0 -251 145 -393t373 -140q102 0 201 50t147 141l10 -164h201v1010h-205zM621 840q79 0 142.5 -29t103 -76t60.5 -107t21 -123t-21 -123t-60.5 -107t-103 -76t-142.5 -29
q-139 0 -233.5 91.5t-94.5 244.5q0 151 94.5 242.5t233.5 91.5zM608 1460h123l301 -278v-13h-219l-143 123l-144 -123h-219v13z" />
    <glyph glyph-name="atilde" unicode="&#xe3;" horiz-adv-x="1302" 
d="M948 850l6 160h205v-1010h-201l-10 164q-48 -91 -147 -141t-201 -50q-228 -2 -373 140t-145 393q0 164 70.5 285t187.5 181t264 60q109 0 203.5 -48.5t140.5 -133.5zM621 840q-139 0 -233.5 -91.5t-94.5 -242.5q0 -153 94.5 -244.5t233.5 -91.5q79 0 142.5 29t103 76
t60.5 107t21 123t-21 123t-60.5 107t-103 76t-142.5 29zM469 1223l-125 67q31 92 93 138.5t149 27.5q27 -7 73.5 -29.5t65.5 -29.5q99 -34 127 53l135 -51q-9 -58 -35.5 -99t-60.5 -57.5t-73.5 -22.5t-74.5 5q-28 7 -75 30t-64 29q-93 32 -135 -61z" />
    <glyph glyph-name="adieresis" unicode="&#xe4;" horiz-adv-x="1302" 
d="M948 850q-46 85 -140.5 133.5t-203.5 48.5q-147 0 -264 -60t-187.5 -181t-70.5 -285q0 -251 145 -393t373 -140q102 0 201 50t147 141l10 -164h201v1010h-205zM621 840q79 0 142.5 -29t103 -76t60.5 -107t21 -123t-21 -123t-60.5 -107t-103 -76t-142.5 -29
q-139 0 -233.5 91.5t-94.5 244.5q0 151 94.5 242.5t233.5 91.5zM303 1325q0 48 26 80.5t63.5 40.5t75 0t63.5 -40.5t26 -80.5t-26 -80.5t-63.5 -40.5t-75 0t-63.5 40.5t-26 80.5zM795 1325q0 48 26.5 80.5t64 40.5t75 0t64 -40.5t26.5 -80.5t-26.5 -80.5t-64 -40.5t-75 0
t-64 40.5t-26.5 80.5z" />
    <glyph glyph-name="aring" unicode="&#xe5;" horiz-adv-x="1302" 
d="M948 850l6 160h205v-1010h-201l-10 164q-48 -91 -147 -141t-201 -50q-228 -2 -373 140t-145 393q0 164 70.5 285t187.5 181t264 60q109 0 203.5 -48.5t140.5 -133.5zM621 840q-139 0 -233.5 -91.5t-94.5 -242.5q0 -153 94.5 -244.5t233.5 -91.5q79 0 142.5 29t103 76
t60.5 107t21 123t-21 123t-60.5 107t-103 76t-142.5 29zM391 1343q0 105 74 164.5t180 59.5q107 0 184.5 -59.5t77.5 -164.5q0 -106 -75 -166.5t-185 -60.5q-108 0 -182 61t-74 166zM645 1448q-56 0 -87.5 -32t-31.5 -70.5t32 -70.5t87 -32q58 0 90.5 32t31.5 70.5
t-33.5 70.5t-88.5 32z" />
    <glyph glyph-name="ae" unicode="&#xe6;" horiz-adv-x="2072" 
d="M1993 426h-822q20 -122 111.5 -190t216.5 -68q90 0 172.5 27.5t134.5 80.5l127 -129q-161 -172 -434 -172q-244 0 -354 170l-6 -145h-187l-2 160q-32 -61 -94.5 -105t-128 -63t-127.5 -19q-230 0 -374 139.5t-144 393.5q0 164 70.5 285t188 181t265.5 60
q108 0 202.5 -48.5t143.5 -133.5l6 160h189v-148q125 174 364 174q121 0 221 -42t167 -118.5t93.5 -193t0.5 -256.5zM623 840q-140 0 -234 -91t-94 -243q0 -153 94 -244.5t234 -91.5q81 0 147 29t106 76t62 107t22 123t-22 123t-62 107t-106 76t-147 29zM1176 604h622
q0 118 -80 181t-211 63q-121 0 -214 -64t-117 -180z" />
    <glyph glyph-name="ccedilla" unicode="&#xe7;" horiz-adv-x="1048" 
d="M299 -381l94 82q30 -43 87 -64.5t110 -7.5t69 62q12 37 -18 65t-77 31t-95 -18l-47 36l55 185q-178 37 -286.5 169.5t-108.5 344.5q0 127 41.5 229t114.5 167t169 99.5t207 34.5q212 0 365 -149l-135 -142q-94 91 -228 91q-139 0 -231 -91t-92 -239q0 -154 92 -240
t229 -86q149 0 240 94l143 -141q-158 -158 -368 -158l-23 -82q53 -1 93.5 -14.5t63 -36t37 -51.5t15 -59.5t-3.5 -61.5q-14 -66 -59 -112t-105.5 -61.5t-125 -10t-125 41t-97.5 93.5z" />
    <glyph glyph-name="egrave" unicode="&#xe8;" horiz-adv-x="1191" 
d="M1120 426h-819q14 -116 103 -185t227 -69q81 0 165 29.5t128 79.5l137 -134q-75 -83 -193 -127.5t-241 -44.5q-249 0 -397 146t-148 389q0 231 147.5 378.5t382.5 147.5q255 0 395.5 -156t112.5 -454zM305 604h613q-9 118 -89.5 181t-210.5 63q-119 0 -204 -63.5
t-109 -180.5zM360 1430v8h254l152 -277v-10h-191z" />
    <glyph glyph-name="eacute" unicode="&#xe9;" horiz-adv-x="1191" 
d="M1120 426q28 298 -112.5 454t-395.5 156q-235 0 -382.5 -147.5t-147.5 -378.5q0 -243 148 -389t397 -146q123 0 241 44.5t193 127.5l-137 134q-44 -50 -128 -79.5t-165 -29.5q-138 0 -227 69t-103 185h819zM305 604q24 117 109 180.5t204 63.5q130 0 210.5 -63t89.5 -181
h-613zM901 1440v-8l-215 -273h-190v10l151 271h254z" />
    <glyph glyph-name="ecircumflex" unicode="&#xea;" horiz-adv-x="1191" 
d="M1120 426q28 298 -112.5 454t-395.5 156q-235 0 -382.5 -147.5t-147.5 -378.5q0 -243 148 -389t397 -146q123 0 241 44.5t193 127.5l-137 134q-44 -50 -128 -79.5t-165 -29.5q-138 0 -227 69t-103 185h819zM305 604q24 117 109 180.5t204 63.5q130 0 210.5 -63t89.5 -181
h-613zM565 1444h123l301 -279v-12h-219l-143 123l-144 -123h-219v12z" />
    <glyph glyph-name="edieresis" unicode="&#xeb;" horiz-adv-x="1191" 
d="M270 1319q0 48 26 80.5t63.5 40.5t75 0t63.5 -40.5t26 -80.5t-26 -80.5t-63.5 -40.5t-75 0t-63.5 40.5t-26 80.5zM721 1319q0 48 26.5 80.5t64 40.5t75 0t64 -40.5t26.5 -80.5t-26.5 -80.5t-64 -40.5t-75 0t-64 40.5t-26.5 80.5zM1120 426q28 298 -112.5 454t-395.5 156
q-235 0 -382.5 -147.5t-147.5 -378.5q0 -243 148 -389t397 -146q123 0 241 44.5t193 127.5l-137 134q-44 -50 -128 -79.5t-165 -29.5q-138 0 -227 69t-103 185h819zM305 604q24 117 109 180.5t204 63.5q130 0 210.5 -63t89.5 -181h-613z" />
    <glyph glyph-name="igrave" unicode="&#xec;" horiz-adv-x="507" 
d="M-14 1427v9h223l135 -275v-10h-188zM365 0h-222v985h222v-985z" />
    <glyph glyph-name="iacute" unicode="&#xed;" horiz-adv-x="507" 
d="M489 1434v-9l-167 -274h-191v10l135 273h223zM143 0h222v985h-222v-985z" />
    <glyph glyph-name="icircumflex" unicode="&#xee;" horiz-adv-x="507" 
d="M195 1456h108l262 -282v-13h-192l-125 119l-125 -119h-191v13zM143 0h222v985h-222v-985z" />
    <glyph glyph-name="idieresis" unicode="&#xef;" horiz-adv-x="507" 
d="M-51 1325q0 48 26 80.5t63.5 40.5t75 0t63.5 -40.5t26 -80.5t-26 -80.5t-63.5 -40.5t-75 0t-63.5 40.5t-26 80.5zM324 1325q0 48 26.5 80.5t64 40.5t75 0t64 -40.5t26.5 -80.5t-26.5 -80.5t-64 -40.5t-75 0t-64 40.5t-26.5 80.5zM143 0h222v985h-222v-985z" />
    <glyph glyph-name="eth" unicode="&#xf0;" horiz-adv-x="1210" 
d="M602 172q97 0 167.5 46.5t103 117t32.5 153.5q0 61 -19.5 116.5t-55.5 100.5t-95.5 72t-132.5 27q-142 0 -222.5 -94t-80.5 -222q0 -83 33 -153.5t103.5 -117t166.5 -46.5zM516 983q90 10 181 -11t149 -75q-25 73 -96.5 141.5t-131.5 100.5l-69 -84l-107 69l60 78
q-68 41 -178 58l41 174q145 -26 262 -80l90 112l108 -77l-80 -99q204 -155 290.5 -344.5t86.5 -431.5q2 -238 -138.5 -386t-381.5 -148q-126 0 -227.5 43t-164 115t-95.5 161.5t-33 187.5q0 88 27.5 170t80 150.5t136.5 115.5t190 60z" />
    <glyph glyph-name="ntilde" unicode="&#xf1;" horiz-adv-x="1249" 
d="M1122 0h-213v541q0 133 -71.5 211.5t-200.5 78.5q-124 0 -203.5 -88t-79.5 -215v-528h-211v1012h193l12 -148q143 162 340 162q190 0 312 -128.5t122 -354.5v-543zM451 1221l-113 67q28 90 84.5 135.5t134.5 26.5q25 -6 69.5 -28.5t59.5 -28.5q91 -34 115 53l125 -51
q-8 -57 -32.5 -97.5t-56 -57t-67.5 -22.5t-68 5q-25 7 -68.5 30t-58.5 29q-84 31 -124 -61z" />
    <glyph glyph-name="ograve" unicode="&#xf2;" horiz-adv-x="1204" 
d="M600 1030q152 0 272.5 -69.5t186 -189t65.5 -267.5q0 -227 -144.5 -375.5t-379.5 -148.5q-233 0 -376.5 148t-143.5 376q0 226 144.5 376t375.5 150zM600 836q-140 0 -224.5 -96.5t-84.5 -235.5q0 -140 84 -234t225 -94q142 0 226.5 94t84.5 234q0 137 -88 234.5
t-223 97.5zM319 1440v8h254l152 -266v-11h-190z" />
    <glyph glyph-name="oacute" unicode="&#xf3;" horiz-adv-x="1204" 
d="M600 1030q-231 0 -375.5 -150t-144.5 -376q0 -228 143.5 -376t376.5 -148q235 0 379.5 148.5t144.5 375.5q0 148 -65.5 267.5t-186 189t-272.5 69.5zM600 836q135 0 223 -97.5t88 -234.5q0 -140 -84.5 -234t-226.5 -94q-141 0 -225 94t-84 234q0 139 84.5 235.5
t224.5 96.5zM889 1446v-8l-213 -271h-189v11l150 268h252z" />
    <glyph glyph-name="ocircumflex" unicode="&#xf4;" horiz-adv-x="1204" 
d="M600 1030q-231 0 -375.5 -150t-144.5 -376q0 -228 143.5 -376t376.5 -148q235 0 379.5 148.5t144.5 375.5q0 148 -65.5 267.5t-186 189t-272.5 69.5zM600 836q135 0 223 -97.5t88 -234.5q0 -140 -84.5 -234t-226.5 -94q-141 0 -225 94t-84 234q0 139 84.5 235.5
t224.5 96.5zM543 1477h123l301 -279v-12h-219l-144 123l-143 -123h-219v12z" />
    <glyph glyph-name="otilde" unicode="&#xf5;" horiz-adv-x="1204" 
d="M600 1030q152 0 272.5 -69.5t186 -189t65.5 -267.5q0 -227 -144.5 -375.5t-379.5 -148.5q-233 0 -376.5 148t-143.5 376q0 226 144.5 376t375.5 150zM600 836q-140 0 -224.5 -96.5t-84.5 -235.5q0 -140 84 -234t225 -94q142 0 226.5 94t84.5 234q0 137 -88 234.5
t-223 97.5zM416 1229l-117 65q30 90 87 135.5t138 26.5q25 -7 68.5 -29t60.5 -28q91 -34 119 51l125 -49q-7 -46 -24 -80.5t-40.5 -53.5t-51.5 -30.5t-56 -11t-55 5.5q-24 6 -66.5 28.5t-62.5 28.5q-85 32 -125 -59z" />
    <glyph glyph-name="odieresis" unicode="&#xf6;" horiz-adv-x="1204" 
d="M272 1325q0 48 26 80.5t63.5 40.5t75 0t63.5 -40.5t26 -80.5t-26 -80.5t-63.5 -40.5t-75 0t-63.5 40.5t-26 80.5zM707 1325q0 48 26.5 80.5t64 40.5t75 0t64 -40.5t26.5 -80.5t-26.5 -80.5t-64 -40.5t-75 0t-64 40.5t-26.5 80.5zM600 1030q-231 0 -375.5 -150
t-144.5 -376q0 -228 143.5 -376t376.5 -148q235 0 379.5 148.5t144.5 375.5q0 148 -65.5 267.5t-186 189t-272.5 69.5zM600 836q135 0 223 -97.5t88 -234.5q0 -140 -84.5 -234t-226.5 -94q-141 0 -225 94t-84 234q0 139 84.5 235.5t224.5 96.5z" />
    <glyph glyph-name="divide" unicode="&#xf7;" horiz-adv-x="1130" 
d="M119 774v-192h893v192h-893zM440 301q0 48 26.5 81.5t64 41t75 0t64 -41t26.5 -81.5t-26.5 -80.5t-64 -40.5t-75 0t-64 40.5t-26.5 80.5zM440 1030q0 60 40 93.5t88 33.5t88 -33.5t40 -93.5t-40 -93.5t-88 -33.5t-88 33.5t-40 93.5z" />
    <glyph glyph-name="oslash" unicode="&#xf8;" horiz-adv-x="1204" 
d="M600 1030q105 0 195 -35l75 129h203l-129 -217q86 -71 133 -175.5t47 -227.5q0 -227 -144.5 -375.5t-379.5 -148.5q-99 0 -188 28l-80 -135h-203l131 221q-86 69 -133 176t-47 234q0 226 144.5 376t375.5 150zM600 836q-140 0 -224.5 -96.5t-84.5 -235.5q0 -137 80 -223
l319 540q-51 15 -90 15zM600 176q142 0 226.5 94t84.5 234q0 125 -77 215l-316 -533q31 -10 82 -10z" />
    <glyph glyph-name="ugrave" unicode="&#xf9;" 
d="M127 1010h211v-541q0 -132 72 -211.5t202 -79.5q123 0 202 88.5t79 216.5v527h211v-1012h-191l-12 149q-141 -163 -348 -163q-190 0 -308 129t-118 354v543zM356 1430v8h254l152 -277v-10h-191z" />
    <glyph glyph-name="uacute" unicode="&#xfa;" 
d="M338 1010h-211v-543q0 -225 118 -354t308 -129q207 0 348 163l12 -149h191v1012h-211v-527q0 -128 -79 -216.5t-202 -88.5q-130 0 -202 79.5t-72 211.5v541zM903 1432v-9l-215 -272h-190v10l151 271h254z" />
    <glyph glyph-name="ucircumflex" unicode="&#xfb;" 
d="M338 1010h-211v-543q0 -225 118 -354t308 -129q207 0 348 163l12 -149h191v1012h-211v-527q0 -128 -79 -216.5t-202 -88.5q-130 0 -202 79.5t-72 211.5v541zM580 1454h118l291 -268v-10h-211l-139 116l-137 -116h-213v10z" />
    <glyph glyph-name="udieresis" unicode="&#xfc;" 
d="M338 1010h-211v-543q0 -225 118 -354t308 -129q207 0 348 163l12 -149h191v1012h-211v-527q0 -128 -79 -216.5t-202 -88.5q-130 0 -202 79.5t-72 211.5v541zM264 1319q0 48 26 80.5t63.5 40.5t75 0t63.5 -40.5t26 -80.5t-26 -80.5t-63.5 -40.5t-75 0t-63.5 40.5t-26 80.5
zM756 1319q0 48 26.5 80.5t64 40.5t75 0t64 -40.5t26.5 -80.5t-26.5 -80.5t-64 -40.5t-75 0t-64 40.5t-26.5 80.5z" />
    <glyph glyph-name="yacute" unicode="&#xfd;" horiz-adv-x="1142" 
d="M1110 1010h-236l-200 -482l-109 -282l-100 286l-174 478h-246l404 -996l-209 -483h233zM842 1434v-9l-203 -258h-178v11l141 256h240z" />
    <glyph glyph-name="thorn" unicode="&#xfe;" horiz-adv-x="1304" 
d="M692 182q137 0 227.5 86t90.5 236q0 151 -90 236t-228 85q-133 0 -225 -93t-92 -228t92.5 -228.5t224.5 -93.5zM356 -422h-213v1856h211l2 -586q51 85 151 133.5t206 48.5q226 -2 368 -139.5t142 -386.5q0 -168 -67.5 -289t-181.5 -179.5t-263 -58.5q-102 0 -200.5 46
t-154.5 139v-584z" />
    <glyph glyph-name="ydieresis" unicode="&#xff;" horiz-adv-x="1142" 
d="M1110 1010h-236l-200 -482l-109 -282l-100 286l-174 478h-246l404 -996l-209 -483h233zM195 1327q0 47 26 79.5t62.5 40t73.5 0t63 -40t26 -79.5q0 -48 -26 -80.5t-63 -40.5t-73.5 0t-62.5 40.5t-26 80.5zM682 1327q0 47 26 79.5t63.5 40t75 0t63.5 -40t26 -79.5
q0 -48 -26 -80.5t-63.5 -40.5t-75 0t-63.5 40.5t-26 80.5z" />
    <glyph glyph-name="Amacron" unicode="&#x100;" horiz-adv-x="1572" 
d="M1311 0l-137 301h-777l-135 -301h-244l644 1434h249l643 -1434h-243zM1090 510l-304 682l-303 -682h607zM473 1581v184h639v-184h-639z" />
    <glyph glyph-name="amacron" unicode="&#x101;" horiz-adv-x="1302" 
d="M948 850l6 160h205v-1010h-201l-10 164q-48 -91 -147 -141t-201 -50q-228 -2 -373 140t-145 393q0 164 70.5 285t187.5 181t264 60q109 0 203.5 -48.5t140.5 -133.5zM621 840q-139 0 -233.5 -91.5t-94.5 -242.5q0 -153 94.5 -244.5t233.5 -91.5q79 0 142.5 29t103 76
t60.5 107t21 123t-21 123t-60.5 107t-103 76t-142.5 29zM336 1237v178h637v-178h-637z" />
    <glyph glyph-name="Abreve" unicode="&#x102;" horiz-adv-x="1572" 
d="M1311 0l-137 301h-777l-135 -301h-244l644 1434h249l643 -1434h-243zM1090 510l-304 682l-303 -682h607zM922 1825h178q0 -133 -88 -210t-221 -77q-85 0 -156 31.5t-115.5 98.5t-38.5 157h178q0 -57 36 -92t96 -35t95.5 35t35.5 92z" />
    <glyph glyph-name="abreve" unicode="&#x103;" horiz-adv-x="1302" 
d="M948 850l6 160h205v-1010h-201l-10 164q-48 -91 -147 -141t-201 -50q-228 -2 -373 140t-145 393q0 164 70.5 285t187.5 181t264 60q109 0 203.5 -48.5t140.5 -133.5zM621 840q-139 0 -233.5 -91.5t-94.5 -242.5q0 -153 94.5 -244.5t233.5 -91.5q79 0 142.5 29t103 76
t60.5 107t21 123t-21 123t-60.5 107t-103 76t-142.5 29zM793 1446h172q0 -132 -84.5 -208.5t-212.5 -76.5q-82 0 -151 31.5t-111.5 98t-36.5 155.5h172q0 -57 34.5 -92t92.5 -35q57 0 91 35t34 92z" />
    <glyph glyph-name="Aogonek" unicode="&#x104;" horiz-adv-x="1574" 
d="M1081 506l-295 676l-297 -676h592zM1489 -137l113 -82q-34 -55 -96 -89t-130 -42q-79 -10 -144 11t-102 61.5t-50.5 93t0.5 104t61.5 98t122.5 70.5l-90 203h-777l-131 -291h-248l644 1434h249l648 -1438q-129 14 -195 0q-76 -16 -106 -66t1 -92t105 -37q72 4 125 62z
" />
    <glyph glyph-name="aogonek" unicode="&#x105;" horiz-adv-x="1302" 
d="M1176 -221l112 -80q-34 -59 -94.5 -93t-132.5 -40q-102 -9 -182 34t-103 128q-5 25 -7 52.5t10.5 60t33 61.5t60 55.5t92.5 44.5l-17 162q-48 -91 -147 -141t-201 -50q-149 -2 -265 58.5t-184.5 183.5t-68.5 291q0 165 70.5 286t187 180.5t264.5 59.5q109 0 203.5 -48.5
t140.5 -133.5l6 160h205v-1100q-64 8 -123.5 -13.5t-79 -57.5t12.5 -79q14 -21 47 -30t78 2t82 47zM621 840q-139 0 -233.5 -91.5t-94.5 -242.5q0 -153 94.5 -244.5t233.5 -91.5q79 0 142.5 29t103 76t60.5 107t21 123t-21 123t-60.5 107t-103 76t-142.5 29z" />
    <glyph glyph-name="Cacute" unicode="&#x106;" horiz-adv-x="1439" 
d="M1386 184l-157 158q-74 -74 -176.5 -115t-204.5 -41q-134 0 -238 44.5t-165.5 119.5t-93 166t-32.5 193t31 195t95 169.5t167 122t236 45.5q103 0 200 -37t171 -110l153 147q-107 107 -242 162t-282 55q-149 0 -275 -42t-213.5 -114t-149 -168t-90.5 -204t-28 -223
t29 -221.5t88.5 -200.5t147.5 -163.5t213 -110t278 -40.5q322 0 538 213zM1118 1841v-8l-213 -252h-188v10l149 250h252z" />
    <glyph glyph-name="cacute" unicode="&#x107;" horiz-adv-x="1042" 
d="M997 131l-143 141q-91 -94 -240 -94q-137 0 -229 86t-92 240q0 148 92 239t231 91q134 0 228 -91l135 142q-153 149 -365 149q-111 0 -207 -34.5t-169 -99.5t-114.5 -167t-41.5 -229q0 -168 73 -290.5t192 -181.5t267 -59q222 0 383 158zM844 1436v-6l-203 -238h-176v10
l141 234h238z" />
    <glyph glyph-name="Ccircumflex" unicode="&#x108;" horiz-adv-x="1439" 
d="M1386 184l-157 158q-74 -74 -176.5 -115t-204.5 -41q-134 0 -238 44.5t-165.5 119.5t-93 166t-32.5 193t31 195t95 169.5t167 122t236 45.5q103 0 200 -37t171 -110l153 147q-107 107 -242 162t-282 55q-149 0 -275 -42t-213.5 -114t-149 -168t-90.5 -204t-28 -223
t29 -221.5t88.5 -200.5t147.5 -163.5t213 -110t278 -40.5q322 0 538 213zM795 1880h118l291 -268v-10h-211l-139 116l-137 -116h-213v10z" />
    <glyph glyph-name="ccircumflex" unicode="&#x109;" horiz-adv-x="1042" 
d="M997 131l-143 141q-91 -94 -240 -94q-137 0 -229 86t-92 240q0 148 92 239t231 91q134 0 228 -91l135 142q-153 149 -365 149q-111 0 -207 -34.5t-169 -99.5t-114.5 -167t-41.5 -229q0 -168 73 -290.5t192 -181.5t267 -59q222 0 383 158zM559 1466h115l278 -258v-12h-202
l-134 115l-133 -115h-204v12z" />
    <glyph glyph-name="Cdotaccent" unicode="&#x10a;" horiz-adv-x="1439" 
d="M1386 184l-157 158q-74 -74 -176.5 -115t-204.5 -41q-134 0 -238 44.5t-165.5 119.5t-93 166t-32.5 193t31 195t95 169.5t167 122t236 45.5q103 0 200 -37t171 -110l153 147q-107 107 -242 162t-282 55q-149 0 -275 -42t-213.5 -114t-149 -168t-90.5 -204t-28 -223
t29 -221.5t88.5 -200.5t147.5 -163.5t213 -110t278 -40.5q322 0 538 213zM698 1729q0 43 20.5 74t51.5 45t67.5 14t67.5 -14t51.5 -45t20.5 -74q0 -64 -43.5 -100t-96 -36t-96 36t-43.5 100z" />
    <glyph glyph-name="cdotaccent" unicode="&#x10b;" horiz-adv-x="1042" 
d="M997 131l-143 141q-91 -94 -240 -94q-137 0 -229 86t-92 240q0 148 92 239t231 91q134 0 228 -91l135 142q-153 149 -365 149q-111 0 -207 -34.5t-169 -99.5t-114.5 -167t-41.5 -229q0 -168 73 -290.5t192 -181.5t267 -59q222 0 383 158zM459 1309q0 47 28 79.5t68.5 40
t81 0t68.5 -40t28 -79.5t-28 -79.5t-68.5 -40t-81 0t-68.5 40t-28 79.5z" />
    <glyph glyph-name="Ccaron" unicode="&#x10c;" horiz-adv-x="1439" 
d="M1386 184l-157 158q-74 -74 -176.5 -115t-204.5 -41q-134 0 -238 44.5t-165.5 119.5t-93 166t-32.5 193t31 195t95 169.5t167 122t236 45.5q103 0 200 -37t171 -110l153 147q-107 107 -242 162t-282 55q-149 0 -275 -42t-213.5 -114t-149 -168t-90.5 -204t-28 -223
t29 -221.5t88.5 -200.5t147.5 -163.5t213 -110t278 -40.5q322 0 538 213zM463 1843v12h213l143 -118l152 118h207v-12l-299 -262h-123z" />
    <glyph glyph-name="ccaron" unicode="&#x10d;" horiz-adv-x="1042" 
d="M997 131l-143 141q-91 -94 -240 -94q-137 0 -229 86t-92 240q0 148 92 239t231 91q134 0 228 -91l135 142q-153 149 -365 149q-111 0 -207 -34.5t-169 -99.5t-114.5 -167t-41.5 -229q0 -168 73 -290.5t192 -181.5t267 -59q222 0 383 158zM250 1421v13h199l135 -117
l141 117h195v-13l-281 -258h-115z" />
    <glyph glyph-name="Dcaron" unicode="&#x10e;" horiz-adv-x="1536" 
d="M723 1434h-543v-1434h543q146 0 268 41t205 111t140.5 164t82.5 198t23 215q-2 108 -29.5 209t-85.5 192t-140.5 158t-202 106.5t-261.5 39.5zM408 221v993h315q122 0 217.5 -41t153 -110.5t88 -153.5t32.5 -178q2 -77 -14.5 -149.5t-55 -138.5t-95 -115t-140.5 -78
t-186 -29h-315zM317 1843v12h209l140 -122l147 122h203v-12l-293 -268h-119z" />
    <glyph glyph-name="dcaron" unicode="&#x10f;" horiz-adv-x="1302" 
d="M612 834q-138 0 -228.5 -88.5t-90.5 -239.5q0 -149 91 -239.5t228 -90.5q135 0 228.5 92t93.5 238q0 144 -93.5 236t-228.5 92zM948 1432h211v-1432h-198l-13 160q-57 -92 -149.5 -136t-200.5 -44q-226 0 -371 141t-145 385q0 250 142 388t370 138q101 0 204 -48
t150 -132v580zM1239 1053l86 381h197l-133 -381h-150z" />
    <glyph glyph-name="Dcroat" unicode="&#x110;" horiz-adv-x="1546" 
d="M59 627v190h131v617h543q142 0 261.5 -39.5t202 -106.5t140.5 -158t85.5 -192t29.5 -209q2 -111 -23 -215t-82.5 -198t-140.5 -164t-205 -111t-268 -41h-543v627h-131zM418 627v-406h315q102 0 186 29t140.5 78t95 115t55.5 138.5t15 149.5q-2 94 -32.5 178t-88 153.5
t-153.5 110.5t-218 41h-315v-397h244v-190h-244z" />
    <glyph glyph-name="dcroat" unicode="&#x111;" horiz-adv-x="1302" 
d="M948 1432h211v-129h129v-150h-129v-1153h-198l-13 160q-57 -92 -149.5 -136t-200.5 -44q-226 0 -371 141t-145 385q0 250 142 388t370 138q101 0 204 -48t150 -132v301h-213v150h213v129zM612 834q-138 0 -228.5 -88.5t-90.5 -239.5q0 -149 91 -239.5t228 -90.5
q135 0 228.5 92t93.5 238q0 144 -93.5 236t-228.5 92z" />
    <glyph glyph-name="Emacron" unicode="&#x112;" horiz-adv-x="1353" 
d="M1239 225v-225h-1059v1434h1053v-224h-823v-387h790v-213h-790v-385h829zM401 1604v194h617v-194h-617z" />
    <glyph glyph-name="emacron" unicode="&#x113;" horiz-adv-x="1191" 
d="M1120 426h-819q14 -116 103 -185t227 -69q81 0 165 29.5t128 79.5l137 -134q-75 -83 -193 -127.5t-241 -44.5q-249 0 -397 146t-148 389q0 231 147.5 378.5t382.5 147.5q255 0 395.5 -156t112.5 -454zM305 604h613q-9 118 -89.5 181t-210.5 63q-119 0 -204 -63.5
t-109 -180.5zM311 1229v172h604v-172h-604z" />
    <glyph glyph-name="Ebreve" unicode="&#x114;" horiz-adv-x="1353" 
d="M1239 225v-225h-1059v1434h1053v-224h-823v-387h790v-213h-790v-385h829zM852 1868h172q0 -132 -84.5 -208.5t-212.5 -76.5q-82 0 -151 31.5t-111.5 98t-36.5 155.5h172q0 -57 34.5 -92t92.5 -35q57 0 91 35t34 92z" />
    <glyph glyph-name="ebreve" unicode="&#x115;" horiz-adv-x="1191" 
d="M1120 426h-819q14 -116 103 -185t227 -69q81 0 165 29.5t128 79.5l137 -134q-75 -83 -193 -127.5t-241 -44.5q-249 0 -397 146t-148 389q0 231 147.5 378.5t382.5 147.5q255 0 395.5 -156t112.5 -454zM305 604h613q-9 118 -89.5 181t-210.5 63q-119 0 -204 -63.5
t-109 -180.5zM754 1452h172q0 -132 -84.5 -208.5t-212.5 -76.5q-82 0 -151 31.5t-111.5 98t-36.5 155.5h172q0 -57 34.5 -92t92.5 -35q57 0 91 35t34 92z" />
    <glyph glyph-name="Edotaccent" unicode="&#x116;" horiz-adv-x="1353" 
d="M1239 0v225h-829v385h790v213h-790v387h823v224h-1053v-1434h1059zM584 1720q0 49 27 82.5t65.5 41.5t77 0t65.5 -41.5t27 -82.5q0 -36 -14.5 -64t-37.5 -42.5t-51 -21.5t-56 0t-51 21.5t-37.5 42.5t-14.5 64z" />
    <glyph glyph-name="edotaccent" unicode="&#x117;" horiz-adv-x="1191" 
d="M1120 426q28 298 -112.5 454t-395.5 156q-235 0 -382.5 -147.5t-147.5 -378.5q0 -243 148 -389t397 -146q123 0 241 44.5t193 127.5l-137 134q-44 -50 -128 -79.5t-165 -29.5q-138 0 -227 69t-103 185h819zM305 604q24 117 109 180.5t204 63.5q130 0 210.5 -63t89.5 -181
h-613zM492 1350q0 47 28 79.5t68 40t80 0t68 -40t28 -79.5q0 -48 -28 -81.5t-68 -41t-80 0t-68 41t-28 81.5z" />
    <glyph glyph-name="Eogonek" unicode="&#x118;" horiz-adv-x="1353" 
d="M1239 225v-225q-47 3 -86 -1t-66.5 -13t-48 -22t-31.5 -28t-16.5 -30.5t-4 -30.5t8.5 -27q16 -29 54 -43t84.5 -1.5t78.5 57.5l99 -105q-50 -83 -144 -113.5t-184.5 -1.5t-134.5 105q-22 39 -26 82t17 89.5t68 82.5h-727v1434h1053v-224h-823v-387h790v-213h-790v-385
h829z" />
    <glyph glyph-name="eogonek" unicode="&#x119;" horiz-adv-x="1193" 
d="M1118 426h-819q14 -116 103 -185t227 -69q81 0 165 29.5t128 79.5l137 -134q-77 -86 -213 -135q-75 -41 -66 -98q7 -45 56 -67q66 -30 135 12q21 13 39 32l112 -81q-51 -81 -142.5 -116.5t-180.5 -19.5t-137 76q-78 94 -5 232q-67 0 -145 12q-199 34 -315.5 171
t-116.5 345q0 231 147.5 378.5t382.5 147.5q255 0 395.5 -156t112.5 -454zM303 604h612q-9 118 -89 181t-210 63q-119 0 -204 -63.5t-109 -180.5z" />
    <glyph glyph-name="Ecaron" unicode="&#x11a;" horiz-adv-x="1353" 
d="M1239 0v225h-829v385h790v213h-790v387h823v224h-1053v-1434h1059zM395 1849v13h209l144 -123l147 123h203v-13l-293 -270h-121z" />
    <glyph glyph-name="ecaron" unicode="&#x11b;" horiz-adv-x="1191" 
d="M1120 426q28 298 -112.5 454t-395.5 156q-235 0 -382.5 -147.5t-147.5 -378.5q0 -243 148 -389t397 -146q123 0 241 44.5t193 127.5l-137 134q-44 -50 -128 -79.5t-165 -29.5q-138 0 -227 69t-103 185h819zM305 604q24 117 109 180.5t204 63.5q130 0 210.5 -63t89.5 -181
h-613zM270 1434v12h207l139 -121l146 121h201v-12l-289 -267h-119z" />
    <glyph glyph-name="Gcircumflex" unicode="&#x11c;" horiz-adv-x="1521" 
d="M1233 1104l143 147q-108 107 -246 162t-284 55q-143 0 -265.5 -40t-211.5 -110.5t-152 -167t-94 -210t-31 -238.5q0 -117 27.5 -222.5t87 -199t146.5 -162t213.5 -108t279.5 -39.5q337 0 563 250v588h-612v-205h399v-291q-152 -127 -350 -127q-109 0 -198 28.5
t-149.5 77.5t-102 115.5t-60.5 140t-19 154.5q-1 114 35 214.5t102 176.5t167.5 120t224.5 44q103 0 208 -40t179 -113zM756 1888h121l299 -274v-12h-218l-141 120l-141 -120h-217v12z" />
    <glyph glyph-name="gcircumflex" unicode="&#x11d;" horiz-adv-x="1257" 
d="M901 971l111 135l153 -119l-121 -141q64 -75 93.5 -148.5t29.5 -165.5q0 -137 -68 -239.5t-200 -153.5q75 -25 128.5 -63t82.5 -83t42 -89.5t13 -93.5q0 -80 -30 -148t-82 -116t-121 -82t-147 -50t-160 -16q-250 0 -394.5 119.5t-138.5 328.5h211q-4 -112 91.5 -176.5
t230.5 -66.5q82 0 152.5 21t119.5 69.5t49 116.5q0 104 -86.5 161.5t-230.5 57.5q-249 0 -398 134.5t-149 368.5q0 122 46.5 221t124.5 160.5t174.5 94t201.5 32.5q70 0 146 -17.5t126 -51.5zM629 844q-89 0 -163 -33t-122.5 -105.5t-48.5 -173.5q0 -145 95.5 -227
t238.5 -82q141 0 234 87t93 222q0 144 -95 228t-232 84zM590 1475h117l284 -265v-12h-207l-137 117l-137 -117h-207v12z" />
    <glyph glyph-name="Gbreve" unicode="&#x11e;" horiz-adv-x="1521" 
d="M1376 1251l-143 -147q-74 73 -179 113t-208 40q-123 0 -224.5 -44t-167.5 -120t-102 -176.5t-35 -214.5q0 -81 19 -154.5t60.5 -140t102 -115.5t149.5 -77.5t198 -28.5q198 0 350 127v291h-399v205h612v-588q-226 -250 -563 -250q-153 0 -279.5 39.5t-213.5 108
t-146.5 162t-87 199t-27.5 222.5q0 125 31 238.5t94 210t152 167t211.5 110.5t265.5 40q146 0 284 -55t246 -162zM948 1872h178q0 -125 -87.5 -196.5t-219.5 -71.5q-85 0 -155.5 29.5t-114 92t-37.5 146.5h176q0 -54 35.5 -87.5t95.5 -33.5q58 0 93.5 33.5t35.5 87.5z" />
    <glyph glyph-name="gbreve" unicode="&#x11f;" horiz-adv-x="1257" 
d="M901 971l111 135l153 -119l-121 -141q64 -75 93.5 -148.5t29.5 -165.5q0 -137 -68 -239.5t-200 -153.5q75 -25 128.5 -63t82.5 -83t42 -89.5t13 -93.5q0 -80 -30 -148t-82 -116t-121 -82t-147 -50t-160 -16q-250 0 -394.5 119.5t-138.5 328.5h211q-4 -112 91.5 -176.5
t230.5 -66.5q82 0 152.5 21t119.5 69.5t49 116.5q0 104 -86.5 161.5t-230.5 57.5q-249 0 -398 134.5t-149 368.5q0 122 46.5 221t124.5 160.5t174.5 94t201.5 32.5q70 0 146 -17.5t126 -51.5zM629 844q-89 0 -163 -33t-122.5 -105.5t-48.5 -173.5q0 -145 95.5 -227
t238.5 -82q141 0 234 87t93 222q0 144 -95 228t-232 84zM776 1446h174q0 -128 -86 -201.5t-215 -73.5q-84 0 -154 30.5t-113.5 94.5t-37.5 150h176q0 -56 34.5 -89.5t94.5 -33.5q58 0 92.5 33.5t34.5 89.5z" />
    <glyph glyph-name="Gdotaccent" unicode="&#x120;" horiz-adv-x="1521" 
d="M1233 1104l143 147q-108 107 -246 162t-284 55q-143 0 -265.5 -40t-211.5 -110.5t-152 -167t-94 -210t-31 -238.5q0 -117 27.5 -222.5t87 -199t146.5 -162t213.5 -108t279.5 -39.5q337 0 563 250v588h-612v-205h399v-291q-152 -127 -350 -127q-109 0 -198 28.5
t-149.5 77.5t-102 115.5t-60.5 140t-19 154.5q-1 114 35 214.5t102 176.5t167.5 120t224.5 44q103 0 208 -40t179 -113zM698 1731q0 47 27.5 79.5t67 40t79.5 0t67.5 -40t27.5 -79.5q0 -48 -27.5 -80.5t-67.5 -40.5t-79.5 0t-67 40.5t-27.5 80.5z" />
    <glyph glyph-name="gdotaccent" unicode="&#x121;" horiz-adv-x="1257" 
d="M901 971l111 135l153 -119l-121 -141q64 -75 93.5 -148.5t29.5 -165.5q0 -137 -68 -239.5t-200 -153.5q75 -25 128.5 -63t82.5 -83t42 -89.5t13 -93.5q0 -80 -30 -148t-82 -116t-121 -82t-147 -50t-160 -16q-250 0 -394.5 119.5t-138.5 328.5h211q-4 -112 91.5 -176.5
t230.5 -66.5q82 0 152.5 21t119.5 69.5t49 116.5q0 104 -86.5 161.5t-230.5 57.5q-249 0 -398 134.5t-149 368.5q0 122 46.5 221t124.5 160.5t174.5 94t201.5 32.5q70 0 146 -17.5t126 -51.5zM629 844q-89 0 -163 -33t-122.5 -105.5t-48.5 -173.5q0 -145 95.5 -227
t238.5 -82q141 0 234 87t93 222q0 144 -95 228t-232 84zM500 1325q0 47 27.5 79.5t67 40t79 0t67 -40t27.5 -79.5q0 -48 -27.5 -80.5t-67 -40.5t-79 0t-67 40.5t-27.5 80.5z" />
    <glyph glyph-name="Gcommaaccent" unicode="&#x122;" horiz-adv-x="1521" 
d="M1376 1251l-143 -147q-74 73 -179 113t-208 40q-123 0 -224.5 -44t-167.5 -120t-102 -176.5t-35 -214.5q0 -81 19 -154.5t60.5 -140t102 -115.5t149.5 -77.5t198 -28.5q198 0 350 127v291h-399v205h612v-588q-226 -250 -563 -250q-153 0 -279.5 39.5t-213.5 108
t-146.5 162t-87 199t-27.5 222.5q0 125 31 238.5t94 210t152 167t211.5 110.5t265.5 40q146 0 284 -55t246 -162zM952 -276q0 -7 -1 -13t-4 -17t-6.5 -22t-11.5 -33.5l-16 -45t-22 -63.5t-29 -83h-125l43 184q-38 8 -61 33.5t-23 65.5q0 30 14 54t36.5 37t50 19t55 0t50 -19
t36.5 -38.5t14 -58.5z" />
    <glyph glyph-name="gcommaaccent" unicode="&#x123;" horiz-adv-x="1257" 
d="M520 1315q0 9 1.5 18t8.5 30t15 43t27 75.5t38 109.5h125l-45 -184q40 -8 63 -33t23 -65q0 -30 -14 -54t-36.5 -37t-50 -19t-55 0t-50 19t-36.5 38.5t-14 58.5zM901 971l111 135l153 -119l-121 -141q64 -75 93.5 -148.5t29.5 -165.5q0 -137 -68 -239.5t-200 -153.5
q75 -25 128.5 -63t82.5 -83t42 -89.5t13 -93.5q0 -80 -30 -148t-82 -116t-121 -82t-147 -50t-160 -16q-250 0 -394.5 119.5t-138.5 328.5h211q-4 -112 91.5 -176.5t230.5 -66.5q82 0 152.5 21t119.5 69.5t49 116.5q0 104 -86.5 161.5t-230.5 57.5q-249 0 -398 134.5
t-149 368.5q0 122 46.5 221t124.5 160.5t174.5 94t201.5 32.5q70 0 146 -17.5t126 -51.5zM629 844q-89 0 -163 -33t-122.5 -105.5t-48.5 -173.5q0 -145 95.5 -227t238.5 -82q141 0 234 87t93 222q0 144 -95 228t-232 84z" />
    <glyph glyph-name="Hcircumflex" unicode="&#x124;" horiz-adv-x="1574" 
d="M1167 0h228v1434h-228v-625h-757v625h-230v-1434h230v596h757v-596zM733 1878h121l291 -272v-13h-213l-139 119l-140 -119h-213v13z" />
    <glyph glyph-name="hcircumflex" unicode="&#x125;" horiz-adv-x="1226" 
d="M354 1434h-211v-1434h211v526q0 126 79 213.5t200 87.5q120 0 187 -72t67 -212v-543h211v545q0 224 -104 351.5t-312 127.5q-211 0 -328 -164v574zM543 1860h119l288 -269v-10h-211l-137 117l-137 -117h-211v10z" />
    <glyph glyph-name="Hbar" unicode="&#x126;" horiz-adv-x="1595" 
d="M1405 -2h-227v598h-758v-598h-230v1071h-139v148h139v215h230v-215h758v215h227v-215h141v-148h-141v-1071zM420 809h758v260h-758v-260z" />
    <glyph glyph-name="hbar" unicode="&#x127;" horiz-adv-x="1226" 
d="M16 1149v147h127v138h211v-138h232v-147h-232v-289q117 164 328 164q208 0 312 -127.5t104 -351.5v-545h-211v543q0 140 -67 212t-187 72q-121 0 -200 -87.5t-79 -213.5v-526h-211v1149h-127z" />
    <glyph glyph-name="Itilde" unicode="&#x128;" horiz-adv-x="587" 
d="M408 0h-228v1434h228v-1434zM115 1561l-123 65q31 90 91 135.5t144 26.5q26 -6 71 -28.5t67 -28.5q98 -35 122 51l134 -49q-9 -57 -35 -96.5t-59.5 -56t-72 -22.5t-71.5 5q-28 7 -74.5 29t-62.5 28q-24 7 -47 7.5t-46 -16.5t-38 -50z" />
    <glyph glyph-name="itilde" unicode="&#x129;" horiz-adv-x="507" 
d="M365 0h-222v985h222v-985zM82 1233l-96 63q25 84 73 127t115 25q22 -6 59 -27.5t50 -27.5q79 -30 98 49l106 -47q-14 -102 -70 -139.5t-120 -20.5q-22 7 -60 28.5t-49 26.5q-72 27 -106 -57z" />
    <glyph glyph-name="Imacron" unicode="&#x12a;" horiz-adv-x="587" 
d="M408 0h-228v1434h228v-1434zM23 1567v176h532v-176h-532z" />
    <glyph glyph-name="imacron" unicode="&#x12b;" horiz-adv-x="507" 
d="M365 0h-222v985h222v-985zM45 1260v176h416v-176h-416z" />
    <glyph glyph-name="Ibreve" unicode="&#x12c;" horiz-adv-x="587" 
d="M408 0h-228v1434h228v-1434zM401 1847h152q0 -125 -74.5 -196.5t-187.5 -71.5q-72 0 -132.5 29.5t-98 92t-31.5 146.5h151q0 -54 30 -86t81 -32t80.5 32t29.5 86z" />
    <glyph glyph-name="ibreve" unicode="&#x12d;" horiz-adv-x="507" 
d="M365 0h-222v985h222v-985zM358 1430h152q0 -125 -74.5 -197t-187.5 -72q-72 0 -132.5 29.5t-98 92.5t-31.5 147h151q0 -54 30 -86.5t81 -32.5t80.5 32.5t29.5 86.5z" />
    <glyph glyph-name="Iogonek" unicode="&#x12e;" horiz-adv-x="589" 
d="M469 -139l111 -82q-38 -71 -118 -107.5t-162 -32.5t-150.5 51.5t-83.5 129.5q-7 25 -3.5 58.5t13.5 64t37.5 60t68.5 46.5v1385h228v-1434q-128 0 -162 -64q-23 -45 11 -88q36 -47 101 -41q55 6 109 54z" />
    <glyph glyph-name="iogonek" unicode="&#x12f;" horiz-adv-x="503" 
d="M360 1014h-210v-963q-47 -18 -76 -51t-38.5 -70.5t-7 -73.5t14.5 -67q31 -78 124.5 -115.5t195 -13.5t151.5 107l-111 81q-39 -37 -83.5 -46t-77.5 4.5t-49 41.5q-29 61 24 108t143 44v1014zM125 1307q0 49 27 82.5t65.5 41.5t77 0t65.5 -41.5t27 -82.5
q0 -42 -19.5 -72.5t-48.5 -44t-63 -13.5t-63 13.5t-48.5 44t-19.5 72.5z" />
    <glyph glyph-name="Idotaccent" unicode="&#x130;" horiz-adv-x="587" 
d="M180 0h228v1434h-228v-1434zM154 1714q0 49 27 82.5t65.5 41.5t77 0t65.5 -41.5t27 -82.5q0 -42 -19.5 -72.5t-48.5 -44t-63 -13.5t-63 13.5t-48.5 44t-19.5 72.5z" />
    <glyph glyph-name="dotlessi" unicode="&#x131;" horiz-adv-x="507" 
d="M365 0h-222v985h222v-985z" />
    <glyph glyph-name="IJ" unicode="&#x132;" horiz-adv-x="2031" 
d="M408 0h-228v1434h228v-1434zM1182 1434h690v-840q0 -278 -167.5 -449.5t-447.5 -171.5q-273 0 -442.5 162.5t-169.5 446.5h225q0 -189 100 -291.5t287 -102.5q183 0 284 111.5t101 294.5v627h-460v213z" />
    <glyph glyph-name="ij" unicode="&#x133;" horiz-adv-x="995" 
d="M354 1014h-211v-1014h211v1014zM119 1307q0 49 27 82.5t65.5 41.5t77 0t65.5 -41.5t27 -82.5q0 -42 -19.5 -72.5t-48.5 -44t-63 -13.5t-63 13.5t-48.5 44t-19.5 72.5zM852 1014h-211v-1133q0 -97 -23.5 -142t-93.5 -46q-56 -3 -129 31l-76 -166q100 -64 213 -64
q167 0 243.5 96.5t76.5 290.5v1133zM616 1311q0 61 41 95.5t90.5 34.5t90.5 -34.5t41 -95.5q0 -42 -19.5 -72.5t-48.5 -44t-63.5 -13.5t-63.5 13.5t-48.5 44t-19.5 72.5z" />
    <glyph glyph-name="Jcircumflex" unicode="&#x134;" horiz-adv-x="1443" 
d="M1284 1434h-690v-213h461v-627q0 -183 -101 -294.5t-284 -111.5q-187 0 -287 102.5t-100 291.5h-226q0 -284 170 -446.5t443 -162.5q280 0 447 171.5t167 449.5v840zM823 1878h121l299 -266v-13h-217l-143 117l-142 -117h-217v13z" />
    <glyph glyph-name="jcircumflex" unicode="&#x135;" horiz-adv-x="497" 
d="M354 1014h-211v-1133q0 -97 -23 -142t-93 -46q-56 -3 -129 31l-76 -166q100 -64 213 -64q167 0 243 96t76 291v1133zM199 1454h96l235 -264v-12h-186l-98 104l-99 -104h-184v12z" />
    <glyph glyph-name="Kcommaaccent" unicode="&#x136;" horiz-adv-x="1327" 
d="M1278 1434v-9l-657 -684l714 -727v-14h-286l-639 653v-653h-230v1434h230v-619l583 619h285zM836 -233q0 -9 -2 -18t-8.5 -30t-15 -44t-27 -75.5t-38.5 -109.5h-124l43 184q-38 8 -61 33.5t-23 65.5q0 30 14 54t36.5 37t50 19t55 0t50 -19t36.5 -38.5t14 -58.5z" />
    <glyph glyph-name="kcommaaccent" unicode="&#x137;" horiz-adv-x="1052" 
d="M143 1432h213v-836l375 414h256v-13l-436 -462l496 -521v-14h-259l-432 467v-467h-213v1432zM698 -233q0 -6 -0.5 -11.5t-3.5 -16t-6 -20.5t-10.5 -31.5t-14.5 -42t-20.5 -59.5t-26.5 -78h-112l41 173q-35 8 -56.5 31.5t-21.5 60.5q0 39 24 66.5t57.5 34t67.5 0t58 -35
t24 -71.5z" />
    <glyph glyph-name="kgreenlandic" unicode="&#x138;" horiz-adv-x="1052" 
d="M143 1010h213v-414l375 414h256v-13l-436 -462l496 -521v-14h-259l-432 467v-467h-213v1010z" />
    <glyph glyph-name="Lacute" unicode="&#x139;" horiz-adv-x="1202" 
d="M410 1434h-230v-1434h985v213h-755v1221zM584 1839v-8l-211 -256h-187v10l148 254h250z" />
    <glyph glyph-name="lacute" unicode="&#x13a;" horiz-adv-x="514" 
d="M362 1432h-210v-1432h210v1432zM532 1819v-9l-204 -245h-181v8l144 246h241z" />
    <glyph glyph-name="Lcommaaccent" unicode="&#x13b;" horiz-adv-x="1202" 
d="M180 1434h230v-1221h755v-213h-985v1434zM811 -254q0 -9 -1.5 -18t-8.5 -30t-15 -43t-27 -75.5t-38 -109.5h-125l43 184q-38 8 -61 33t-23 65q0 30 14 54t36.5 37t50 19t55 0t50 -19t36.5 -38.5t14 -58.5z" />
    <glyph glyph-name="lcommaaccent" unicode="&#x13c;" horiz-adv-x="514" 
d="M152 1432h210v-1432h-210v1432zM369 -221q0 -6 -0.5 -12t-3.5 -16l-6 -20t-10.5 -31t-14.5 -42t-20.5 -59.5t-26.5 -77.5h-111l39 172q-35 8 -55.5 31t-20.5 59q0 39 23.5 66.5t57.5 34t68 0t57.5 -34.5t23.5 -70z" />
    <glyph glyph-name="Lcaron" unicode="&#x13d;" horiz-adv-x="1202" 
d="M180 1434h230v-1221h755v-213h-985v1434zM709 1044l90 392h202l-137 -392h-155z" />
    <glyph glyph-name="lcaron" unicode="&#x13e;" horiz-adv-x="505" 
d="M152 1432h210v-1432h-210v1432zM440 1040l90 394h203l-137 -394h-156z" />
    <glyph glyph-name="Ldot" unicode="&#x13f;" horiz-adv-x="1202" 
d="M180 1434h230v-1221h755v-213h-985v1434zM664 676q0 43 20.5 74.5t50.5 46t66 14.5t66 -14.5t50.5 -46t20.5 -74.5t-20.5 -74.5t-50.5 -46t-66 -14.5t-66 14.5t-50.5 46t-20.5 74.5z" />
    <glyph glyph-name="ldot" unicode="&#x140;" horiz-adv-x="753" 
d="M152 1432h210v-1432h-210v1432zM492 635q0 51 28 86t68.5 43.5t81 0t68.5 -43.5t28 -86t-28 -86t-68.5 -43.5t-81 0t-68.5 43.5t-28 86z" />
    <glyph glyph-name="Lslash" unicode="&#x141;" horiz-adv-x="1216" 
d="M424 823l223 105v-180l-223 -103v-432h756v-213h-985v535l-156 -72v176l156 74v721h229v-611z" />
    <glyph glyph-name="lslash" unicode="&#x142;" horiz-adv-x="581" 
d="M543 883v-164l-150 -72v-647h-211v547l-135 -62v164l135 64v719h211v-621z" />
    <glyph glyph-name="Nacute" unicode="&#x143;" horiz-adv-x="1579" 
d="M1169 414l-813 1020h-176v-1434h232v1012l813 -1012h174v1434h-230v-1020zM1065 1841v-8l-219 -266h-195v10l156 264h258z" />
    <glyph glyph-name="nacute" unicode="&#x144;" horiz-adv-x="1249" 
d="M909 0h213v543q0 226 -122 354.5t-312 128.5q-197 0 -340 -162l-12 148h-193v-1012h211v528q0 127 79.5 215t203.5 88q129 0 200.5 -78.5t71.5 -211.5v-541zM893 1434v-9l-203 -258h-178v11l141 256h240z" />
    <glyph glyph-name="Ncommaaccent" unicode="&#x145;" horiz-adv-x="1579" 
d="M356 1434l813 -1020v1020h230v-1434h-174l-813 1012v-1012h-232v1434h176zM930 -254q0 -9 -1.5 -18t-8.5 -30t-15 -43t-27 -75.5t-38 -109.5h-125l43 184q-38 8 -61 33t-23 65q0 30 14 54t36.5 37t50 19t55 0t50 -19t36.5 -38.5t14 -58.5z" />
    <glyph glyph-name="ncommaaccent" unicode="&#x146;" horiz-adv-x="1249" 
d="M1122 0h-213v541q0 133 -71.5 211.5t-200.5 78.5q-124 0 -203.5 -88t-79.5 -215v-528h-211v1012h193l12 -148q143 162 340 162q190 0 312 -128.5t122 -354.5v-543zM754 -229q0 -6 -0.5 -11.5t-3.5 -16t-6 -20.5t-10.5 -31.5t-14.5 -43t-20.5 -61t-26.5 -79.5h-115l39 177
q-35 8 -56.5 31.5t-21.5 60.5q0 40 24.5 68t59 34.5t69 0t59 -36t24.5 -72.5z" />
    <glyph glyph-name="Ncaron" unicode="&#x147;" horiz-adv-x="1579" 
d="M1169 414l-813 1020h-176v-1434h232v1012l813 -1012h174v1434h-230v-1020zM453 1843v12h206l140 -120l145 120h201v-12l-289 -266h-119z" />
    <glyph glyph-name="ncaron" unicode="&#x148;" horiz-adv-x="1249" 
d="M909 0h213v543q0 226 -122 354.5t-312 128.5q-197 0 -340 -162l-12 148h-193v-1012h211v528q0 127 79.5 215t203.5 88q129 0 200.5 -78.5t71.5 -211.5v-541zM301 1432v12h203l137 -119l143 119h199v-12l-287 -263h-116z" />
    <glyph glyph-name="napostrophe" unicode="&#x149;" horiz-adv-x="1249" 
d="M1122 0h-213v541q0 133 -71.5 211.5t-200.5 78.5q-124 0 -203.5 -88t-79.5 -215v-528h-211v1012h193l12 -148q143 162 340 162q190 0 312 -128.5t122 -354.5v-543z" />
    <glyph glyph-name="Eng" unicode="&#x14a;" horiz-adv-x="1579" 
d="M356 1434l813 -1022v1022h230v-1481q2 -194 -75.5 -290.5t-244.5 -96.5q-114 0 -209 63l74 166q75 -34 127 -31q70 1 93.5 46.5t23.5 142.5v92l-776 967v-1012h-232v1434h176z" />
    <glyph glyph-name="eng" unicode="&#x14b;" horiz-adv-x="1249" 
d="M909 -53v594q0 133 -71.5 211.5t-200.5 78.5q-124 0 -203.5 -88t-79.5 -215v-528h-211v1012h193l12 -148q143 162 340 162q190 0 312 -128.5t122 -354.5v-596q0 -195 -76 -291t-243 -96q-106 0 -209 63l76 168q67 -36 125 -33q70 3 92 47t22 142z" />
    <glyph glyph-name="Omacron" unicode="&#x14c;" horiz-adv-x="1650" 
d="M829 1460q143 -1 263.5 -41.5t205.5 -111.5t144.5 -166t88 -203.5t28.5 -226.5t-28 -226t-87.5 -202.5t-144.5 -164t-207 -109.5t-267 -40t-267 41t-207 111t-144 164.5t-87 201.5t-28 222q0 216 93.5 387t262 267.5t381.5 96.5zM319 707q1 -78 19.5 -152t58.5 -143
t97.5 -120t142.5 -81.5t188 -30.5q129 0 228.5 43.5t158.5 118t89 167t30 198.5q0 102 -30 196t-89 172t-158 126t-225 50q-242 0 -376 -151t-134 -393zM520 1612v178h610v-178h-610z" />
    <glyph glyph-name="omacron" unicode="&#x14d;" horiz-adv-x="1204" 
d="M600 1030q152 0 272.5 -69.5t186 -189t65.5 -267.5q0 -227 -144.5 -375.5t-379.5 -148.5q-233 0 -376.5 148t-143.5 376q0 226 144.5 376t375.5 150zM600 836q-140 0 -224.5 -96.5t-84.5 -235.5q0 -140 84 -234t225 -94q142 0 226.5 94t84.5 234q0 137 -88 234.5
t-223 97.5zM305 1231v176h590v-176h-590z" />
    <glyph glyph-name="Obreve" unicode="&#x14e;" horiz-adv-x="1650" 
d="M829 1460q143 -1 263.5 -41.5t205.5 -111.5t144.5 -166t88 -203.5t28.5 -226.5t-28 -226t-87.5 -202.5t-144.5 -164t-207 -109.5t-267 -40t-267 41t-207 111t-144 164.5t-87 201.5t-28 222q0 216 93.5 387t262 267.5t381.5 96.5zM319 707q1 -78 19.5 -152t58.5 -143
t97.5 -120t142.5 -81.5t188 -30.5q129 0 228.5 43.5t158.5 118t89 167t30 198.5q0 102 -30 196t-89 172t-158 126t-225 50q-242 0 -376 -151t-134 -393zM969 1862h174q0 -119 -86 -187.5t-215 -68.5q-132 0 -223.5 68.5t-81.5 187.5h174q0 -53 35.5 -84t95.5 -31
q57 0 92 31.5t35 83.5z" />
    <glyph glyph-name="obreve" unicode="&#x14f;" horiz-adv-x="1204" 
d="M600 1030q152 0 272.5 -69.5t186 -189t65.5 -267.5q0 -227 -144.5 -375.5t-379.5 -148.5q-233 0 -376.5 148t-143.5 376q0 226 144.5 376t375.5 150zM600 836q-140 0 -224.5 -96.5t-84.5 -235.5q0 -140 84 -234t225 -94q142 0 226.5 94t84.5 234q0 137 -88 234.5
t-223 97.5zM727 1430h170q0 -128 -83.5 -201.5t-209.5 -73.5q-81 0 -149 30.5t-110 94.5t-36 150h170q0 -56 33.5 -89.5t91.5 -33.5q56 0 89.5 33.5t33.5 89.5z" />
    <glyph glyph-name="Ohungarumlaut" unicode="&#x150;" horiz-adv-x="1650" 
d="M829 1460q-213 0 -381.5 -96.5t-262 -267.5t-93.5 -387q0 -115 28 -222t87 -201.5t144 -164.5t207 -111t267 -41t267 40t207 109.5t144.5 164t87.5 202.5t28 226t-28.5 226.5t-88 203.5t-144.5 166t-205.5 111.5t-263.5 41.5zM319 707q0 242 134 393t376 151
q126 -2 225 -50t158 -126t89 -172t30 -196q0 -106 -30 -198.5t-89 -167t-158.5 -118t-228.5 -43.5q-103 0 -188 30.5t-142.5 81.5t-97.5 120t-58.5 143t-19.5 152zM1255 1864v-6l-198 -256h-172v2l166 260h204zM926 1866v-8l-197 -254h-174v2l166 260h205z" />
    <glyph glyph-name="ohungarumlaut" unicode="&#x151;" horiz-adv-x="1204" 
d="M600 1030q-231 0 -375.5 -150t-144.5 -376q0 -228 143.5 -376t376.5 -148q235 0 379.5 148.5t144.5 375.5q0 148 -65.5 267.5t-186 189t-272.5 69.5zM600 836q135 0 223 -97.5t88 -234.5q0 -140 -84.5 -234t-226.5 -94q-141 0 -225 94t-84 234q0 139 84.5 235.5
t224.5 96.5zM1018 1401v-4l-189 -223h-163l157 227h195zM702 1403v-6l-188 -223h-164v2l158 227h194z" />
    <glyph glyph-name="OE" unicode="&#x152;" horiz-adv-x="2064" 
d="M1954 207v-207h-920q-95 -27 -211 -27q-179 0 -320.5 59t-229.5 162t-133.5 237.5t-45.5 291.5t46 290t135 232.5t229.5 156t318.5 56.5q71 0 213 -24h910v-205h-701v-402h668v-204h-668v-416h709zM825 1266q-123 0 -220 -43t-157.5 -118.5t-92 -173.5t-31.5 -212
q0 -80 18 -156t55.5 -144.5t90.5 -121t129 -85.5t165 -38q136 -12 252 27v1028q-87 37 -209 37z" />
    <glyph glyph-name="oe" unicode="&#x153;" horiz-adv-x="1988" 
d="M1917 426h-811q12 -116 98 -185t223 -69q81 0 164.5 29.5t128.5 79.5l138 -134q-75 -83 -192.5 -127.5t-240.5 -44.5q-146 0 -256.5 60.5t-169.5 171.5q-133 -227 -399 -227q-233 0 -376.5 148t-143.5 376q0 226 144.5 377t375.5 151q133 0 242.5 -60.5t167.5 -168.5
q48 102 156.5 166.5t244.5 64.5q123 0 221.5 -37.5t167.5 -111.5t100 -191t17 -268zM600 836q-140 0 -224.5 -96.5t-84.5 -235.5q0 -140 84 -234t225 -94q142 0 225.5 94t83.5 234q0 137 -87 234.5t-222 97.5zM1104 604h610q-9 118 -88.5 181t-208.5 63q-119 0 -204 -63.5
t-109 -180.5z" />
    <glyph glyph-name="Racute" unicode="&#x154;" horiz-adv-x="1476" 
d="M1417 0l-24 41l-428 477q102 15 179.5 58t122 105t66 133t21.5 151q0 92 -33 175.5t-95 149.5t-160 105t-218 39q-112 0 -334 1t-334 1v-1436h230v496h303l436 -496h268zM410 1225h438q68 0 121.5 -23t85.5 -61t48.5 -84t16.5 -96q0 -109 -69.5 -182.5t-204.5 -73.5h-436
v520zM948 1864v-9l-205 -262h-182v11l146 260h241z" />
    <glyph glyph-name="racute" unicode="&#x155;" horiz-adv-x="901" 
d="M340 1010h-197v-1010h211v547q0 133 78.5 204.5t194.5 71.5q102 0 178 -61l96 184q-44 39 -111 62.5t-139 23.5q-95 0 -170.5 -33t-126.5 -122zM709 1432v-7l-191 -241h-170v8l135 240h226z" />
    <glyph glyph-name="Rcommaaccent" unicode="&#x156;" horiz-adv-x="1476" 
d="M1393 41l24 -41h-268l-436 496h-303v-496h-230v1436q112 0 334 -1t334 -1q120 0 218 -39t160 -105t95 -149.5t33 -175.5q0 -80 -21.5 -151t-66 -133t-122 -105t-179.5 -58zM848 1225h-438v-520h436q135 0 204.5 73.5t69.5 182.5q0 50 -16.5 96t-48.5 84t-85.5 61
t-121.5 23zM874 -254q0 -9 -1.5 -18t-8.5 -30t-15 -43t-27 -75.5t-38 -109.5h-125l43 184q-38 8 -61 33t-23 65q0 30 14 54t36.5 37t50 19t55 0t50 -19t36.5 -38.5t14 -58.5z" />
    <glyph glyph-name="rcommaaccent" unicode="&#x157;" horiz-adv-x="901" 
d="M143 1010h197l14 -133q51 89 126.5 122t170.5 33q72 0 139 -23.5t111 -62.5l-96 -184q-76 61 -178 61q-116 0 -194.5 -71.5t-78.5 -204.5v-547h-211v1010zM367 -242q0 -6 -0.5 -12t-3.5 -16.5l-6 -21t-10.5 -32l-15 -43t-21.5 -61.5t-27 -80h-117l41 178q-80 17 -80 94
q0 40 24.5 68t60 35t71 0.5t60 -36t24.5 -73.5z" />
    <glyph glyph-name="Rcaron" unicode="&#x158;" horiz-adv-x="1476" 
d="M1417 0l-24 41l-428 477q102 15 179.5 58t122 105t66 133t21.5 151q0 92 -33 175.5t-95 149.5t-160 105t-218 39q-112 0 -334 1t-334 1v-1436h230v496h303l436 -496h268zM410 1225h438q68 0 121.5 -23t85.5 -61t48.5 -84t16.5 -96q0 -109 -69.5 -182.5t-204.5 -73.5h-436
v520zM346 1843v12h207l139 -120l146 120h200v-12l-288 -266h-119z" />
    <glyph glyph-name="rcaron" unicode="&#x159;" horiz-adv-x="901" 
d="M340 1010h-197v-1010h211v547q0 133 78.5 204.5t194.5 71.5q102 0 178 -61l96 184q-44 39 -111 62.5t-139 23.5q-95 0 -170.5 -33t-126.5 -122zM170 1427v13h192l132 -119l137 119h186v-13l-270 -262h-113z" />
    <glyph glyph-name="Sacute" unicode="&#x15a;" horiz-adv-x="1351" 
d="M1036 1116l174 117q-152 242 -534 242q-102 0 -196.5 -23.5t-176.5 -70.5t-131.5 -129t-48.5 -189q0 -64 16.5 -117.5t43.5 -92.5t69.5 -71t87 -53t104.5 -38t113 -27t121 -19q65 -9 115.5 -20t99.5 -29.5t80.5 -43t51 -61t19.5 -81.5q0 -52 -21.5 -93.5t-56.5 -68
t-82.5 -44t-97.5 -25t-104 -7.5q-137 0 -255.5 56.5t-190.5 179.5l-173 -115q94 -174 247.5 -250t369.5 -76q93 0 177 15t160.5 48.5t132.5 84t89.5 126t34.5 169.5q0 67 -17 123.5t-45 98t-72 75.5t-91 56.5t-108.5 41t-117.5 29t-125 20.5q-64 9 -109.5 18.5t-93.5 25.5
t-77.5 36.5t-48.5 52.5t-19 72q0 101 92 159t240 58q113 -2 208 -44.5t146 -115.5zM956 1868v-8l-215 -271h-188v10l149 269h254z" />
    <glyph glyph-name="sacute" unicode="&#x15b;" horiz-adv-x="1021" 
d="M788 762l119 139q-82 73 -175 104t-214 31q-74 0 -145.5 -17.5t-134.5 -52t-101.5 -96t-38.5 -141.5q2 -264 412 -303q119 -11 176.5 -42.5t56.5 -96.5t-65.5 -98t-149.5 -33q-97 2 -192.5 39t-161.5 110l-111 -149q93 -105 208 -146t253 -41q194 0 311 88.5t119 231.5
q0 54 -14 98.5t-37 75.5t-58.5 55t-70.5 38.5t-82 25t-83.5 15.5t-82.5 9q-104 10 -161 39.5t-58 89.5q0 59 58.5 91t156.5 30q81 0 145 -21t121 -73zM762 1434v-9l-199 -249h-176v8l141 250h234z" />
    <glyph glyph-name="Scircumflex" unicode="&#x15c;" horiz-adv-x="1351" 
d="M1036 1116l174 117q-152 242 -534 242q-102 0 -196.5 -23.5t-176.5 -70.5t-131.5 -129t-48.5 -189q0 -64 16.5 -117.5t43.5 -92.5t69.5 -71t87 -53t104.5 -38t113 -27t121 -19q65 -9 115.5 -20t99.5 -29.5t80.5 -43t51 -61t19.5 -81.5q0 -52 -21.5 -93.5t-56.5 -68
t-82.5 -44t-97.5 -25t-104 -7.5q-137 0 -255.5 56.5t-190.5 179.5l-173 -115q94 -174 247.5 -250t369.5 -76q93 0 177 15t160.5 48.5t132.5 84t89.5 126t34.5 169.5q0 67 -17 123.5t-45 98t-72 75.5t-91 56.5t-108.5 41t-117.5 29t-125 20.5q-64 9 -109.5 18.5t-93.5 25.5
t-77.5 36.5t-48.5 52.5t-19 72q0 101 92 159t240 58q113 -2 208 -44.5t146 -115.5zM637 1909h123l301 -279v-12h-219l-144 123l-143 -123h-219v12z" />
    <glyph glyph-name="scircumflex" unicode="&#x15d;" horiz-adv-x="1021" 
d="M788 762l119 139q-82 73 -175 104t-214 31q-74 0 -145.5 -17.5t-134.5 -52t-101.5 -96t-38.5 -141.5q2 -264 412 -303q119 -11 176.5 -42.5t56.5 -96.5t-65.5 -98t-149.5 -33q-97 2 -192.5 39t-161.5 110l-111 -149q93 -105 208 -146t253 -41q194 0 311 88.5t119 231.5
q0 54 -14 98.5t-37 75.5t-58.5 55t-70.5 38.5t-82 25t-83.5 15.5t-82.5 9q-104 10 -161 39.5t-58 89.5q0 59 58.5 91t156.5 30q81 0 145 -21t121 -73zM483 1454h115l279 -258v-12h-203l-133 114l-133 -114h-205v12z" />
    <glyph glyph-name="Scedilla" unicode="&#x15e;" horiz-adv-x="1361" 
d="M432 -387l98 82q26 -35 81 -55.5t108.5 -10t68.5 59.5q11 36 -15.5 64t-71 32.5t-95.5 -16.5l-49 36l53 164q-408 24 -542 340l194 99q34 -78 102.5 -132.5t150 -79t171.5 -24.5q69 0 130 12.5t115 38.5t86 74t32 113q0 56 -27.5 97.5t-82 68t-114 42t-143.5 27.5
q-96 13 -168 28.5t-149 46.5t-126 74t-80.5 111.5t-31.5 157.5q-1 106 48.5 188t131.5 129.5t177 71t196 23.5q406 0 553 -275l-184 -96q-47 77 -146 122.5t-217 47.5q-148 0 -240 -58t-92 -159q0 -40 19 -71.5t48.5 -52t78 -36.5t93 -25t109.5 -18q72 -10 125.5 -20
t117 -27.5t109 -39t90 -55t72.5 -75.5t45 -99.5t17 -127.5q-1 -84 -28.5 -154t-74.5 -119t-112 -85t-138 -55.5t-155 -27.5l-25 -86q53 -1 94.5 -14.5t65 -36t39 -51t16 -59t-3.5 -60.5q-18 -82 -88 -126.5t-152.5 -46.5t-163 31t-120.5 93z" />
    <glyph glyph-name="scedilla" unicode="&#x15f;" horiz-adv-x="1024" 
d="M293 -356l84 80q24 -31 75 -50t101.5 -10t64.5 53q10 33 -15.5 59t-67.5 29.5t-89 -16.5l-45 35l52 149q-242 14 -390 183l111 149q66 -75 161 -111t193 -38q85 0 149.5 33t65.5 98t-56.5 96.5t-176.5 42.5q-79 7 -145.5 23.5t-129.5 49.5t-99.5 91.5t-37.5 138.5
q0 80 38.5 141.5t101.5 96t134.5 52t145.5 17.5q121 0 214 -31t175 -104l-119 -139q-57 52 -121 73t-145 21q-98 2 -156.5 -30t-58.5 -91q0 -41 28.5 -67t74 -37.5t104 -22t119.5 -18t119 -28.5t103 -51t72.5 -87t26.5 -135q-2 -130 -99 -215.5t-263 -100.5l-23 -77
q106 3 157.5 -46.5t49.5 -115.5q-3 -92 -61.5 -145.5t-136 -60t-158.5 23.5t-127 92z" />
    <glyph glyph-name="Scaron" unicode="&#x160;" horiz-adv-x="1351" 
d="M1036 1116l174 117q-152 242 -534 242q-102 0 -196.5 -23.5t-176.5 -70.5t-131.5 -129t-48.5 -189q0 -64 16.5 -117.5t43.5 -92.5t69.5 -71t87 -53t104.5 -38t113 -27t121 -19q65 -9 115.5 -20t99.5 -29.5t80.5 -43t51 -61t19.5 -81.5q0 -52 -21.5 -93.5t-56.5 -68
t-82.5 -44t-97.5 -25t-104 -7.5q-137 0 -255.5 56.5t-190.5 179.5l-173 -115q94 -174 247.5 -250t369.5 -76q93 0 177 15t160.5 48.5t132.5 84t89.5 126t34.5 169.5q0 67 -17 123.5t-45 98t-72 75.5t-91 56.5t-108.5 41t-117.5 29t-125 20.5q-64 9 -109.5 18.5t-93.5 25.5
t-77.5 36.5t-48.5 52.5t-19 72q0 101 92 159t240 58q113 -2 208 -44.5t146 -115.5zM326 1864v12h217l147 -127l154 127h211v-12l-305 -281h-125z" />
    <glyph glyph-name="scaron" unicode="&#x161;" horiz-adv-x="1021" 
d="M788 762l119 139q-82 73 -175 104t-214 31q-74 0 -145.5 -17.5t-134.5 -52t-101.5 -96t-38.5 -141.5q2 -264 412 -303q119 -11 176.5 -42.5t56.5 -96.5t-65.5 -98t-149.5 -33q-97 2 -192.5 39t-161.5 110l-111 -149q93 -105 208 -146t253 -41q194 0 311 88.5t119 231.5
q0 54 -14 98.5t-37 75.5t-58.5 55t-70.5 38.5t-82 25t-83.5 15.5t-82.5 9q-104 10 -161 39.5t-58 89.5q0 59 58.5 91t156.5 30q81 0 145 -21t121 -73zM197 1413v12h196l133 -116l140 116h190v-12l-276 -254h-113z" />
    <glyph glyph-name="Tcommaaccent" unicode="&#x162;" horiz-adv-x="1241" 
d="M506 0v1225h-471v209h1171v-209h-469v-1225h-75l-27 -92q55 -1 96.5 -14t65 -35t37.5 -50.5t14 -59.5t-4 -62q-14 -67 -61.5 -111t-110.5 -56.5t-129 -5.5t-124 40.5t-89 83.5l96 81q27 -42 84.5 -57.5t108 -0.5t61.5 52q11 38 -14.5 67.5t-69.5 33.5t-94 -19l-49 39z
" />
    <glyph glyph-name="tcommaaccent" unicode="&#x163;" horiz-adv-x="833" 
d="M256 1278l213 22v-292h295v-183h-297v-458q0 -189 145 -189q57 0 129 35l62 -180q-102 -45 -203 -45h-25l-26 -86q53 0 93.5 -12.5t63.5 -33.5t37.5 -47.5t15.5 -55.5t-3 -58q-15 -79 -75 -127t-134.5 -55.5t-154.5 24t-132 98.5l82 89q29 -38 85.5 -58t107 -7.5
t61.5 58.5q12 56 -48 81.5t-132 -7.5l-41 37l59 186q-178 74 -178 353v458h-195v183h195v270z" />
    <glyph glyph-name="Tcaron" unicode="&#x164;" horiz-adv-x="1241" 
d="M506 1227v-1227h231v1227h469v207h-1171v-207h471zM258 1868v12h217l148 -127l153 127h211v-12l-305 -281h-125z" />
    <glyph glyph-name="tcaron" unicode="&#x165;" horiz-adv-x="933" 
d="M250 1278l213 22v-292h207v-183h-209v-481q0 -166 145 -166q70 0 129 29l62 -174q-102 -45 -203 -45q-165 -5 -254.5 86.5t-89.5 269.5v481h-189v183h189v270zM750 940l88 385h198l-135 -385h-151z" />
    <glyph glyph-name="Tbar" unicode="&#x166;" horiz-adv-x="1255" 
d="M283 608v168h229v449h-471v209h1171v-209h-469v-449h238v-168h-238v-608h-231v608h-229z" />
    <glyph glyph-name="tbar" unicode="&#x167;" horiz-adv-x="833" 
d="M104 473v152h152v200h-195v183h195v270l213 22v-292h295v-183h-297v-200h223v-152h-223v-129q0 -166 145 -166q57 0 129 35l62 -180q-102 -45 -203 -45q-165 -5 -254.5 86.5t-89.5 269.5v129h-152z" />
    <glyph glyph-name="Utilde" unicode="&#x168;" horiz-adv-x="1538" 
d="M1149 1432h227v-838q0 -154 -48.5 -276t-134 -198t-198 -114t-243.5 -33q-122 3 -227.5 44t-187.5 116t-129.5 193.5t-47.5 267.5v838h227v-838q0 -190 100 -297t265 -113q176 -9 286.5 100.5t110.5 309.5v838zM586 1575l-119 67q30 90 88.5 135.5t140.5 26.5
q25 -6 69 -28.5t62 -28.5q95 -35 119 53l127 -51q-8 -57 -32.5 -97.5t-56.5 -57t-69.5 -22.5t-70.5 5q-25 7 -69.5 30t-61.5 29q-87 31 -127 -61z" />
    <glyph glyph-name="utilde" unicode="&#x169;" 
d="M127 1010h211v-541q0 -132 72 -211.5t202 -79.5q123 0 202 88.5t79 216.5v527h211v-1012h-191l-12 149q-141 -163 -348 -163q-190 0 -308 129t-118 354v543zM461 1229l-115 65q30 89 86 133.5t135 26.5q22 -6 63.5 -28t61.5 -29q93 -34 117 51l121 -49q-7 -56 -31 -95.5
t-55 -55.5t-67 -22t-68 5q-24 7 -66.5 29t-58.5 28q-87 28 -123 -59z" />
    <glyph glyph-name="Umacron" unicode="&#x16a;" horiz-adv-x="1538" 
d="M1149 1432h227v-838q0 -154 -48.5 -276t-134 -198t-198 -114t-243.5 -33q-122 3 -227.5 44t-187.5 116t-129.5 193.5t-47.5 267.5v838h227v-838q0 -190 100 -297t265 -113q176 -9 286.5 100.5t110.5 309.5v838zM483 1597v181h586v-181h-586z" />
    <glyph glyph-name="umacron" unicode="&#x16b;" 
d="M127 1010h211v-541q0 -132 72 -211.5t202 -79.5q123 0 202 88.5t79 216.5v527h211v-1012h-191l-12 149q-141 -163 -348 -163q-190 0 -308 129t-118 354v543zM344 1264v166h586v-166h-586z" />
    <glyph glyph-name="Ubreve" unicode="&#x16c;" horiz-adv-x="1538" 
d="M1149 1432h227v-838q0 -154 -48.5 -276t-134 -198t-198 -114t-243.5 -33q-122 3 -227.5 44t-187.5 116t-129.5 193.5t-47.5 267.5v838h227v-838q0 -190 100 -297t265 -113q176 -9 286.5 100.5t110.5 309.5v838zM907 1851h172q0 -132 -84.5 -208t-212.5 -76
q-82 0 -151 31.5t-111.5 97.5t-36.5 155h172q0 -57 34.5 -92t92.5 -35q57 0 91 35t34 92z" />
    <glyph glyph-name="ubreve" unicode="&#x16d;" 
d="M127 1010h211v-541q0 -132 72 -211.5t202 -79.5q123 0 202 88.5t79 216.5v527h211v-1012h-191l-12 149q-141 -163 -348 -163q-190 0 -308 129t-118 354v543zM756 1434h168q0 -128 -82 -201.5t-207 -73.5q-80 0 -147.5 30.5t-109.5 94.5t-36 150h168q0 -56 34 -89.5
t91 -33.5q55 0 88 33.5t33 89.5z" />
    <glyph glyph-name="Uring" unicode="&#x16e;" horiz-adv-x="1538" 
d="M1149 1432h227v-838q0 -154 -48.5 -276t-134 -198t-198 -114t-243.5 -33q-122 3 -227.5 44t-187.5 116t-129.5 193.5t-47.5 267.5v838h227v-838q0 -190 100 -297t265 -113q176 -9 286.5 100.5t110.5 309.5v838zM555 1720q0 101 69.5 157t170.5 56t173 -56.5t72 -156.5
t-70 -157.5t-173 -57.5t-172.5 58t-69.5 157zM795 1821q-53 0 -83 -30.5t-29.5 -67t30.5 -67t82 -30.5q54 0 84.5 30.5t29.5 67t-31.5 67t-82.5 30.5z" />
    <glyph glyph-name="uring" unicode="&#x16f;" 
d="M127 1010h211v-541q0 -132 72 -211.5t202 -79.5q123 0 202 88.5t79 216.5v527h211v-1012h-191l-12 149q-141 -163 -348 -163q-190 0 -308 129t-118 354v543zM397 1278q0 98 68 152.5t166 54.5q97 0 167 -55t70 -152t-68 -153t-167 -56q-100 0 -168 56t-68 153zM631 1376
q-51 0 -80 -29.5t-29 -65.5t29 -65.5t80 -29.5q52 0 81 29.5t28.5 65.5t-29.5 65.5t-80 29.5z" />
    <glyph glyph-name="Uhungarumlaut" unicode="&#x170;" horiz-adv-x="1538" 
d="M1376 1432h-227v-838q0 -200 -110.5 -309.5t-286.5 -100.5q-165 6 -265 113t-100 297v838h-227v-838q0 -149 47.5 -267.5t129.5 -193.5t187.5 -116t227.5 -44q131 -5 243.5 33t198 114t134 198t48.5 276v838zM1178 1843v-6l-201 -260h-172v2l166 264h207zM844 1845v-8
l-199 -258h-174v2l168 264h205z" />
    <glyph glyph-name="uhungarumlaut" unicode="&#x171;" 
d="M338 1010h-211v-543q0 -225 118 -354t308 -129q207 0 348 163l12 -149h191v1012h-211v-527q0 -128 -79 -216.5t-202 -88.5q-130 0 -202 79.5t-72 211.5v541zM1004 1436v-6l-191 -246h-164v2l158 250h197zM686 1438v-8l-188 -244h-166v2l157 250h197z" />
    <glyph glyph-name="Uogonek" unicode="&#x172;" horiz-adv-x="1538" 
d="M1149 1434h227v-803q0 -480 -354 -617h2q-43 -18 -66 -52.5t-22 -67.5t29.5 -57.5t78.5 -24.5q88 4 150 69l119 -90q-37 -64 -106.5 -104.5t-147.5 -48.5q-76 -7 -138 11.5t-98 55t-55 82.5t-14.5 95.5t30.5 92.5q-131 -2 -243.5 37t-198 114.5t-134 195.5t-48.5 272v840
h227v-840q0 -204 114.5 -312t293.5 -100q163 6 258.5 115t95.5 297v840z" />
    <glyph glyph-name="uogonek" unicode="&#x173;" 
d="M1137 -258l84 -107q-69 -65 -172 -85t-194 19t-120 132q-6 26 -8 56t10 64t31 63t57 53.5t88 35.5l-12 174q-141 -163 -348 -163q-200 0 -313 135.5t-113 376.5v514h211v-512q0 -149 66.5 -234.5t207.5 -85.5q123 0 202 88.5t79 216.5v527h211v-1125q-83 8 -154 -27
t-57 -98q4 -20 25.5 -37t53.5 -24.5t76.5 3t88.5 40.5z" />
    <glyph glyph-name="Wcircumflex" unicode="&#x174;" horiz-adv-x="2199" 
d="M1651 -2l512 1436h-256l-357 -1104l-379 1104h-147l-371 -1104l-364 1104h-256l520 -1436h201l188 504l158 483l157 -481l191 -506h203zM1038 1894h121l295 -272v-12h-215l-141 119l-140 -119h-215v12z" />
    <glyph glyph-name="wcircumflex" unicode="&#x175;" horiz-adv-x="1736" 
d="M961 1012h-183l-241 -795l-250 795h-238l357 -1016h245l119 336l100 352l99 -352l118 -336h246l355 1016h-236l-250 -795zM811 1454h117l291 -268v-10h-211l-138 116l-139 -116h-211v10z" />
    <glyph glyph-name="Ycircumflex" unicode="&#x176;" horiz-adv-x="1404" 
d="M700 801l-395 633h-272v-11l553 -835v-588h229v588l569 835v11h-276zM647 1884h117l289 -266v-12h-211l-137 118l-138 -118h-209v12z" />
    <glyph glyph-name="ycircumflex" unicode="&#x177;" horiz-adv-x="1142" 
d="M1110 1010h-236l-200 -482l-109 -282l-100 286l-174 478h-246l404 -996l-209 -483h233zM514 1454h115l280 -260v-12h-204l-134 114l-135 -114h-205v12z" />
    <glyph glyph-name="Ydieresis" unicode="&#x178;" horiz-adv-x="1404" 
d="M700 801l-395 633h-272v-11l553 -835v-588h229v588l569 835v11h-276zM340 1702q0 57 38 89t84 32t84 -32t38 -89t-38 -89t-84 -32t-84 32t-38 89zM809 1702q0 57 38 89t84 32t84 -32t38 -89t-38 -89t-84 -32t-84 32t-38 89z" />
    <glyph glyph-name="Zacute" unicode="&#x179;" 
d="M119 1434v-211h708l-774 -1094v-129h1112v219h-788l788 1110v105h-1046zM944 1853v-8l-225 -258h-201v10l160 256h266z" />
    <glyph glyph-name="zacute" unicode="&#x17a;" horiz-adv-x="976" 
d="M893 1010h-797v-193h488l-523 -731v-86h836v207h-512l508 704v99zM741 1432v-9l-200 -254h-179v9l142 254h237z" />
    <glyph glyph-name="Zdotaccent" unicode="&#x17b;" 
d="M119 1434v-211h708l-774 -1094v-129h1112v219h-788l788 1110v105h-1046zM506 1708q0 60 43 93.5t95 33.5t95 -33.5t43 -93.5q0 -48 -28.5 -81.5t-69 -41t-81 0t-69 41t-28.5 81.5z" />
    <glyph glyph-name="zdotaccent" unicode="&#x17c;" horiz-adv-x="976" 
d="M893 1010h-797v-193h488l-523 -731v-86h836v207h-512l508 704v99zM379 1323q0 49 28 82.5t68 41.5t80 0t68 -41.5t28 -82.5t-28 -82.5t-68 -41.5t-80 0t-68 41.5t-28 82.5z" />
    <glyph glyph-name="Zcaron" unicode="&#x17d;" 
d="M119 1434v-211h708l-774 -1094v-129h1112v219h-788l788 1110v105h-1046zM297 1864v12h217l148 -127l153 127h211v-12l-305 -281h-125z" />
    <glyph glyph-name="zcaron" unicode="&#x17e;" horiz-adv-x="976" 
d="M893 1010h-797v-193h488l-523 -731v-86h836v207h-512l508 704v99zM182 1421v13h195l133 -117l139 117h191v-13l-277 -254h-110z" />
    <glyph glyph-name="longs" unicode="&#x17f;" horiz-adv-x="647" 
d="M463 0h-213v811h-193v186h193v74q0 183 101.5 283t262.5 100q129 0 248 -80l-82 -157q-80 53 -153 53q-75 0 -119.5 -50.5t-44.5 -148.5v-1071z" />
    <glyph glyph-name="florin" unicode="&#x192;" horiz-adv-x="940" 
d="M299 -4v815h-193v186h193v74q0 183 102 283t263 100q128 0 247 -80l-82 -157q-80 53 -153 53q-75 0 -119.5 -50.5t-44.5 -148.5v-74h305v-186h-305v-815q0 -184 -98 -283.5t-260 -99.5q-112 0 -222 74l80 155q41 -27 66 -36t65 -9q74 0 115 50t41 149z" />
    <glyph glyph-name="Aringacute" unicode="&#x1fa;" horiz-adv-x="1568" 
d="M784 1788q-68 0 -122.5 -22.5t-86 -58t-45 -80.5t-5 -90t41.5 -87t86 -70l-637 -1380h248l135 301h768l136 -301h249l-639 1380q54 25 87.5 66t41.5 86t-5 91t-45 82.5t-86.5 59.5t-121.5 23zM1079 506h-592l154 350l143 320l140 -314zM782 1663q56 0 88.5 -28.5
t33.5 -63.5t-31.5 -63.5t-90.5 -28.5q-56 0 -88 28.5t-32.5 63.5t31.5 63.5t89 28.5zM1087 2023v-6l-225 -184h-198v6l157 184h266z" />
    <glyph glyph-name="aringacute" unicode="&#x1fb;" horiz-adv-x="1302" 
d="M948 850q-46 85 -140.5 133.5t-203.5 48.5q-147 0 -264 -60t-187.5 -181t-70.5 -285q0 -251 145 -393t373 -140q102 0 201 50t147 141l10 -164h201v1010h-205zM621 840q79 0 142.5 -29t103 -76t60.5 -107t21 -123t-21 -123t-60.5 -107t-103 -76t-142.5 -29
q-139 0 -233.5 91.5t-94.5 244.5q0 151 94.5 242.5t233.5 91.5zM408 1315q0 -90 65.5 -142.5t161.5 -52.5q97 0 163 52t66 143q0 90 -68.5 141t-162.5 51q-95 0 -160 -50.5t-65 -141.5zM633 1405q49 0 78 -27.5t29.5 -60.5t-28 -60.5t-79.5 -27.5q-49 0 -77.5 27.5
t-28.5 60.5t28 60.5t78 27.5zM913 1796v-6l-200 -203h-178v8l141 201h237z" />
    <glyph glyph-name="AEacute" unicode="&#x1fc;" horiz-adv-x="1869" 
d="M1759 0v207h-653v416h614v200h-614v410h643v201h-893l-901 -1434h258l211 344h473v-344h862zM897 549h-344l356 612h2l-14 -327v-285zM1333 1853v-8l-215 -272h-190v10l151 270h254z" />
    <glyph glyph-name="aeacute" unicode="&#x1fd;" horiz-adv-x="2072" 
d="M1993 426q26 140 -0.5 256.5t-93.5 193t-167 118.5t-221 42q-239 0 -364 -174v148h-189l-6 -160q-49 85 -143.5 133.5t-202.5 48.5q-148 0 -265.5 -60t-188 -181t-70.5 -285q0 -254 144 -393.5t374 -139.5q62 0 127.5 19t128 63t94.5 105l2 -160h187l6 145
q110 -170 354 -170q273 0 434 172l-127 129q-52 -53 -134.5 -80.5t-172.5 -27.5q-125 0 -216.5 68t-111.5 190h822zM623 840q81 0 147 -29t106 -76t62 -107t22 -123t-22 -123t-62 -107t-106 -76t-147 -29q-140 0 -234 91.5t-94 244.5q0 152 94 243t234 91zM1176 604
q24 116 117 180t214 64q131 0 211 -63t80 -181h-622zM1337 1436v-9l-198 -249h-176v8l141 250h233z" />
    <glyph glyph-name="Oslashacute" unicode="&#x1fe;" horiz-adv-x="1646" 
d="M827 1460q-143 0 -264.5 -41.5t-206.5 -113.5t-145 -168t-88.5 -204.5t-28.5 -223.5q0 -177 68 -333.5t198 -258.5l-159 -269h223l102 175q133 -54 301 -54q145 0 266.5 41.5t206 112t144 166t88 202t29.5 220.5q0 175 -69.5 334t-201.5 264l152 258h-223l-95 -162
q-135 55 -297 55zM827 180q-99 0 -188 29l537 909q79 -76 119 -184.5t38 -226.5q-1 -79 -19 -153t-58 -142.5t-97.5 -119.5t-143 -81.5t-188.5 -30.5zM827 1251q100 0 185 -32l-535 -906q-76 71 -115.5 176t-39.5 218q-2 81 15.5 158t57.5 147.5t98.5 123t144.5 84t189 31.5
zM1143 1866v-8l-215 -273h-191v10l152 271h254z" />
    <glyph glyph-name="oslashacute" unicode="&#x1ff;" horiz-adv-x="1204" 
d="M600 1030q-231 0 -375.5 -150t-144.5 -376q0 -127 47 -234t133 -176l-131 -221h203l80 135q89 -28 188 -28q235 0 379.5 148.5t144.5 375.5q0 123 -47 227.5t-133 175.5l129 217h-203l-75 -129q-90 35 -195 35zM600 836q39 0 90 -15l-319 -540q-80 86 -80 223
q0 139 84.5 235.5t224.5 96.5zM600 176q-51 0 -82 10l316 533q77 -90 77 -215q0 -140 -84.5 -234t-226.5 -94zM883 1432v-7l-193 -245h-172v8l137 244h228z" />
    <glyph glyph-name="Scommaaccent" unicode="&#x218;" horiz-adv-x="1351" 
d="M1210 1233l-174 -117q-51 73 -146 115.5t-208 44.5q-148 0 -240 -58t-92 -159q0 -40 19 -72t48.5 -52.5t77.5 -36.5t93.5 -25.5t109.5 -18.5q69 -10 125 -20.5t117.5 -29t108.5 -41t91 -56.5t72 -75.5t45 -98t17 -123.5q-1 -94 -34.5 -169.5t-89.5 -126t-132.5 -84
t-160.5 -48.5t-177 -15q-216 0 -369.5 76t-247.5 250l173 115q72 -123 190.5 -179.5t255.5 -56.5q54 0 104 7.5t97.5 25t82.5 44t56.5 68t21.5 93.5q0 45 -19.5 81.5t-51 61t-80.5 43t-99.5 29.5t-115.5 20q-68 9 -121 19t-113 27t-104.5 38t-87 53t-69.5 71t-43.5 92.5
t-16.5 117.5q-1 107 48.5 189t131.5 129t176.5 70.5t196.5 23.5q382 0 534 -242zM819 -266q0 -7 -1 -13t-4 -17t-6.5 -22t-11.5 -33.5l-16 -45t-22 -63.5t-29 -83h-125l43 185q-38 8 -61 33t-23 65q0 30 14 54t36.5 37t50 19t55 0t50 -19t36.5 -38.5t14 -58.5z" />
    <glyph glyph-name="scommaaccent" unicode="&#x219;" horiz-adv-x="1021" 
d="M907 901l-119 -139q-57 52 -121 73t-145 21q-98 2 -156.5 -30t-58.5 -91q1 -60 58 -89.5t161 -39.5q46 -4 82.5 -9t83.5 -15.5t82 -25t70.5 -38.5t58.5 -55t37 -75.5t14 -98.5q-2 -143 -119 -231.5t-311 -88.5q-138 0 -253 41t-208 146l111 149q66 -73 161.5 -110
t192.5 -39q85 0 149.5 33t65.5 98t-56.5 96.5t-176.5 42.5q-410 39 -412 303q0 80 38.5 141.5t101.5 96t134.5 52t145.5 17.5q121 0 214 -31t175 -104zM629 -276q0 -6 -0.5 -11.5t-3.5 -15.5t-6.5 -19.5t-10.5 -30t-14.5 -41.5t-21 -59t-27.5 -77h-117l41 170
q-36 6 -58 29.5t-22 60.5q0 39 24.5 65.5t60 33t71 0t60 -34.5t24.5 -70z" />
    <glyph glyph-name="uni021A" unicode="&#x21a;" horiz-adv-x="1241" 
d="M506 0v1227h-471v207h1171v-207h-469v-1227h-231zM745 -266q0 -7 -1 -13t-4 -17t-6.5 -22t-11.5 -33.5l-16 -45t-22 -63.5t-29 -83h-125l43 185q-38 8 -61 33t-23 65q0 30 14 54t36.5 37t50 19t55 0t50 -19t36.5 -38.5t14 -58.5z" />
    <glyph glyph-name="uni021B" unicode="&#x21b;" horiz-adv-x="833" 
d="M256 1278l213 22v-292h295v-183h-297v-481q0 -166 145 -166q57 0 129 35l62 -180q-102 -45 -203 -45q-165 -5 -254.5 86.5t-89.5 269.5v481h-195v183h195v270zM641 -266q0 -7 -1 -13t-4 -17t-6.5 -22t-11.5 -33.5l-16 -45t-22 -63.5t-29 -83h-125l43 185q-38 8 -61 33
t-23 65q0 30 14 54t36.5 37t50 19t55 0t50 -19t36.5 -38.5t14 -58.5z" />
    <glyph glyph-name="dotlessj" unicode="&#x237;" horiz-adv-x="497" 
d="M143 1014h211v-1133q0 -195 -76 -291t-243 -96q-113 0 -213 64l76 166q73 -34 129 -31q70 1 93 46t23 142v1133z" />
    <glyph glyph-name="circumflex" unicode="&#x2c6;" horiz-adv-x="862" 
d="M352 1456h123l301 -278v-13h-219l-143 123l-144 -123h-219v13z" />
    <glyph glyph-name="caron" unicode="&#x2c7;" horiz-adv-x="827" 
d="M43 1421v13h217l148 -127l153 127h211v-13l-305 -280h-125z" />
    <glyph glyph-name="breve" unicode="&#x2d8;" horiz-adv-x="681" 
d="M481 1430h172q0 -132 -84.5 -208.5t-212.5 -76.5q-82 0 -151 31.5t-111.5 98t-36.5 155.5h172q0 -57 34.5 -92t92.5 -35q57 0 91 35t34 92z" />
    <glyph glyph-name="dotaccent" unicode="&#x2d9;" horiz-adv-x="421" 
d="M45 1325q0 49 27 82.5t65.5 41.5t77 0t65.5 -41.5t27 -82.5q0 -42 -19.5 -72.5t-48.5 -44t-63 -13.5t-63 13.5t-48.5 44t-19.5 72.5z" />
    <glyph glyph-name="ring" unicode="&#x2da;" horiz-adv-x="673" 
d="M72 1229q0 112 74 173.5t182 61.5q107 0 184.5 -62t77.5 -173q0 -112 -75 -176t-185 -64q-109 0 -183.5 64.5t-74.5 175.5zM328 1339q-57 0 -89 -34t-31.5 -74.5t32.5 -74.5t88 -34q58 0 90.5 34t31.5 74.5t-33.5 74.5t-88.5 34z" />
    <glyph glyph-name="ogonek" unicode="&#x2db;" horiz-adv-x="833" 
d="M522 -276l103 -80q-36 -61 -99.5 -94.5t-138.5 -36.5q-103 -3 -178.5 41t-97.5 133q-9 36 -5.5 75.5t24 81t63.5 70t112 42t170 -2.5l31 -96q-56 13 -117 1t-96.5 -48.5t-18.5 -85.5q10 -30 43.5 -49t81.5 -13q71 8 123 62z" />
    <glyph glyph-name="tilde" unicode="&#x2dc;" horiz-adv-x="743" 
d="M182 1243l-125 68q31 92 93 138.5t149 27.5q27 -7 73 -30t66 -30q99 -34 127 53l135 -51q-9 -58 -35.5 -99t-60.5 -57.5t-73 -22.5t-74 5q-27 7 -75 30.5t-65 29.5q-92 31 -135 -62z" />
    <glyph glyph-name="hungarumlaut" unicode="&#x2dd;" horiz-adv-x="811" 
d="M764 1436v-6l-207 -269h-178v2l172 273h213zM420 1438v-8l-205 -267h-180v2l172 273h213z" />
    <glyph glyph-name="_375" unicode="&#x394;" horiz-adv-x="1566" 
d="M858 1434l686 -1434h-1536l684 1434h166zM776 1120l-463 -938h914z" />
    <glyph glyph-name="_376" unicode="&#x3a9;" horiz-adv-x="1640" 
d="M782 1251q-124 0 -224 -44.5t-161.5 -119.5t-94 -167.5t-32.5 -192.5q-1 -114 37.5 -218t121.5 -187t198 -119v-203h-514v197h204q-139 86 -204.5 229.5t-65.5 314.5q0 149 53 280.5t147.5 228.5t233 153.5t301.5 56.5q218 0 387.5 -96.5t260 -260t90.5 -362.5
q0 -356 -271 -544h205v-197h-514v203q114 36 196 119t121 187t39 218q-1 101 -33.5 193t-94.5 167t-162 119.5t-224 44.5z" />
    <glyph glyph-name="pi" unicode="&#x3c0;" horiz-adv-x="1396" 
d="M485 0h-211v825h-221v185h1274v-185h-223v-506q0 -92 41 -134t141 -21l19 -170q-203 -38 -307.5 45t-104.5 276v510h-408v-825z" />
    <glyph glyph-name="Wgrave" unicode="&#x1e80;" horiz-adv-x="2199" 
d="M2163 1434l-512 -1436h-203l-191 506l-157 481l-158 -483l-188 -504h-201l-520 1436h256l364 -1104l371 1104h147l379 -1104l357 1104h256zM821 1839v8h250l150 -252v-8h-189z" />
    <glyph glyph-name="wgrave" unicode="&#x1e81;" horiz-adv-x="1736" 
d="M778 1012h183l241 -795l250 795h236l-355 -1016h-246l-118 336l-99 352l-100 -352l-119 -336h-245l-357 1016h238l250 -795zM598 1430v8h238l143 -242v-8h-178z" />
    <glyph glyph-name="Wacute" unicode="&#x1e82;" horiz-adv-x="2199" 
d="M1651 -2l512 1436h-256l-357 -1104l-379 1104h-147l-371 -1104l-364 1104h-256l520 -1436h201l188 504l158 483l157 -481l191 -506h203zM1378 1847v-8l-215 -250h-188v8l151 250h252z" />
    <glyph glyph-name="wacute" unicode="&#x1e83;" horiz-adv-x="1736" 
d="M961 1012h-183l-241 -795l-250 795h-238l357 -1016h245l119 336l100 352l99 -352l118 -336h246l355 1016h-236l-250 -795zM1147 1432v-7l-205 -237h-178v10l141 234h242z" />
    <glyph glyph-name="Wdieresis" unicode="&#x1e84;" horiz-adv-x="2199" 
d="M1651 -2l512 1436h-256l-357 -1104l-379 1104h-147l-371 -1104l-364 1104h-256l520 -1436h201l188 504l158 483l157 -481l191 -506h203zM725 1702q0 60 39.5 93.5t87.5 33.5t87.5 -33.5t39.5 -93.5t-39.5 -93.5t-87.5 -33.5t-87.5 33.5t-39.5 93.5zM1217 1702
q0 48 26.5 80.5t64 40.5t75 0t64 -40.5t26.5 -80.5q0 -60 -40 -93.5t-88 -33.5t-88 33.5t-40 93.5z" />
    <glyph glyph-name="wdieresis" unicode="&#x1e85;" horiz-adv-x="1736" 
d="M961 1012h-183l-241 -795l-250 795h-238l357 -1016h245l119 336l100 352l99 -352l118 -336h246l355 1016h-236l-250 -795zM522 1337q0 37 17.5 64.5t43.5 40t57 12.5t57 -12.5t43.5 -40t17.5 -64.5q0 -45 -24.5 -76t-59 -38t-69 0t-59 38t-24.5 76zM979 1337
q0 55 37 86.5t82 31.5t82 -31.5t37 -86.5q0 -45 -24.5 -76t-59.5 -38t-70 0t-59.5 38t-24.5 76z" />
    <glyph glyph-name="Ygrave" unicode="&#x1ef2;" horiz-adv-x="1404" 
d="M305 1434l395 -633l408 633h276v-11l-569 -835v-588h-229v588l-553 835v11h272zM426 1847v6h233l140 -254v-8h-174z" />
    <glyph glyph-name="ygrave" unicode="&#x1ef3;" horiz-adv-x="1142" 
d="M874 1010h236l-637 -1479h-233l209 483l-404 996h246l174 -478l100 -286l109 282zM332 1430v8h227l137 -250v-8h-172z" />
    <glyph glyph-name="endash" unicode="&#x2013;" horiz-adv-x="1220" 
d="M133 494v186h954v-186h-954z" />
    <glyph glyph-name="emdash" unicode="&#x2014;" horiz-adv-x="1423" 
d="M133 494v188h1157v-188h-1157z" />
    <glyph glyph-name="quoteleft" unicode="&#x2018;" horiz-adv-x="503" 
d="M416 1436l-97 -430h-223l150 430h170z" />
    <glyph glyph-name="quoteright" unicode="&#x2019;" horiz-adv-x="495" 
d="M106 1001l99 433h221l-150 -433h-170z" />
    <glyph glyph-name="quotesinglbase" unicode="&#x201a;" horiz-adv-x="526" 
d="M68 -250l96 432h223l-149 -432h-170z" />
    <glyph glyph-name="quotedblleft" unicode="&#x201c;" horiz-adv-x="837" 
d="M748 1432l-99 -433h-207l136 433h170zM424 1432l-107 -433h-215l152 433h170z" />
    <glyph glyph-name="quotedblright" unicode="&#x201d;" horiz-adv-x="811" 
d="M106 1006l99 428h207l-136 -428h-170zM432 1006l96 428h209l-135 -428h-170z" />
    <glyph glyph-name="quotedblbase" unicode="&#x201e;" horiz-adv-x="860" 
d="M68 -250l96 432h223l-149 -432h-170zM401 -250l97 432h223l-150 -432h-170z" />
    <glyph glyph-name="dagger" unicode="&#x2020;" horiz-adv-x="1189" 
d="M711 1432v-388h409v-194h-409v-1096h-232v1096h-409v194h409v388h232z" />
    <glyph glyph-name="daggerdbl" unicode="&#x2021;" horiz-adv-x="1271" 
d="M750 1432v-385h411v-193h-411v-481h411v-193h-411v-440h-228v440h-411v193h411v481h-411v193h411v385h228z" />
    <glyph glyph-name="bullet" unicode="&#x2022;" horiz-adv-x="804" 
d="M403 395q-102 0 -169.5 64t-67.5 166q0 103 67.5 168t169.5 65q101 0 167.5 -65t66.5 -168q0 -102 -66.5 -166t-167.5 -64z" />
    <glyph glyph-name="ellipsis" unicode="&#x2026;" horiz-adv-x="1374" 
d="M119 113q0 61 40.5 95.5t89.5 34.5t89.5 -34.5t40.5 -95.5q0 -50 -27 -83.5t-65 -41.5t-76 0t-65 41.5t-27 83.5zM557 113q0 49 27 82.5t65.5 41.5t77 0t65.5 -41.5t27 -82.5q0 -50 -27 -83.5t-65.5 -41.5t-77 0t-65.5 41.5t-27 83.5zM995 113q0 61 40.5 95.5t89.5 34.5
t89.5 -34.5t40.5 -95.5q0 -50 -27 -83.5t-65 -41.5t-76 0t-65 41.5t-27 83.5z" />
    <glyph glyph-name="perthousand" unicode="&#x2030;" horiz-adv-x="2285" 
d="M401 1452q78 0 141 -27t101.5 -70.5t59.5 -99.5t21 -114.5t-21 -114.5t-59.5 -99.5t-101.5 -70.5t-141 -27q-77 0 -140 27t-101.5 70.5t-59 99.5t-20.5 114.5t20.5 114.5t59 99.5t101.5 70.5t140 27zM1133 1438h202l-925 -1438h-205zM399 1300q-44 0 -78.5 -17.5
t-52.5 -45.5t-26 -61.5t0.5 -67.5t27 -62t53.5 -45.5t80 -17.5q44 0 78 17.5t51.5 45.5t26 62t-0.5 67.5t-27 61.5t-53 45.5t-79 17.5zM1133 608q78 0 141 -26.5t101.5 -70.5t59.5 -100t21 -114t-21 -114t-59.5 -100t-101.5 -70.5t-141 -26.5q-77 0 -140 26.5t-101.5 70.5
t-59 100t-20.5 114t20.5 114t59 100t101.5 70.5t140 26.5zM1130 457q-44 0 -78.5 -17.5t-52.5 -45.5t-26 -62t1 -68t27.5 -62t53.5 -45.5t80 -17.5q44 0 78 17.5t51.5 45.5t25.5 62t-1 68t-27 62t-53 45.5t-79 17.5zM1894 608q78 0 141 -26.5t101.5 -70.5t59.5 -100t21 -114
t-21 -114t-59.5 -100t-101.5 -70.5t-141 -26.5q-77 0 -140 26.5t-101.5 70.5t-59 100t-20.5 114t20.5 114t59 100t101.5 70.5t140 26.5zM1892 457q-44 0 -78.5 -17.5t-52.5 -45.5t-26 -62t0.5 -68t27 -62t53.5 -45.5t80 -17.5q44 0 78 17.5t51.5 45.5t26 62t-0.5 68t-27 62
t-53 45.5t-79 17.5z" />
    <glyph glyph-name="guilsinglleft" unicode="&#x2039;" horiz-adv-x="675" 
d="M78 608l284 451h228v-2l-283 -449q57 -93 283 -454h-228z" />
    <glyph glyph-name="guilsinglright" unicode="&#x203a;" horiz-adv-x="677" 
d="M313 1061l285 -451l-285 -454h-225l281 454l-281 449v2h225z" />
    <glyph glyph-name="fraction" unicode="&#x2044;" horiz-adv-x="327" 
d="M463 1446h190l-786 -1454h-189z" />
    <glyph glyph-name="zerosuperior" unicode="&#x2070;" horiz-adv-x="811" 
d="M236 1366v-111q0 -49 18.5 -88t47.5 -59t65 -29.5t71.5 -0.5t64.5 29t47.5 59t18.5 89v111q0 51 -18.5 90.5t-47.5 60.5t-65 30.5t-71.5 0t-64.5 -30t-47.5 -60.5t-18.5 -91zM80 1257v111q0 80 28 144t73.5 103.5t104 61t120 21.5t120 -21.5t104 -61t73.5 -104t28 -143.5
v-111q0 -80 -28 -144.5t-73.5 -104.5t-104 -61.5t-120 -21.5t-120 21.5t-104 61.5t-73.5 104.5t-28 144.5z" />
    <glyph glyph-name="foursuperior" unicode="&#x2074;" horiz-adv-x="774" 
d="M397 1686h211v-465h92v-140h-92v-141h-157v141h-394l-8 133zM451 1221v313l-234 -313h234z" />
    <glyph glyph-name="fivesuperior" unicode="&#x2075;" horiz-adv-x="745" 
d="M635 1686v-142h-389v-123h129q138 0 222 -61.5t83 -188.5q0 -122 -84.5 -186.5t-214.5 -64.5q-85 0 -150 21t-109.5 75.5t-45.5 138.5h157q1 -47 41 -68.5t101 -21.5q68 0 105.5 27t37.5 79t-35.5 81.5t-107.5 29.5h-285v404h545z" />
    <glyph glyph-name="sixsuperior" unicode="&#x2076;" horiz-adv-x="772" 
d="M391 1065q62 0 105 25t43 77q0 54 -42 81.5t-104 27.5q-63 0 -105.5 -28t-41.5 -79q0 -53 41 -78.5t104 -25.5zM393 1411q61 0 112 -11.5t96 -37.5t71 -76t26 -119q0 -82 -46.5 -138t-113.5 -79.5t-147 -23.5q-79 0 -146 25t-113 82t-46 136v285q0 79 44.5 135.5
t110.5 81.5t144 25q84 0 150 -21t109 -70.5t44 -121.5h-160q-9 73 -141 73q-62 0 -101.5 -24.5t-39.5 -77.5v-96q25 25 66.5 39t80.5 14z" />
    <glyph glyph-name="sevensuperior" unicode="&#x2077;" horiz-adv-x="655" 
d="M287 938h-181l310 604h-359v144h559l9 -70z" />
    <glyph glyph-name="eightsuperior" unicode="&#x2078;" horiz-adv-x="792" 
d="M238 1147q0 -44 45.5 -72t113.5 -28q66 0 111.5 28.5t44.5 71.5q0 49 -46 76.5t-110 27.5q-66 0 -112.5 -26.5t-46.5 -77.5zM76 1147q0 54 34 101.5t93 68.5q-51 20 -80 61t-29 92q0 110 87.5 167t213.5 57q80 0 147 -22t112.5 -74.5t45.5 -127.5q0 -105 -108 -149
q58 -21 91.5 -70t33.5 -104q1 -64 -26 -111.5t-74.5 -73.5t-102.5 -38.5t-119 -12.5q-62 0 -116.5 12.5t-101.5 38.5t-74.5 73.5t-26.5 111.5zM254 1468q0 -45 39 -68.5t104 -23.5q62 0 101 24t39 68q1 47 -41.5 71t-100.5 24q-57 0 -99.5 -24.5t-41.5 -70.5z" />
    <glyph glyph-name="ninesuperior" unicode="&#x2079;" horiz-adv-x="774" 
d="M381 1559q-60 0 -102.5 -25.5t-42.5 -77.5q0 -54 40.5 -81t102.5 -27q63 0 106 27.5t43 78.5q0 53 -42 79t-105 26zM379 1212q-47 0 -88.5 6.5t-82 24t-69.5 44t-47 70t-18 99.5q0 62 27 110t72 76t98 42t110 14q79 0 146.5 -25.5t113 -82.5t45.5 -136v-285
q0 -79 -44.5 -135.5t-110 -81t-144.5 -24.5q-130 0 -215 53.5t-88 159.5h160q9 -74 141 -74q62 0 101.5 24.5t39.5 77.5v97q-25 -25 -66.5 -39.5t-80.5 -14.5z" />
    <glyph glyph-name="zeroinferior" unicode="&#x2080;" horiz-adv-x="811" 
d="M236 254v-113q0 -49 18.5 -87.5t47.5 -58.5t65 -29.5t71.5 0t64.5 29t47.5 58.5t18.5 88v113q0 51 -18.5 90.5t-47.5 60.5t-65 30.5t-71.5 0t-64.5 -30t-47.5 -60.5t-18.5 -91zM80 145v109q0 80 28 144t73.5 103.5t104 61t120 21.5t120 -21.5t104 -61t73.5 -103.5
t28 -144v-109q0 -80 -28 -144.5t-73.5 -104.5t-104 -61.5t-120 -21.5t-120 21.5t-104 61.5t-73.5 104.5t-28 144.5z" />
    <glyph glyph-name="oneinferior" unicode="&#x2081;" horiz-adv-x="544" 
d="M74 -174v139h127v428l-109 -24v137l268 67v-608h134v-139h-420z" />
    <glyph glyph-name="twoinferior" unicode="&#x2082;" horiz-adv-x="753" 
d="M242 356h-158q0 59 25 104.5t67 72t91.5 40t103.5 13.5q65 0 119 -13t96.5 -40t66 -73.5t23.5 -109.5q0 -59 -18.5 -102t-49.5 -65t-70 -37t-80 -20t-80 -13t-70 -16.5t-49.5 -29.5t-18.5 -53v-32h426q0 -26 -1 -78t-1 -78h-584v188q0 62 24 105t62 64.5t84 34.5t92 21.5
t84 19t62 33t24 58.5q0 96 -139 96q-128 0 -131 -90z" />
    <glyph glyph-name="threeinferior" unicode="&#x2083;" horiz-adv-x="759" 
d="M377 152h-117v124h109q65 0 101.5 19t37.5 70q0 31 -33 60.5t-106 29.5q-134 0 -148 -88h-141q0 57 26 101.5t68.5 70t92.5 38.5t104 13q75 0 140 -23t110.5 -76t46.5 -126q0 -52 -28 -95t-77 -57q56 -16 88.5 -62t32.5 -96q0 -65 -28.5 -113.5t-76 -74.5t-100 -38.5
t-110.5 -12.5q-56 0 -107.5 12.5t-95.5 38.5t-70.5 72.5t-27.5 107.5h165q15 -86 140 -86q59 0 102 21.5t43 70.5q0 41 -33 70t-108 29z" />
    <glyph glyph-name="fourinferior" unicode="&#x2084;" horiz-adv-x="770" 
d="M397 571h211v-465h86v-141h-86v-139h-157v139h-394l-8 135zM451 106v312l-234 -312h234z" />
    <glyph glyph-name="fiveinferior" unicode="&#x2085;" horiz-adv-x="745" 
d="M635 575v-139h-389v-123h129q138 0 222 -62t83 -190q0 -121 -84.5 -185t-214.5 -64q-62 0 -114.5 12.5t-96 38.5t-68.5 72.5t-26 109.5h157q1 -47 41 -68.5t101 -21.5q68 0 105.5 27.5t37.5 78.5q0 52 -35.5 81.5t-107.5 29.5h-285v403h545z" />
    <glyph glyph-name="sixinferior" unicode="&#x2086;" horiz-adv-x="778" 
d="M397 -45q62 0 105 25.5t43 78.5q0 52 -42 79.5t-104 27.5q-63 0 -105.5 -28t-41.5 -79q0 -53 41 -78.5t104 -25.5zM399 301q61 0 112 -11t96.5 -37t71.5 -75.5t26 -118.5q0 -62 -26.5 -110t-71.5 -76.5t-98.5 -42.5t-111.5 -14q-79 0 -146 25t-113 82.5t-46 137.5v283
q0 79 44.5 135.5t110.5 81.5t144 25q84 0 150 -21t109 -70.5t44 -121.5h-159q-4 37 -42 56.5t-100 19.5q-61 0 -101 -26t-40 -79v-96q25 26 66 39.5t81 13.5z" />
    <glyph glyph-name="seveninferior" unicode="&#x2087;" horiz-adv-x="657" 
d="M287 -174h-181l310 602h-359v143h559l9 -67z" />
    <glyph glyph-name="eightinferior" unicode="&#x2088;" horiz-adv-x="794" 
d="M242 47q-1 -44 44 -73t113 -29q66 0 112 28.5t46 73.5q0 47 -47 76t-109 29q-67 0 -113 -27t-46 -78zM78 47q0 54 34.5 101t94.5 67q-51 20 -81 62t-30 94q0 110 87.5 166.5t213.5 56.5q81 0 148 -22.5t112 -74.5t45 -126q0 -109 -108 -152q58 -19 92.5 -69t34.5 -103
q0 -64 -27.5 -111.5t-75 -74t-103 -38.5t-118.5 -11q-62 0 -116.5 12t-101.5 38t-74.5 73.5t-26.5 111.5zM256 369q1 -46 39.5 -69.5t103.5 -23.5q64 0 102.5 23.5t39.5 69.5q0 46 -43.5 70t-100.5 24t-99.5 -24t-41.5 -70z" />
    <glyph glyph-name="nineinferior" unicode="&#x2089;" horiz-adv-x="776" 
d="M381 444q-61 0 -103 -25t-42 -77q0 -54 40.5 -81.5t102.5 -27.5q63 0 106 28t43 79q0 53 -42 78.5t-105 25.5zM379 98q-47 0 -88.5 6.5t-82 24t-69.5 44t-47 70t-18 99.5q0 62 27 110t72 76t98 42t110 14q79 0 146.5 -25.5t113 -82.5t45.5 -136v-285q0 -79 -44.5 -135.5
t-110 -81t-144.5 -24.5q-130 0 -215 53.5t-88 159.5h160q9 -74 141 -74q62 0 101.5 24.5t39.5 77.5v97q-25 -25 -66.5 -39.5t-80.5 -14.5z" />
    <glyph glyph-name="Euro" unicode="&#x20ac;" horiz-adv-x="1255" 
d="M1118 221l64 -213q-115 -37 -250 -37q-301 0 -475.5 137.5t-231.5 376.5h-137v172h113v50q0 41 2 61h-115v174h141q28 113 84.5 205t141.5 162.5t207 109.5t270 39q108 0 217 -31l-70 -204q-63 18 -147 18q-181 0 -298.5 -79.5t-170.5 -219.5h489l-39 -174h-499
q-2 -18 -2 -59q0 -38 2 -52h467l-35 -172h-387q49 -140 168 -219.5t305 -79.5q93 0 186 35z" />
    <glyph glyph-name="afii61289" unicode="&#x2113;" horiz-adv-x="811" 
d="M412 496v-195q0 -90 76 -126t190 -9v-141q-78 -26 -147.5 -32t-129.5 10.5t-103.5 55.5t-68 109t-24.5 166l-101 -49l-28 94q72 30 127 61v682q0 187 69.5 264.5t249.5 77.5q55 0 97.5 -16t68.5 -45.5t42 -66t21.5 -82.5t4.5 -90.5t-8 -94.5q-19 -159 -110 -305
t-226 -268zM406 1122q0 -53 -1.5 -230.5t-1.5 -254.5q92 105 162 224t84 226q3 30 5 48.5t2.5 50t-3 52.5t-12 45.5t-22.5 39.5t-38 25t-55 10q-39 0 -67 -35.5t-40.5 -88t-12.5 -112.5z" />
    <glyph glyph-name="uni2117" unicode="&#x2117;" horiz-adv-x="1685" 
d="M842 1464q173 0 315 -59.5t234 -162t142 -237.5t50 -288t-50 -288t-142 -238t-234 -162.5t-315 -59.5t-314.5 59.5t-233.5 162.5t-142 238t-50 288t50 288t142 237.5t233.5 162t314.5 59.5zM291 717q1 -164 64.5 -293.5t190 -207t296.5 -77.5q129 0 234 44.5t174 123
t106 183.5t37 227t-37 227.5t-106 183.5t-174 123t-234 45q-128 0 -233 -45t-173.5 -123t-106 -183.5t-38.5 -227.5zM750 553h182q68 0 122.5 23t87 61t50 86t17 98.5t-19 98.5t-52 86t-87 61t-118.5 23h-357v-760h175v223zM750 932h182q13 0 22 -6q44 -6 66.5 -42
t19.5 -75.5t-32 -71.5t-78 -32h-180v227z" />
    <glyph glyph-name="trademark" unicode="&#x2122;" horiz-adv-x="1660" 
d="M809 1434h154l192 -246l197 246h151v-594h-162l7 354q-23 -30 -85 -105t-92 -114h-34l-174 227l6 -362h-160v594zM332 1296h-205v138h563v-138h-201v-454h-157v454z" />
    <glyph glyph-name="Omega" unicode="&#x2126;" horiz-adv-x="1669" 
d="M834 1251q-124 0 -224 -44.5t-161.5 -119.5t-94 -167.5t-32.5 -192.5q-1 -114 37.5 -218t121 -187t197.5 -119v-203h-514v197h205q-139 86 -205 229.5t-66 314.5q0 149 53 280.5t147.5 228.5t233.5 153.5t302 56.5q164 0 303 -56.5t233.5 -153.5t147.5 -228.5t53 -280.5
q0 -356 -271 -544h205v-197h-514v203q114 36 196.5 119t121.5 187t39 218q-1 101 -33.5 193t-94.5 167t-162 119.5t-224 44.5z" />
    <glyph glyph-name="estimated" unicode="&#x212e;" horiz-adv-x="1300" 
d="M668 -14q-115 0 -214 39.5t-174 114t-118 191t-43 261.5q0 147 42.5 264t117.5 191t173.5 113.5t213.5 39.5q95 0 176.5 -20.5t154.5 -69.5t121.5 -123t72 -188.5t11.5 -259.5h-823v-349q117 -108 289 -108q126 0 222 44t167 146l76 -59q-88 -125 -201 -176t-264 -51z
M666 1104q-179 0 -287 -94v-375h579v381q-113 88 -292 88z" />
    <glyph glyph-name="onethird" unicode="&#x2153;" horiz-adv-x="1589" 
d="M96 696v140h127v428l-110 -27v137l270 68v-606h131v-140h-418zM1210 324h-114v125h106q66 0 102 18.5t37 69.5q0 31 -33 60.5t-104 29.5q-133 0 -147 -88h-142q0 58 25.5 102t68 69.5t93 38.5t104.5 13q74 0 139 -23t110.5 -76t45.5 -126q0 -52 -27 -95t-75 -57
q56 -16 88.5 -62t32.5 -96q0 -65 -28.5 -113.5t-76.5 -74.5t-101.5 -38.5t-111.5 -12.5q-44 0 -85.5 7.5t-81 25t-68.5 43.5t-47 66t-19 89h166q15 -86 141 -86q57 0 100.5 21.5t43.5 70.5q0 41 -33.5 70t-108.5 29zM1040 1446h185l-787 -1454h-182z" />
    <glyph glyph-name="twothirds" unicode="&#x2154;" horiz-adv-x="1753" 
d="M1372 324h-117v125h109q66 0 102 18.5t37 69.5q0 32 -33 61t-104 29q-133 0 -147 -88h-144q0 57 26 101.5t68.5 70t92.5 38.5t104 13q74 0 139.5 -23t111.5 -76t46 -126q0 -52 -27 -95t-75 -57q55 -17 87.5 -62.5t32.5 -95.5q0 -65 -29 -113.5t-77 -74.5t-100.5 -38.5
t-110.5 -12.5q-56 0 -107.5 12.5t-95.5 38.5t-70.5 72.5t-27.5 107.5h166q15 -86 139 -86q59 0 102 21.5t43 70.5q0 41 -33 70t-108 29zM1200 1446h186l-788 -1454h-182zM260 1223h-160q1 59 26 104.5t67 72t91 39.5t103 13q137 0 221 -58t84 -180q0 -59 -18.5 -102t-49 -65
t-69.5 -37t-80 -20t-80 -12.5t-69.5 -16t-49 -29.5t-18.5 -53v-33h422q0 -26 -1 -78t-1 -78h-582v189q0 49 15 86.5t40 59.5t57.5 38t68.5 24.5t72 15.5t68.5 14.5t57.5 18.5t40 30.5t15 47.5q0 99 -139 99q-57 0 -94 -21.5t-37 -68.5z" />
    <glyph glyph-name="oneeighth" unicode="&#x215b;" horiz-adv-x="1630" 
d="M96 696v140h127v428l-110 -27v137l270 68v-606h131v-140h-418zM1040 1446h185l-787 -1454h-182zM1079 219q-1 -44 44.5 -73t113.5 -29q66 0 112 28.5t46 73.5q0 47 -46.5 76t-109.5 29q-67 0 -113.5 -27t-46.5 -78zM915 219q0 54 35 101t94 67q-51 20 -80.5 62t-29.5 94
q0 110 87.5 166.5t213.5 56.5q81 0 148.5 -22.5t113 -74.5t45.5 -126q0 -108 -110 -152q58 -19 92.5 -69t34.5 -103q1 -64 -26.5 -111.5t-75 -74t-103.5 -38.5t-119 -11q-62 0 -116.5 12t-102 38t-75 73.5t-26.5 111.5zM1094 541q1 -46 40 -69t103 -23t102 23t39 69t-42 70
t-101 24q-56 0 -99 -24t-42 -70z" />
    <glyph glyph-name="threeeighths" unicode="&#x215c;" horiz-adv-x="1761" 
d="M1176 1446h186l-789 -1454h-182zM1210 219q-1 -44 45 -73t113 -29q68 0 113.5 28.5t44.5 73.5q0 47 -46.5 76t-109.5 29q-66 0 -113 -27t-47 -78zM1049 219q0 54 34.5 101t92.5 67q-51 20 -80 61.5t-29 94.5q0 110 87 166.5t214 56.5q80 0 147 -22.5t112.5 -74.5
t45.5 -126q0 -108 -108 -152q58 -19 91.5 -68.5t33.5 -103.5q1 -64 -26.5 -111.5t-74.5 -74t-102.5 -38.5t-118.5 -11q-63 0 -117.5 12t-102 38t-74 73.5t-25.5 111.5zM1225 541q1 -46 40 -69t103 -23t102 23t39 69t-42 70t-99 24q-57 0 -100 -24t-43 -70zM387 1010h-115
v125h107q67 0 103 18.5t36 71.5q0 31 -32 59.5t-105 28.5q-134 0 -148 -88h-141q0 58 25.5 102t68 69.5t93 38.5t104.5 13q55 0 106 -13.5t94 -40t69.5 -71t27.5 -100.5q0 -52 -28 -95t-77 -57q56 -16 88.5 -61.5t32.5 -94.5q0 -66 -28.5 -115t-76.5 -75t-101 -38.5
t-111 -12.5q-44 0 -85.5 7.5t-81 25.5t-68.5 44t-47 65.5t-19 88.5h166q15 -86 141 -86q58 0 101.5 22t43.5 70q0 41 -34 70t-109 29z" />
    <glyph glyph-name="fiveeighths" unicode="&#x215d;" horiz-adv-x="1759" 
d="M1174 1446h186l-789 -1454h-182zM1208 219q-1 -44 45 -73t113 -29q68 0 113.5 28.5t44.5 73.5q0 47 -46.5 76t-109.5 29q-66 0 -113 -27t-47 -78zM1047 219q0 54 34.5 101t92.5 67q-51 20 -80 61.5t-29 94.5q0 110 87 166.5t214 56.5q80 0 147 -22.5t112.5 -74.5
t45.5 -126q0 -108 -108 -152q58 -19 91.5 -68.5t33.5 -103.5q1 -64 -26.5 -111.5t-74.5 -74t-102.5 -38.5t-118.5 -11q-63 0 -117.5 12t-102 38t-74 73.5t-25.5 111.5zM1223 541q1 -46 40 -69t103 -23t102 23t39 69t-42 70t-99 24q-57 0 -100 -24t-43 -70zM643 1434v-142
h-389v-123h129q139 0 222.5 -61t82.5 -188q0 -121 -84 -186.5t-215 -65.5q-62 0 -114 12.5t-95.5 38.5t-68 73t-25.5 111h158q0 -47 39 -68.5t100 -21.5q70 0 107.5 27.5t37.5 79.5q0 51 -36 80.5t-109 29.5h-285v404h545z" />
    <glyph glyph-name="seveneighths" unicode="&#x215e;" horiz-adv-x="1589" 
d="M989 1446h185l-787 -1454h-182zM1038 219q-1 -44 45 -73t113 -29q68 0 113.5 28.5t44.5 73.5q0 47 -46.5 76t-109.5 29q-66 0 -113 -27t-47 -78zM877 219q0 54 34.5 101t92.5 67q-51 20 -80 61.5t-29 94.5q0 110 87 166.5t214 56.5q80 0 147 -22.5t112.5 -74.5t45.5 -126
q0 -108 -108 -152q58 -19 91.5 -68.5t33.5 -103.5q1 -64 -26.5 -111.5t-74.5 -74t-102.5 -38.5t-118.5 -11q-63 0 -117.5 12t-102 38t-74 73.5t-25.5 111.5zM1053 541q1 -46 40 -69t103 -23t102 23t39 69t-42 70t-99 24q-57 0 -100 -24t-43 -70zM307 688h-180l307 602h-356
v144h559l8 -68z" />
    <glyph glyph-name="arrowleft" unicode="&#x2190;" horiz-adv-x="1288" 
d="M537 248l-471 469l471 469l114 -109l-264 -266h784v-190h-786l260 -273z" />
    <glyph glyph-name="arrowup" unicode="&#x2191;" horiz-adv-x="1071" 
d="M68 813l469 471l469 -473l-109 -113l-266 265v-785h-191v787l-272 -260z" />
    <glyph glyph-name="arrowright" unicode="&#x2192;" horiz-adv-x="1290" 
d="M752 1188l471 -469l-473 -469l-113 108l264 267h-784v190h784l-258 272z" />
    <glyph glyph-name="arrowdown" unicode="&#x2193;" horiz-adv-x="1071" 
d="M1004 621l-469 -471l-469 473l108 112l266 -264v784h191v-786l272 260z" />
    <glyph glyph-name="uni2196" unicode="&#x2196;" horiz-adv-x="1040" 
d="M127 440v664h666l4 -158l-377 -2l555 -555l-135 -135l-555 555l-9 -373z" />
    <glyph glyph-name="uni2197" unicode="&#x2197;" horiz-adv-x="1042" 
d="M248 954l6 150h664q0 -112 -1.5 -334t-1.5 -332l-155 -4q0 63 -1 187.5t-1 187.5l-555 -555l-135 137l555 555z" />
    <glyph glyph-name="uni2198" unicode="&#x2198;" horiz-adv-x="1126" 
d="M266 322l-4 147l375 10l-555 555l133 135l555 -555q0 62 1 187.5t1 189.5l158 -6v-663h-664z" />
    <glyph glyph-name="uni2199" unicode="&#x2199;" horiz-adv-x="1124" 
d="M864 469l-6 -147h-663q0 110 1 331t1 332l155 6q0 -64 1 -189.5t1 -187.5l555 555l135 -135l-555 -555z" />
    <glyph glyph-name="partialdiff" unicode="&#x2202;" horiz-adv-x="1210" 
d="M602 172q97 0 167.5 46.5t103 117t32.5 153.5q0 61 -19.5 116.5t-55.5 100.5t-95.5 72t-132.5 27q-142 0 -222.5 -94t-80.5 -222q0 -83 33 -153.5t103.5 -117t166.5 -46.5zM516 983q90 10 180.5 -11.5t149.5 -76.5q-32 88 -124.5 168.5t-197.5 130t-200 66.5l41 174
q348 -63 552.5 -310t204.5 -610q2 -238 -138.5 -386t-381.5 -148q-126 0 -227.5 43t-164 115t-95.5 161.5t-33 187.5q0 88 27.5 170t80 150.5t136.5 115.5t190 60z" />
    <glyph glyph-name="Delta" unicode="&#x2206;" horiz-adv-x="1642" 
d="M903 1434l686 -1434h-1536l684 1434h166zM821 1120l-463 -938h914z" />
    <glyph glyph-name="product" unicode="&#x220f;" horiz-adv-x="1406" 
d="M1231 -389h-230v1610h-593v-1610h-232v1823h1055v-1823z" />
    <glyph glyph-name="summation" unicode="&#x2211;" horiz-adv-x="1208" 
d="M758 745l-367 -528h711v-217h-1024v129l432 621l-404 579v105h984v-203h-654z" />
    <glyph glyph-name="minus" unicode="&#x2212;" horiz-adv-x="1079" 
d="M143 532v191h793v-191h-793z" />
    <glyph glyph-name="uni2215" unicode="&#x2215;" horiz-adv-x="935" 
d="M770 1446h191l-787 -1454h-188z" />
    <glyph glyph-name="uni2219" unicode="&#x2219;" horiz-adv-x="532" 
d="M129 643q0 51 28 86t68.5 43.5t81 0t68.5 -43.5t28 -86t-28 -86t-68.5 -43.5t-81 0t-68.5 43.5t-28 86z" />
    <glyph glyph-name="radical" unicode="&#x221a;" horiz-adv-x="1255" 
d="M1235 1427l-477 -1427h-162l-340 678l-170 -72l-55 137l354 160l305 -665l414 1228z" />
    <glyph glyph-name="infinity" unicode="&#x221e;" horiz-adv-x="1572" 
d="M442 334q-160 3 -249 98.5t-89 226.5q0 86 39 160t120.5 123t191.5 49q156 0 329 -209q185 209 332 209q83 0 151 -28.5t110.5 -75.5t65.5 -106t23 -122q0 -132 -88.5 -227t-249.5 -98q-93 -1 -177.5 54.5t-166.5 152.5q-177 -209 -342 -207zM446 502q32 0 61 10t60 34
t47 38.5t50 48.5q1 1 10 11t16 15l-18 23q-31 34 -51.5 54t-50.5 43.5t-60.5 34.5t-63.5 11q-87 0 -135 -51t-45 -119q2 -62 49 -106t131 -47zM1124 502q88 3 135.5 50.5t45.5 111.5q0 66 -47.5 113.5t-133.5 47.5q-33 0 -62.5 -11t-60.5 -36.5t-48 -42.5t-52 -55l-18 -21
q8 -6 24 -22q40 -43 65 -66.5t67.5 -46t84.5 -22.5z" />
    <glyph glyph-name="integral" unicode="&#x222b;" horiz-adv-x="978" 
d="M367 -4v1075q0 183 101.5 283t262.5 100q129 0 248 -80l-82 -157q-80 53 -154 53q-75 0 -119 -50.5t-44 -148.5v-1075q0 -184 -98.5 -283.5t-260.5 -99.5q-62 0 -112 17.5t-109 56.5l80 155q41 -27 66 -36t65 -9q74 0 115 50t41 149z" />
    <glyph glyph-name="approxequal" unicode="&#x2248;" horiz-adv-x="1183" 
d="M283 696l-140 86q39 78 111.5 123t153.5 45q58 3 117.5 -15t119 -43t98.5 -32q120 -26 160 74l139 -68q-41 -104 -122.5 -153.5t-200.5 -24.5q-34 7 -141.5 50t-155.5 40q-76 6 -139 -82zM283 272l-140 84q40 82 110.5 125t154.5 43q58 4 117.5 -14t119 -43.5t98.5 -32.5
q122 -26 160 76l139 -70q-41 -104 -122.5 -153.5t-200.5 -24.5q-34 7 -141.5 50t-155.5 40q-80 5 -139 -80z" />
    <glyph glyph-name="notequal" unicode="&#x2260;" horiz-adv-x="1134" 
d="M131 317v195h311l150 254h-461v197h574l94 157l92 -53l-62 -104h170v-197h-282l-150 -254h432v-195h-544l-93 -159l-94 55l62 104h-199z" />
    <glyph glyph-name="lessequal" unicode="&#x2264;" horiz-adv-x="923" 
d="M127 172v176h664v-176h-664zM143 856v39l492 395l121 -131l-363 -285l365 -288l-123 -131z" />
    <glyph glyph-name="greaterequal" unicode="&#x2265;" horiz-adv-x="923" 
d="M795 348v-176h-662v176h662zM780 895v-39l-491 -401l-123 131l362 288l-360 285l119 131z" />
    <glyph glyph-name="lozenge" unicode="&#x25ca;" horiz-adv-x="1187" 
d="M1120 719l-440 -703h-176l-438 703l438 706h176zM297 719l295 -506l301 506l-301 506z" />
    <glyph glyph-name="fi" unicode="&#xfb01;" horiz-adv-x="1255" 
d="M741 1235l68 166q-100 53 -201 53q-161 0 -262.5 -100t-101.5 -283v-74h-187v-184h187v-813h213v813h301v184h-301v74q0 98 44.5 148.5t119.5 50.5q58 0 120 -35zM1116 1014h-213v-1014h213v1014zM879 1307q0 49 27 82.5t65.5 41.5t77 0t65.5 -41.5t27 -82.5
q0 -36 -14.5 -64t-37.5 -42.5t-51 -21.5t-56 0t-51 21.5t-37.5 42.5t-14.5 64z" />
    <glyph glyph-name="fl" unicode="&#xfb02;" horiz-adv-x="1265" 
d="M745 1430l-30 -183q-51 23 -97 23q-75 0 -119 -50.5t-44 -148.5v-74h264v-184h-264v-813h-213v813h-185v184h185v74q0 183 101.5 283t262.5 100q72 0 139 -24zM901 1436h213v-1436h-213v1436z" />
    <glyph glyph-name="CR" horiz-adv-x="659" 
 />
    <glyph glyph-name="_0004" horiz-adv-x="0" 
 />
    <glyph glyph-name="g.alt" horiz-adv-x="1306" 
d="M623 840q-140 0 -234 -91t-94 -243q0 -153 94 -244.5t234 -91.5q79 0 142.5 29t103 76t60.5 107t21 123t-21 123t-60.5 107t-103 76t-142.5 29zM137 -129l207 -2q7 -96 89.5 -145.5t213.5 -49.5q61 0 114 17.5t96.5 53t69 96.5t25.5 141v182q-48 -91 -148 -141t-202 -50
q-228 -2 -374 140t-146 393q0 164 70.5 285t188 181t265.5 60q108 0 202.5 -48.5t143.5 -133.5l6 160h205v-1033q0 -132 -43.5 -232t-118 -157t-163.5 -84.5t-191 -27.5q-236 0 -372.5 102.5t-137.5 292.5z" />
    <glyph glyph-name="gcircumflex.alt" horiz-adv-x="1306" 
d="M614 1475h123l299 -281v-12h-215l-147 114l-144 -114h-217v12zM623 840q79 0 142.5 -29t103 -76t60.5 -107t21 -123t-21 -123t-60.5 -107t-103 -76t-142.5 -29q-140 0 -234 91.5t-94 244.5q0 152 94 243t234 91zM344 -131l-207 2q1 -190 137.5 -292.5t372.5 -102.5
q102 0 191 27.5t163.5 84.5t118 157t43.5 232v1033h-205l-6 -160q-49 85 -143.5 133.5t-202.5 48.5q-148 0 -265.5 -60t-188 -181t-70.5 -285q0 -251 146 -393t374 -140q102 0 202 50t148 141v-182q0 -80 -25.5 -141t-69 -96.5t-96.5 -53t-114 -17.5q-131 0 -213.5 49.5
t-89.5 145.5z" />
    <glyph glyph-name="gbreve.alt" horiz-adv-x="1306" 
d="M623 840q-140 0 -234 -91t-94 -243q0 -153 94 -244.5t234 -91.5q79 0 142.5 29t103 76t60.5 107t21 123t-21 123t-60.5 107t-103 76t-142.5 29zM344 -131q7 -96 89.5 -145.5t213.5 -49.5q61 0 114 17.5t96.5 53t69 96.5t25.5 141v182q-48 -91 -148 -141t-202 -50
q-228 -3 -374 139.5t-146 393.5q0 165 70.5 286t188 180.5t265.5 59.5q108 0 202.5 -48.5t143.5 -133.5q0 1 6 160h205v-1033q0 -132 -43.5 -232t-118 -157t-163.5 -84.5t-191 -27.5q-236 0 -372.5 102.5t-137.5 292.5q35 0 103.5 -1t103.5 -1zM784 1452h172
q0 -132 -85 -208.5t-212 -76.5q-82 0 -151 31.5t-111.5 98t-36.5 155.5h172q0 -57 34.5 -92t92.5 -35q57 0 91 35t34 92z" />
    <glyph glyph-name="gdotaccent.alt" horiz-adv-x="1306" 
d="M623 840q79 0 142.5 -29t103 -76t60.5 -107t21 -123t-21 -123t-60.5 -107t-103 -76t-142.5 -29q-140 0 -234 91.5t-94 244.5q0 152 94 243t234 91zM344 -131l-207 2q1 -190 137.5 -292.5t372.5 -102.5q102 0 191 27.5t163.5 84.5t118 157t43.5 232v1033h-205l-6 -160
q-49 85 -143.5 133.5t-202.5 48.5q-148 0 -265.5 -60t-188 -181t-70.5 -285q0 -251 146 -393t374 -140q102 0 202 50t148 141v-182q0 -80 -25.5 -141t-69 -96.5t-96.5 -53t-114 -17.5q-131 0 -213.5 49.5t-89.5 145.5zM514 1343q0 36 14.5 64t37.5 42.5t51 21.5t56 0
t51 -21.5t37.5 -42.5t14.5 -64q0 -49 -27 -82.5t-65.5 -41.5t-77 0t-65.5 41.5t-27 82.5z" />
    <glyph glyph-name="gcommaaccent.alt" horiz-adv-x="1306" 
d="M623 840q79 0 142.5 -29t103 -76t60.5 -107t21 -123t-21 -123t-60.5 -107t-103 -76t-142.5 -29q-140 0 -234 91.5t-94 244.5q0 152 94 243t234 91zM344 -131q-35 0 -103.5 1t-103.5 1q1 -190 137.5 -292.5t372.5 -102.5q102 0 191 27.5t163.5 84.5t118 157t43.5 232v1033
h-205q-6 -159 -6 -160q-49 85 -143.5 133.5t-202.5 48.5q-148 0 -265.5 -59.5t-188 -180.5t-70.5 -286q0 -251 146 -393.5t374 -139.5q102 0 202 50t148 141v-182q0 -80 -25.5 -141t-69 -96.5t-96.5 -53t-114 -17.5q-131 0 -213.5 49.5t-89.5 145.5zM508 1300q0 11 4 23.5
t11.5 31t28 73t44.5 126.5h127l-41 -157q38 -8 61 -34t23 -67q0 -48 -26.5 -80t-64.5 -39t-76 1.5t-64.5 41.5t-26.5 80z" />
    <glyph glyph-name="commaaccent" horiz-adv-x="946" 
d="M653 -272q0 -7 -1 -14t-4 -18.5t-6.5 -23t-11.5 -35t-16.5 -47t-23 -66.5t-29.5 -87h-127l45 194q-40 8 -63 34t-23 67q0 23 13 53q14 33 43.5 51.5t64 18.5t66 -12t52.5 -42.5t21 -72.5z" />
    <glyph glyph-name="commaaccent.alt" horiz-adv-x="946" 
d="M367 1313q0 7 0.5 13t3.5 17.5t6.5 22.5t11.5 35t16 47.5t22.5 67.5t29.5 88h129l-45 -195q38 -8 61 -34.5t23 -67.5q0 -29 -13 -52q-22 -55 -82 -68.5t-111.5 22t-51.5 104.5z" />
    <glyph glyph-name="zero.tf" horiz-adv-x="1433" 
d="M344 838v-240q0 -99 32 -178.5t84 -128.5t118.5 -75.5t136 -26.5t136 26.5t118.5 75.5t84 128.5t32 178.5v240q0 97 -32 176t-84 127.5t-118.5 75t-136 27t-136 -25.5t-118.5 -74.5t-84 -128t-32 -177.5zM117 598v240q0 198 88.5 343.5t222 210.5t288.5 65t288.5 -65.5
t222 -210.5t88.5 -343v-240q0 -198 -88.5 -343.5t-222 -211.5t-288.5 -66t-288.5 65.5t-222 211t-88.5 344.5z" />
    <glyph glyph-name="one.tf" horiz-adv-x="1433" 
d="M252 0v195h371v950l-336 -92v207l565 174v-1239h387v-195h-987z" />
    <glyph glyph-name="two.tf" horiz-adv-x="1433" 
d="M379 1026h-227q4 83 29.5 150t68 112.5t95 78.5t117.5 51t129.5 26t135.5 8q88 0 166.5 -13.5t152 -46.5t126.5 -82.5t85 -125.5t33 -172q0 -100 -32 -177.5t-84.5 -126t-128 -79t-154 -42.5t-170.5 -12q-60 0 -114.5 -9t-110 -30.5t-88.5 -66t-33 -107.5v-147h913v-215
h-1145v362q0 95 34 169.5t89 121t131.5 77t155 42.5t166.5 12q43 0 86 5.5t91 21t84.5 39t60.5 64.5t24 94q0 63 -28 111t-76.5 76t-106.5 42t-125 16q-68 0 -127 -11.5t-110 -37t-81.5 -71t-31.5 -107.5z" />
    <glyph glyph-name="three.tf" horiz-adv-x="1433" 
d="M719 641h-227v188h213q142 0 237 53t96 150q0 39 -17.5 75t-54 68t-102.5 51t-153 19q-58 0 -111.5 -9.5t-105.5 -30.5t-83.5 -62.5t-31.5 -98.5h-229q0 89 34 160.5t89 117t129.5 76t151 43.5t157.5 13q110 0 208.5 -27t176 -78t123.5 -133t47 -184q0 -97 -63 -183.5
t-163 -113.5q110 -31 184 -121t74 -192q0 -93 -33 -168.5t-89 -125.5t-132.5 -84t-160.5 -49t-176 -15q-84 0 -162.5 13t-155.5 44.5t-134 79t-92 122t-36 167.5h231q0 -50 24 -89.5t61 -63.5t85.5 -39.5t93 -21.5t87.5 -6q92 0 170 25t129 79.5t51 129.5q0 41 -16.5 78
t-53 70.5t-106 53t-164.5 19.5z" />
    <glyph glyph-name="four.tf" horiz-adv-x="1433" 
d="M838 1432h295v-926h172v-221h-172v-285h-228v285h-792l-25 225zM348 506h557v680z" />
    <glyph glyph-name="five.tf" horiz-adv-x="1433" 
d="M1217 1432v-215h-805v-304h323q166 0 290.5 -48.5t197.5 -153t73 -254.5q0 -147 -76 -255.5t-201.5 -162t-283.5 -53.5q-94 0 -176 13t-157 45t-128.5 81t-85 124.5t-32.5 172.5h229q0 -52 22 -92t56.5 -64t82.5 -39t93 -20.5t94 -5.5q90 0 164 27t122 86.5t48 142.5
q1 118 -91 180.5t-241 62.5h-547v732h1029z" />
    <glyph glyph-name="six.tf" horiz-adv-x="1433" 
d="M377 1010v-260q53 81 154.5 122t207.5 41q89 0 170.5 -15t158 -50t132.5 -87.5t89.5 -133.5t33.5 -181q0 -93 -33.5 -171t-90.5 -131.5t-132.5 -91t-159 -55t-170.5 -17.5q-111 0 -214 29t-188 84.5t-136.5 148t-51.5 209.5v557q0 111 47.5 199t129 141.5t184.5 81.5
t219 28q117 0 218.5 -24t182 -72t128 -127.5t49.5 -183.5h-232q-1 66 -51.5 114t-126.5 70t-166 22q-85 0 -163.5 -26.5t-133.5 -84.5t-55 -136zM737 186q69 0 131.5 15t114.5 45.5t82.5 82t30.5 117.5q0 85 -51 147t-130.5 91t-175.5 29q-150 0 -256.5 -70.5t-105.5 -196.5
q0 -87 53 -147.5t132 -86.5t175 -26z" />
    <glyph glyph-name="seven.tf" horiz-adv-x="1433" 
d="M598 0h-264l633 1214h-770v220h1063l14 -131z" />
    <glyph glyph-name="eight.tf" horiz-adv-x="1433" 
d="M713 649q-66 0 -129.5 -13.5t-119.5 -40.5t-90.5 -73.5t-35.5 -105.5q-1 -105 107.5 -171.5t267.5 -66.5t265.5 65.5t106.5 172.5q-1 79 -58.5 133.5t-138.5 77t-175 22.5zM104 418q2 103 68 192.5t178 128.5q-97 35 -154 114.5t-57 180.5q0 105 48 188.5t130 134
t183.5 77t214.5 26.5q90 0 173 -15t158 -48t130.5 -81.5t88 -121t33.5 -160.5q0 -97 -55.5 -173t-161.5 -113q112 -38 179 -133t67 -197q2 -95 -32 -172.5t-92.5 -128.5t-138.5 -85.5t-167 -49.5t-182 -15q-98 0 -185.5 15t-166.5 49t-136.5 85t-90.5 128.5t-32 173.5z
M375 1040q1 -72 50 -123.5t124.5 -74.5t167.5 -23q143 0 241 57t101 164q1 105 -100 166.5t-244 61.5q-148 0 -245.5 -64.5t-94.5 -163.5z" />
    <glyph glyph-name="nine.tf" horiz-adv-x="1433" 
d="M1057 428v260q-54 -81 -155.5 -123.5t-207.5 -42.5q-89 0 -170.5 15t-157.5 50.5t-132 88.5t-89.5 134t-33.5 181q0 93 33.5 171t90.5 131.5t132.5 91.5t158.5 55.5t170 17.5q111 0 214 -29t188 -85t136.5 -148.5t51.5 -208.5v-557q0 -111 -49.5 -199t-132.5 -141.5
t-184.5 -81.5t-212.5 -28q-118 0 -220 24t-184.5 71.5t-130.5 127.5t-49 184h231q1 -66 53 -114.5t130 -71.5t168 -23q79 0 157.5 27t136.5 86.5t58 136.5zM696 1251q-95 0 -173.5 -25.5t-131.5 -86t-53 -148.5q0 -129 103 -197.5t253 -68.5t256.5 70t106.5 196
q-1 87 -54.5 147.5t-132 86.5t-174.5 26z" />
    <glyph glyph-name="Euro.tf" horiz-adv-x="1433" 
d="M1217 221l63 -213q-115 -37 -250 -37q-154 0 -277 37.5t-208 107t-139.5 161.5t-81.5 208h-156v172h131q-2 16 -2 50q0 41 2 61h-131v174h160q28 113 84 205t141 162.5t207 109.5t270 39q108 0 217 -31l-69 -204q-63 18 -148 18q-181 0 -298.5 -79.5t-170.5 -219.5h490
l-41 -174h-498q-2 -18 -2 -59q0 -38 2 -52h467l-37 -172h-385q49 -140 168 -219.5t305 -79.5q94 0 187 35z" />
    <glyph glyph-name="cent.tf" horiz-adv-x="1433" 
d="M1042 260l132 -154q-125 -121 -285 -145v-145h-199v147q-188 36 -307 177.5t-119 340.5q0 193 116.5 335.5t309.5 180.5v144h199v-142q165 -28 285 -145l-127 -137q-46 45 -115.5 71.5t-132.5 26.5q-135 0 -229.5 -94t-94.5 -240q0 -147 94.5 -240.5t229.5 -93.5
q60 0 127 32t116 81z" />
    <glyph glyph-name="sterling.tf" horiz-adv-x="1433" 
d="M500 997q0 -20 2 -42.5t3.5 -36.5t7.5 -43.5t7.5 -36.5t10 -43t8.5 -37h450v-193h-411q8 -42 3 -92t-18.5 -95.5t-48.5 -89.5t-88 -73q140 0 426 1t426 1v-217h-1116v215q208 107 188 350h-188v193h149q-41 164 -41 235q0 219 139 340t375 121q218 0 348.5 -101.5
t137.5 -316.5h-209q-14 215 -275 215q-143 0 -214.5 -69t-71.5 -185z" />
    <glyph glyph-name="florin.tf" horiz-adv-x="1433" 
d="M592 -4v815h-295v186h295v74q0 183 101.5 283t262.5 100q129 0 248 -80l-82 -157q-80 53 -153 53q-75 0 -119.5 -50.5t-44.5 -148.5v-74h334v-186h-334v-815q0 -184 -99 -283.5t-260 -99.5q-63 0 -112.5 17t-108.5 57l80 155q41 -27 65.5 -36t63.5 -9q74 0 116 50t42 149
z" />
    <glyph glyph-name="yen.tf" horiz-adv-x="1433" 
d="M276 264v168h318v111h-318v170h236l-471 710v11h272l396 -633l409 633h275v-11l-484 -710h234v-170h-320v-111h320v-168h-320v-264h-229v264h-318z" />
    <glyph glyph-name="dollar.tf" horiz-adv-x="1433" 
d="M1274 1188l-187 -88q-43 73 -148 118.5t-214 45.5q-67 0 -126.5 -11t-111.5 -35t-82.5 -67t-29.5 -100q0 -35 12.5 -62.5t39 -47.5t55 -34t74.5 -25t82.5 -17.5t92.5 -14.5q60 -8 98 -14t94.5 -17.5t93 -23t83 -30.5t76.5 -41t62 -53t50 -68t29.5 -85t11.5 -104
q0 -79 -27.5 -147.5t-74 -117.5t-109 -85t-133 -55.5t-145.5 -24.5v-201h-215v194q-116 8 -216 43.5t-186.5 109t-132.5 177.5l205 86q44 -98 166.5 -156.5t257.5 -58.5q71 0 135.5 13t120 40t88.5 74t33 109q0 55 -30.5 96t-89 67t-119.5 41t-146 27q-55 7 -94.5 13t-90 16
t-87 21t-78 28.5t-70.5 38.5t-57 50t-45.5 63.5t-28 79t-10.5 96.5q-1 95 39.5 170.5t110.5 123t151.5 75.5t173.5 38v182h215v-182q96 -13 172 -39.5t147.5 -85t114.5 -145.5z" />
    <glyph glyph-name="zero.denom" horiz-adv-x="808" 
d="M236 420v-111q0 -49 18.5 -88t47.5 -59t65 -29.5t71.5 -0.5t64.5 29t47.5 59t18.5 89v111q0 51 -18.5 90.5t-47.5 60.5t-65 30.5t-71.5 0t-64.5 -30t-47.5 -60.5t-18.5 -91zM80 311v111q0 80 28 144t73.5 103.5t104 61t119 21.5t119 -21.5t104 -61t73.5 -104t28 -143.5
v-111q0 -80 -28 -144.5t-73.5 -104.5t-104 -61.5t-119 -21.5t-119 21.5t-104 61.5t-73.5 104.5t-28 144.5z" />
    <glyph glyph-name="one.denom" horiz-adv-x="542" 
d="M74 0v139h127v428l-111 -26v139l270 65v-606h132v-139h-418z" />
    <glyph glyph-name="two.denom" horiz-adv-x="751" 
d="M240 530h-158q1 59 26 104.5t67 72t91 40t103 13.5q65 0 119 -13t96.5 -40t66 -73.5t23.5 -109.5q0 -59 -18.5 -102t-49 -65t-69.5 -37t-80 -20t-80 -13t-69.5 -16.5t-49 -29.5t-18.5 -53v-32h424v-156h-586v188q0 55 18.5 95t49 61.5t69.5 37t80 22t80 16t69.5 19.5
t49 31.5t18.5 53.5q0 97 -141 97q-57 0 -93.5 -21.5t-37.5 -69.5z" />
    <glyph glyph-name="three.denom" horiz-adv-x="763" 
d="M379 322h-117v124h109q66 0 102 19t37 70q0 31 -33 59.5t-104 28.5q-134 0 -148 -88h-143q0 57 26 102t68.5 71t92.5 39t104 13q75 0 140 -23t110.5 -76t46.5 -126q0 -52 -27.5 -95.5t-75.5 -56.5q55 -17 88 -62.5t33 -95.5q0 -65 -29 -114t-76.5 -75.5t-101 -39
t-110.5 -12.5q-56 0 -107.5 13t-95.5 39t-70.5 72.5t-27.5 106.5h166q14 -84 139 -84q59 0 102 21t43 69q0 42 -33 71.5t-108 29.5z" />
    <glyph glyph-name="four.denom" horiz-adv-x="770" 
d="M397 745h211v-464h86v-142h-86v-139h-157v139h-394l-8 135zM451 281v311l-234 -311h234z" />
    <glyph glyph-name="five.denom" horiz-adv-x="745" 
d="M635 745v-139h-389v-125h129q139 0 222.5 -61t82.5 -189q0 -121 -84.5 -186t-214.5 -65q-62 0 -114.5 12.5t-96 39t-68.5 73.5t-26 110h157q1 -47 41 -68.5t101 -21.5q68 0 105.5 27t37.5 79t-35.5 81.5t-107.5 29.5h-285v403h545z" />
    <glyph glyph-name="six.denom" horiz-adv-x="778" 
d="M397 127q62 0 105 25t43 77q0 54 -42 81.5t-104 27.5q-63 0 -105.5 -28t-41.5 -79q0 -53 41 -78.5t104 -25.5zM399 473q61 0 112 -11.5t96.5 -37.5t71.5 -76t26 -119q0 -62 -26.5 -110t-71.5 -75.5t-98 -41.5t-112 -14q-79 0 -146 25t-113 82t-46 136v285
q0 79 44.5 135.5t110.5 81.5t144 25q84 0 150 -21t109 -70.5t44 -121.5h-159q-9 73 -142 73q-62 0 -101.5 -24.5t-39.5 -77.5v-96q25 25 66.5 39t80.5 14z" />
    <glyph glyph-name="seven.denom" horiz-adv-x="653" 
d="M287 0h-181l310 602h-359v143h559l9 -67z" />
    <glyph glyph-name="eight.denom" horiz-adv-x="792" 
d="M238 217q-1 -44 44.5 -73t112.5 -29q68 0 113.5 28.5t44.5 73.5q0 49 -46 77t-110 28q-66 0 -112.5 -27t-46.5 -78zM76 217q0 54 34.5 101t92.5 67q-51 20 -80 62.5t-29 93.5q0 110 87 166.5t214 56.5q80 0 147 -22.5t112.5 -74.5t45.5 -126q0 -105 -108 -152
q58 -19 91.5 -68.5t33.5 -103.5q1 -64 -26.5 -111.5t-74.5 -74t-102.5 -38.5t-118.5 -11q-63 0 -117.5 12t-102 38t-74 73.5t-25.5 111.5zM252 539q1 -45 40.5 -69t102.5 -24t102 24t40 69q1 47 -42 70.5t-100 23.5t-100 -24t-43 -70z" />
    <glyph glyph-name="nine.denom" horiz-adv-x="778" 
d="M381 616q-61 0 -103 -24.5t-42 -77.5q0 -52 40.5 -79t102.5 -27q63 0 106 27t43 79t-42 77t-105 25zM379 270q-47 0 -88.5 6.5t-82 24t-69.5 44t-47 70t-18 99.5q0 62 27 110t72 76t98 42t110 14q125 0 215 -63t90 -181v-283q0 -118 -88 -180.5t-211 -62.5
q-130 0 -215 53.5t-88 161.5h160q9 -76 141 -76q61 0 101 25.5t40 78.5v95q-25 -25 -66.5 -39.5t-80.5 -14.5z" />
    <glyph glyph-name="zero.num" horiz-adv-x="811" 
d="M236 1124v-110q0 -49 18.5 -88t47.5 -59t65 -29.5t71.5 -0.5t64.5 29t47.5 59t18.5 89v110q0 51 -18.5 90.5t-47.5 60.5t-65 30.5t-71.5 0t-64.5 -30t-47.5 -60.5t-18.5 -91zM80 1016v110q0 80 28 144t73.5 103.5t104 61t120 21.5t120 -21.5t104 -61t73.5 -104t28 -143.5
v-110q0 -80 -28 -144.5t-73.5 -104.5t-104 -61.5t-120 -21.5t-120 21.5t-104 61.5t-73.5 104.5t-28 144.5z" />
    <glyph glyph-name="one.num" horiz-adv-x="546" 
d="M76 711v139h127v428l-111 -25v138l270 67v-608h132v-139h-418z" />
    <glyph glyph-name="two.num" horiz-adv-x="753" 
d="M242 1225h-158q1 59 26 104.5t67 72t91 39.5t103 13q88 0 154 -22t108.5 -76t42.5 -137q0 -59 -18.5 -102t-49 -65t-69.5 -37t-80 -20t-80 -13t-69.5 -16.5t-49 -29.5t-18.5 -53v-33h424v-156h-586v189q0 55 18.5 95t49 61.5t69.5 37t80 22t80 16t69.5 19.5t49 31.5
t18.5 53.5q0 96 -141 96q-128 0 -131 -90z" />
    <glyph glyph-name="three.num" horiz-adv-x="761" 
d="M377 1020h-115v125h107q66 0 102 18.5t37 69.5q0 31 -33 59.5t-104 28.5q-134 0 -148 -88h-141q0 58 25.5 102.5t68 70.5t93 39t104.5 13q74 0 139 -23t110.5 -76t45.5 -126q0 -52 -27.5 -95.5t-75.5 -56.5q56 -16 88.5 -61.5t32.5 -95.5q0 -65 -28.5 -114t-76 -76
t-101 -39.5t-111.5 -12.5q-44 0 -85.5 7.5t-81 25.5t-68.5 44t-47 65.5t-19 88.5h165q14 -84 142 -84q35 0 65.5 7.5t54 29t23.5 54.5q0 41 -33 70.5t-108 29.5z" />
    <glyph glyph-name="four.num" horiz-adv-x="765" 
d="M397 1438h211v-465h86v-142h-86v-139h-157v139h-394l-8 136zM451 973v311l-234 -311h234z" />
    <glyph glyph-name="five.num" horiz-adv-x="745" 
d="M635 1436v-142h-389v-123h129q139 0 222.5 -61t82.5 -188q0 -121 -84 -186.5t-215 -65.5q-62 0 -114 12.5t-95.5 38.5t-68 73t-25.5 111h158q0 -47 39 -68.5t100 -21.5q70 0 107.5 27.5t37.5 79.5q0 51 -36 80.5t-109 29.5h-285v404h545z" />
    <glyph glyph-name="six.num" horiz-adv-x="776" 
d="M397 823q61 0 103.5 26t42.5 79q0 52 -42 79t-104 27t-105 -27.5t-42 -78.5q0 -53 42 -79t105 -26zM397 1169q61 0 111.5 -11t96 -36.5t71.5 -75t26 -118.5q0 -62 -26.5 -110.5t-71 -76.5t-97.5 -42.5t-110 -14.5q-125 0 -216 64t-91 182v282q0 117 88.5 179.5
t212.5 62.5q130 0 215 -53.5t86 -159.5h-160q-4 37 -41.5 56.5t-99.5 19.5q-61 0 -101 -26t-40 -79v-96q53 53 147 53z" />
    <glyph glyph-name="seven.num" horiz-adv-x="657" 
d="M287 686h-181l310 604h-359v144h559l9 -70z" />
    <glyph glyph-name="eight.num" horiz-adv-x="792" 
d="M238 911q0 -44 45.5 -73t113.5 -29q66 0 111.5 28.5t44.5 73.5q0 49 -46 77t-110 28q-66 0 -112.5 -27t-46.5 -78zM76 911q0 54 34.5 101t92.5 67q-51 20 -80 62.5t-29 93.5q0 110 87.5 166.5t213.5 56.5q80 0 147 -22.5t112.5 -74.5t45.5 -126q0 -105 -108 -152
q58 -19 91.5 -68.5t33.5 -103.5q1 -64 -26.5 -111.5t-74.5 -74t-102.5 -38.5t-118.5 -11q-62 0 -116.5 12t-101.5 38t-74.5 73.5t-26.5 111.5zM254 1233q0 -45 39 -68.5t104 -23.5q62 0 101 24t39 68q1 47 -41.5 70.5t-100.5 23.5q-57 0 -99.5 -24t-41.5 -70z" />
    <glyph glyph-name="nine.num" horiz-adv-x="776" 
d="M379 1317q-61 0 -103.5 -26t-42.5 -79q0 -52 41 -79t103 -27q63 0 106 27.5t43 78.5q0 53 -42 79t-105 26zM377 971q-47 0 -88.5 6.5t-82 23t-69.5 43t-47 69.5t-18 99q0 82 47.5 139t114.5 81t145 24q125 0 215 -64t90 -182v-282q0 -79 -44.5 -135.5t-110.5 -81.5
t-144 -25q-130 0 -215 53.5t-88 159.5h160q4 -37 41.5 -56.5t99.5 -19.5q61 0 101 26t40 79v96q-25 -26 -66 -39.5t-81 -13.5z" />
    <glyph glyph-name="parenleft.case" horiz-adv-x="731" 
d="M565 1638l107 -145q-175 -135 -267 -335t-94 -429q0 -237 90.5 -431.5t270.5 -332.5l-115 -155q-149 98 -254.5 244.5t-156.5 310t-54 337.5q-6 274 116.5 527t356.5 409z" />
    <glyph glyph-name="parenright.case" horiz-adv-x="729" 
d="M57 1501l109 146q157 -105 266 -259.5t159 -326t46 -350.5q-3 -174 -53.5 -337.5t-156 -311t-255.5 -244.5l-111 159q360 274 357 760q0 229 -92 429t-269 335z" />
    <glyph glyph-name="hyphen.case" horiz-adv-x="1032" 
d="M143 604v189h746v-189h-746z" />
    <glyph glyph-name="bracketleft.case" horiz-adv-x="727" 
d="M641 -197h-463v1815h463v-191h-248v-1431h248v-193z" />
    <glyph glyph-name="bracketright.case" horiz-adv-x="727" 
d="M549 -197h-463v195h248v1432h-248v190h463v-1817z" />
    <glyph glyph-name="braceleft.case" horiz-adv-x="724" 
d="M637 -20v-166q-219 -37 -315.5 49.5t-96.5 292.5v270q0 39 -5 68t-19 59t-45 46.5t-78 16.5v160q38 0 65.5 12t43 29.5t24.5 44t11.5 50t2.5 53.5v284q0 400 412 324v-164q-107 25 -150 -13.5t-43 -154.5v-276v-15q0 -32 -0.5 -48t-3 -44t-7.5 -43.5t-15.5 -36.5
t-25.5 -34t-38 -26t-53 -22q30 -8 53 -21t38 -26t25.5 -35t15.5 -37t7.5 -43.5t3 -44t0.5 -48.5v-15v-281q0 -116 37.5 -148t155.5 -17z" />
    <glyph glyph-name="bar.case" horiz-adv-x="569" 
d="M389 1544v-1708h-209v1708h209z" />
    <glyph glyph-name="braceright.case" horiz-adv-x="722" 
d="M86 -186v166q118 -15 155.5 17t37.5 148v283q0 109 11 147q24 90 128 120q2 0 4 1q-30 9 -53 22t-38 26t-25.5 34.5t-15.5 36.5t-7.5 43.5t-3 44t-0.5 48.5v6v5v5v274q0 116 -43.5 155.5t-149.5 14.5v162q412 76 412 -324v-282q0 -38 5 -67t19 -59.5t45 -47.5t78 -17
v-160q-47 0 -78 -16.5t-45 -46.5t-19 -58.5t-5 -66.5v-272q0 -206 -96.5 -292.5t-315.5 -49.5z" />
    <glyph glyph-name="guilsinglleft.case" horiz-adv-x="759" 
d="M113 700l284 451h228v-2l-283 -449q174 -282 227 -366q25 -43 56 -88h-228z" />
    <glyph glyph-name="guilsinglright.case" horiz-adv-x="757" 
d="M360 1149l285 -451l-285 -454h-225l281 454l-281 449v2h225z" />
    <glyph glyph-name="guillemotleft.case" horiz-adv-x="1079" 
d="M113 702l284 453h228v-2l-283 -451q47 -75 141.5 -226t141.5 -226h-228zM438 702l285 453h225v-2l-280 -451l280 -452h-225z" />
    <glyph glyph-name="guillemotright.case" horiz-adv-x="1083" 
d="M686 1163l283 -452l-283 -453h-227l280 453l-280 448v4h227zM360 1163l285 -452l-285 -453h-227l283 453l-283 448v4h227z" />
    <glyph glyph-name="endash.case" horiz-adv-x="1245" 
d="M145 588v188h955v-188h-955z" />
    <glyph glyph-name="emdash.case" horiz-adv-x="1439" 
d="M141 586v192h1157v-192h-1157z" />
    <glyph glyph-name="bullet.case" horiz-adv-x="819" 
d="M412 432q-107 0 -178.5 67.5t-71.5 174.5q0 109 71.5 176.5t178.5 67.5q106 0 175.5 -67.5t69.5 -176.5q0 -107 -69.5 -174.5t-175.5 -67.5z" />
    <glyph glyph-name="periodcentered.case" horiz-adv-x="559" 
d="M143 682q0 64 42.5 100t94 36t94 -36t42.5 -100t-42.5 -100t-94 -36t-94 36t-42.5 100z" />
    <glyph glyph-name="a.alt" horiz-adv-x="1136" 
d="M500 1032q504 0 504 -397v-635h-185l-12 125q-59 -70 -152.5 -105.5t-195.5 -35.5q-78 0 -147 19t-126 58t-90 105t-33 153q0 108 60 185t150 111.5t196 33.5q198 0 322 -76v62q0 58 -24.5 100.5t-67 65.5t-92 34t-107.5 11q-82 0 -171.5 -21t-154.5 -51l-33 170
q187 88 359 88zM276 319q0 -78 67.5 -117.5t156.5 -39.5q71 0 136.5 27.5t109.5 82t45 123.5q-52 35 -131.5 56.5t-149.5 23.5q-101 0 -167.5 -39t-66.5 -117z" />
    <glyph glyph-name="agrave.alt" horiz-adv-x="1136" 
d="M500 1032q504 0 504 -397v-635h-193l-12 125q-57 -70 -149.5 -105.5t-190.5 -35.5q-78 0 -147 19t-126 58t-90 105t-33 153q0 108 60 185t150 111.5t196 33.5q198 0 322 -76v62q0 58 -24.5 100.5t-67 65.5t-92 34t-107.5 11q-82 0 -171.5 -21t-154.5 -51l-33 170
q187 88 359 88zM276 319q0 -78 67.5 -117.5t156.5 -39.5q71 0 136.5 27.5t109.5 82t45 123.5q-52 35 -131.5 56.5t-149.5 23.5q-101 0 -167.5 -39t-66.5 -117zM299 1440v8h254l137 -254v-12h-190z" />
    <glyph glyph-name="aacute.alt" horiz-adv-x="1136" 
d="M500 1032q-172 0 -359 -88l33 -170q65 30 154.5 51t171.5 21q58 0 107.5 -11t92 -34t67 -65.5t24.5 -100.5v-62q-124 76 -322 76q-106 1 -196 -33.5t-150 -111.5t-60 -185q0 -87 33 -153t90 -105t126 -58t147 -19q98 0 190.5 35.5t149.5 105.5l12 -125h193v635
q0 397 -504 397zM276 319q0 78 66.5 117t167.5 39q70 -2 149.5 -23.5t131.5 -56.5q-1 -69 -45 -123.5t-109.5 -82t-136.5 -27.5q-89 0 -156.5 39.5t-67.5 117.5zM815 1448v-8l-201 -258h-188v12l137 254h252z" />
    <glyph glyph-name="acircumflex.alt" horiz-adv-x="1136" 
d="M489 1454h123l293 -276v-13h-215l-139 127l-141 -127h-209v13zM500 1032q-172 0 -359 -88l33 -170q65 30 154.5 51t171.5 21q58 0 107.5 -11t92 -34t67 -65.5t24.5 -100.5v-62q-124 76 -322 76q-106 1 -196 -33.5t-150 -111.5t-60 -185q0 -87 33 -153t90 -105t126 -58
t147 -19q102 0 195.5 35.5t152.5 105.5l12 -125h185v635q0 397 -504 397zM276 319q0 78 66.5 117t167.5 39q70 -2 149.5 -23.5t131.5 -56.5q-1 -69 -45 -123.5t-109.5 -82t-136.5 -27.5q-89 0 -156.5 39.5t-67.5 117.5z" />
    <glyph glyph-name="atilde.alt" horiz-adv-x="1136" 
d="M500 1032q504 0 504 -397v-635h-193l-6 63t-6 62q-59 -70 -149.5 -105.5t-190.5 -35.5q-78 0 -147 19t-126 58t-90 105t-33 153q0 108 60 185t150 111.5t196 33.5q198 0 322 -76v62q0 58 -24.5 100.5t-67 65.5t-92 34t-107.5 11q-82 0 -171.5 -21t-154.5 -51l-33 170
q187 88 359 88zM276 319q0 -78 67.5 -117.5t156.5 -39.5q71 0 136.5 27.5t109.5 82t45 123.5q-52 35 -131.5 56.5t-149.5 23.5q-101 0 -167.5 -39t-66.5 -117zM377 1217l-133 69q30 91 100.5 138t159.5 26q25 -6 70 -28.5t65 -28.5q78 -29 115 55l141 -64
q-34 -104 -97 -145.5t-136 -21.5q-28 7 -86.5 35.5t-86.5 33.5q-72 14 -112 -69z" />
    <glyph glyph-name="adieresis.alt" horiz-adv-x="1136" 
d="M500 1032q-172 0 -359 -88l33 -170q65 30 154.5 51t171.5 21q58 0 107.5 -11t92 -34t67 -65.5t24.5 -100.5v-62q-124 76 -322 76q-106 1 -196 -33.5t-150 -111.5t-60 -185q0 -87 33 -153t90 -105t126 -58t147 -19q98 0 190.5 35.5t149.5 105.5l12 -125h193v635
q0 397 -504 397zM276 319q0 78 66.5 117t167.5 39q70 -2 149.5 -23.5t131.5 -56.5q-1 -69 -45 -123.5t-109.5 -82t-136.5 -27.5q-89 0 -156.5 39.5t-67.5 117.5zM217 1333q0 48 26.5 81.5t64 41t75 0t64 -41t26.5 -81.5t-26.5 -80.5t-64 -40.5t-75 0t-64 40.5t-26.5 80.5z
M664 1333q0 48 26 81.5t63.5 41t75 0t63.5 -41t26 -81.5t-26 -80.5t-63.5 -40.5t-75 0t-63.5 40.5t-26 80.5z" />
    <glyph glyph-name="amacron.alt" horiz-adv-x="1136" 
d="M500 1032q504 0 504 -397v-635h-193l-12 125q-57 -70 -149.5 -105.5t-190.5 -35.5q-78 0 -147 19t-126 58t-90 105t-33 153q0 108 60 185t150 111.5t196 33.5q198 0 322 -76v62q0 58 -24.5 100.5t-67 65.5t-92 34t-107.5 11q-82 0 -171.5 -21t-154.5 -51l-33 170
q187 88 359 88zM276 319q0 -78 67.5 -117.5t156.5 -39.5q71 0 136.5 27.5t109.5 82t45 123.5q-52 35 -131.5 56.5t-149.5 23.5q-101 0 -167.5 -39t-66.5 -117zM225 1249v174h676v-174h-676z" />
    <glyph glyph-name="abreve.alt" horiz-adv-x="1136" 
d="M500 1032q504 0 504 -397v-635h-193l-6 63t-6 62q-59 -70 -149.5 -105.5t-190.5 -35.5q-78 0 -147 19t-126 58t-90 105t-33 153q0 108 60 185t150 111.5t196 33.5q198 0 322 -76v62q0 58 -24.5 100.5t-67 65.5t-92 34t-107.5 11q-82 0 -171.5 -21t-154.5 -51l-33 170
q187 88 359 88zM276 319q0 -78 67.5 -117.5t156.5 -39.5q71 0 136.5 27.5t109.5 82t45 123.5q-52 35 -131.5 56.5t-149.5 23.5q-101 0 -167.5 -39t-66.5 -117zM676 1448h172q9 -125 -65 -200.5t-191 -86.5q-89 -9 -167.5 19.5t-128 99t-42.5 168.5h172q0 -58 34 -93.5
t93 -35.5q56 0 89.5 35.5t33.5 93.5z" />
    <glyph glyph-name="aring.alt" horiz-adv-x="1136" 
d="M500 1032q504 0 504 -397v-635h-193l-12 125q-57 -70 -149.5 -105.5t-190.5 -35.5q-78 0 -147 19t-126 58t-90 105t-33 153q0 108 60 185t150 111.5t196 33.5q198 0 322 -76v62q0 58 -24.5 100.5t-67 65.5t-92 34t-107.5 11q-82 0 -171.5 -21t-154.5 -51l-33 170
q187 88 359 88zM276 319q0 -78 67.5 -117.5t156.5 -39.5q71 0 136.5 27.5t109.5 82t45 123.5q-52 35 -131.5 56.5t-149.5 23.5q-101 0 -167.5 -39t-66.5 -117zM311 1356q0 99 72.5 155t171.5 56q98 0 171 -56t73 -155t-72.5 -155t-171.5 -56q-102 0 -173 56t-71 155z
M553 1454q-54 0 -84.5 -30.5t-30 -66.5t31 -66.5t83.5 -30.5q54 0 84.5 30.5t29.5 66.5t-31.5 66.5t-82.5 30.5z" />
    <glyph glyph-name="aringacute.alt" horiz-adv-x="1136" 
d="M500 1032q-172 0 -359 -88l33 -170q65 30 154.5 51t171.5 21q58 0 107.5 -11t92 -34t67 -65.5t24.5 -100.5v-62q-124 76 -322 76q-106 1 -196 -33.5t-150 -111.5t-60 -185q0 -87 33 -153t90 -105t126 -58t147 -19q98 0 190.5 35.5t149.5 105.5l12 -125h193v635
q0 397 -504 397zM276 319q0 78 66.5 117t167.5 39q70 -2 149.5 -23.5t131.5 -56.5q-1 -69 -45 -123.5t-109.5 -82t-136.5 -27.5q-89 0 -156.5 39.5t-67.5 117.5zM326 1294q0 -91 66 -140.5t161 -49.5q93 0 160 50t67 140t-67.5 141.5t-159.5 51.5q-93 0 -160 -51.5
t-67 -141.5zM551 1376q44 0 70 -25t26.5 -54.5t-25 -54.5t-71.5 -25q-45 0 -71 25t-26 54.5t25.5 54.5t71.5 25zM852 1741v-6l-211 -197h-178v8l147 195h242z" />
    <glyph glyph-name="aogonek.alt" horiz-adv-x="1136" 
d="M276 319q0 -78 67.5 -117.5t156.5 -39.5q71 0 136.5 27.5t109.5 82t45 123.5q-52 35 -131.5 56.5t-149.5 23.5q-101 0 -167.5 -39t-66.5 -117zM500 1032q504 0 504 -397v-727q-50 7 -104 -3t-90.5 -38.5t-29.5 -67.5q3 -32 38.5 -53.5t86.5 -15.5q71 7 117 59l111 -82
q-40 -68 -117.5 -102t-161.5 -29q-93 5 -157 51.5t-76 122.5q-4 30 1 60t23 65t60.5 66.5t105.5 52.5q-2 22 -6 65.5t-6 65.5q-57 -70 -149.5 -105.5t-190.5 -35.5q-78 0 -147 19t-126 58t-90 105t-33 153q0 108 60 185t150 111.5t196 33.5q198 0 322 -76v62
q0 58 -24.5 100.5t-67 65.5t-92 34t-107.5 11q-82 0 -171.5 -21t-154.5 -51l-33 170q187 88 359 88z" />
    <glyph glyph-name="y.alt" 
d="M127 1010h211v-541q0 -132 72 -211.5t202 -79.5q123 0 202 88.5t79 216.5v527h211v-1039q0 -123 -39 -220t-106 -156t-151.5 -89t-180.5 -30q-208 0 -336.5 99.5t-143.5 285.5h207q41 -191 269 -191q117 0 198.5 79.5t81.5 225.5v172q-67 -90 -152 -126.5t-198 -36.5
q-190 0 -308 129t-118 354v543z" />
    <glyph glyph-name="yacute.alt" 
d="M338 1010h-211v-543q0 -225 118 -354t308 -129q113 0 198 36.5t152 126.5v-172q0 -146 -81.5 -225.5t-198.5 -79.5q-228 0 -269 191h-207q15 -186 143.5 -285.5t336.5 -99.5q96 0 180.5 30t151.5 89t106 156t39 220v1039h-211v-527q0 -128 -79 -216.5t-202 -88.5
q-130 0 -202 79.5t-72 211.5v541zM897 1436v-9l-213 -270h-188v12l149 267h252z" />
    <glyph glyph-name="ycircumflex.alt" 
d="M338 1010h-211v-543q0 -225 118 -354t308 -129q113 0 198 36.5t152 126.5v-172q0 -146 -81.5 -225.5t-198.5 -79.5q-228 0 -269 191h-207q15 -186 143.5 -285.5t336.5 -99.5q96 0 180.5 30t151.5 89t106 156t39 220v1039h-211v-527q0 -128 -79 -216.5t-202 -88.5
q-130 0 -202 79.5t-72 211.5v541zM561 1458h123l301 -278v-13h-219l-143 123l-144 -123h-219v13z" />
    <glyph glyph-name="ydieresis.alt" 
d="M338 1010h-211v-543q0 -225 118 -354t308 -129q113 0 198 36.5t152 126.5v-172q0 -146 -81.5 -225.5t-198.5 -79.5q-228 0 -269 191h-207q15 -186 143.5 -285.5t336.5 -99.5q96 0 180.5 30t151.5 89t106 156t39 220v1039h-211v-527q0 -128 -79 -216.5t-202 -88.5
q-130 0 -202 79.5t-72 211.5v541zM268 1319q0 48 26 81.5t63 41t74 0t63 -41t26 -81.5q0 -47 -26 -79.5t-63 -40t-74 0t-63 40t-26 79.5zM754 1319q0 48 26 81.5t63.5 41t75 0t63.5 -41t26 -81.5q0 -47 -26 -79.5t-63.5 -40t-75 0t-63.5 40t-26 79.5z" />
    <glyph glyph-name="ygrave.alt" 
d="M127 1010h211v-541q0 -132 72 -211.5t202 -79.5q123 0 202 88.5t79 216.5v527h211v-1039q0 -123 -39 -220t-106 -156t-151.5 -89t-180.5 -30q-208 0 -336.5 99.5t-143.5 285.5h207q41 -191 269 -191q117 0 198.5 79.5t81.5 225.5v172q-67 -90 -152 -126.5t-198 -36.5
q-190 0 -308 129t-118 354v543zM354 1427v9h254l150 -267v-12h-189z" />
    </font>
</defs>
</svg>
